<?xml version="1.0" encoding="UTF-8" standalone="no"?><svg width="218" height="218" viewBox="0 0 218 218" fill="none" xmlns="http://www.w3.org/2000/svg">
<path d="M9.08325 156.233C9.08325 151.086 10.4094 146.357 13.0618 142.045C15.7141 137.734 19.2324 134.439 23.6166 132.162C33.0027 127.469 42.5402 123.951 52.2291 121.608C61.918 119.264 71.7583 118.089 81.7499 118.083C91.7416 118.077 101.582 119.252 111.271 121.608C120.96 123.963 130.497 127.481 139.883 132.162C144.274 134.433 147.795 137.727 150.447 142.045C153.099 146.363 154.423 151.092 154.417 156.233V163.5C154.417 168.496 152.639 172.774 149.085 176.335C145.53 179.895 141.252 181.673 136.25 181.667H27.2499C22.2541 181.667 17.9789 179.889 14.4243 176.335C10.8696 172.78 9.08931 168.502 9.08325 163.5V156.233ZM190.75 181.667H167.587C169.253 178.942 170.503 176.029 171.339 172.928C172.174 169.828 172.589 166.685 172.583 163.5V154.417C172.583 147.755 170.73 141.358 167.024 135.223C163.318 129.089 158.056 123.83 151.237 119.446C158.958 120.354 166.225 121.907 173.037 124.105C179.85 126.304 186.208 128.989 192.112 132.162C197.562 135.19 201.726 138.557 204.602 142.263C207.478 145.969 208.917 150.02 208.917 154.417V163.5C208.917 168.496 207.139 172.774 203.585 176.335C200.03 179.895 195.752 181.673 190.75 181.667ZM56.0895 98.327C48.9742 91.2117 45.4166 82.6582 45.4166 72.6666C45.4166 62.6749 48.9742 54.1214 56.0895 47.0062C63.2048 39.8909 71.7583 36.3332 81.7499 36.3332C91.7416 36.3332 100.295 39.8909 107.41 47.0062C114.526 54.1214 118.083 62.6749 118.083 72.6666C118.083 82.6582 114.526 91.2117 107.41 98.327C100.295 105.442 91.7416 109 81.7499 109C71.7583 109 63.2048 105.442 56.0895 98.327ZM161.91 98.327C154.795 105.442 146.242 109 136.25 109C134.585 109 132.465 108.812 129.892 108.437C127.318 108.061 125.199 107.643 123.533 107.183C127.621 102.339 130.764 96.9645 132.962 91.0603C135.16 85.1562 136.256 79.0249 136.25 72.6666C136.244 66.3082 135.148 60.177 132.962 54.2728C130.776 48.3687 127.633 42.9943 123.533 38.1499C125.653 37.393 127.772 36.8994 129.892 36.6693C132.011 36.4392 134.13 36.3272 136.25 36.3332C146.242 36.3332 154.795 39.8909 161.91 47.0062C169.026 54.1214 172.583 62.6749 172.583 72.6666C172.583 82.6582 169.026 91.2117 161.91 98.327ZM27.2499 163.5H136.25V156.233C136.25 154.568 135.835 153.054 135.005 151.692C134.176 150.329 133.077 149.269 131.708 148.512C123.533 144.425 115.283 141.361 106.956 139.32C98.6298 137.279 90.2277 136.256 81.7499 136.25C73.2721 136.244 64.8701 137.267 56.5437 139.32C48.2173 141.373 39.9666 144.437 31.7916 148.512C30.4291 149.269 29.33 150.329 28.4943 151.692C27.6587 153.054 27.2439 154.568 27.2499 156.233V163.5ZM94.5847 85.5013C98.1393 81.9407 99.9166 77.6624 99.9166 72.6666C99.9166 67.6707 98.1393 63.3955 94.5847 59.8409C91.0301 56.2863 86.7518 54.506 81.7499 54.4999C76.748 54.4939 72.4728 56.2742 68.9242 59.8409C65.3757 63.4076 63.5954 67.6829 63.5833 72.6666C63.5711 77.6503 65.3515 81.9285 68.9242 85.5013C72.497 89.0741 76.7722 90.8514 81.7499 90.8332C86.7276 90.8151 91.0058 89.0378 94.5847 85.5013Z" fill="white"/>
</svg>
