<?xml version="1.0" encoding="UTF-8" standalone="no"?><svg width="98" height="36" viewBox="0 0 98 36" fill="none" xmlns="http://www.w3.org/2000/svg">
<g clip-path="url(#clip0_511_11631)">
<path fill-rule="evenodd" clip-rule="evenodd" d="M94.3439 5.8878C95.9549 5.8878 97.2974 4.57565 97.2974 2.92706C97.2974 1.3121 95.9549 -0.0336914 94.3439 -0.0336914C92.7329 -0.0336914 91.3904 1.3121 91.3904 2.92706C91.4239 4.57565 92.7329 5.8878 94.3439 5.8878ZM91.8603 2.9607C91.8603 1.58126 93.0014 0.437337 94.3774 0.437337C95.7535 0.437337 96.8946 1.58126 96.8946 2.9607C96.8946 4.34014 95.7535 5.48407 94.3774 5.48407C92.9678 5.45042 91.8603 4.34014 91.8603 2.9607ZM93.2363 4.44108H93.8069V3.16257H94.4781L94.9816 4.40743H95.6192L95.0487 3.06164C95.2501 2.9607 95.5857 2.85977 95.5857 2.2878C95.5857 1.37939 94.9144 1.27846 94.3103 1.27846H93.2699V4.44108H93.2363ZM93.8069 1.85042H94.4446C94.7802 1.85042 94.9816 1.985 94.9816 2.25416C94.9816 2.52332 94.7802 2.6579 94.5117 2.6579H93.8404V1.85042H93.8069Z" fill="white"/>
<path d="M0.00012207 4.27294V4.2393V0.740234H3.49061V4.2393V4.27294V26.243V26.3103V29.7421H0.00012207V26.2767V26.243V4.27294Z" fill="white"/>
<path d="M35.4083 19.1775C35.509 24.4597 38.7645 28.6653 42.7249 28.598C46.6852 28.5308 49.8065 24.1906 49.7059 18.942C49.6052 13.6597 46.3496 9.45411 42.3893 9.5214C38.4289 9.58869 35.3076 13.9289 35.4083 19.1775ZM64.2048 12.8186C64.3055 13.0205 64.0705 12.5158 64.0705 12.5158L64.2048 12.8186ZM66.5877 34.6541C66.7555 34.385 66.9569 33.9812 67.2254 33.4429L66.5877 34.6541ZM66.7891 11.0018C66.8227 11.1027 66.8898 11.2373 66.9234 11.3719L68.098 14.2317L66.7891 11.0018ZM52.223 25.4691C54.371 27.4205 56.3176 28.4298 58.8013 28.4298C61.352 28.4635 63.6007 27.2186 63.6007 24.8298C63.6007 22.8448 61.8219 21.6672 58.667 20.3214C55.982 19.1775 54.0018 18.3364 52.9614 16.6878C53.0957 17.4279 53.1628 18.1681 53.1628 18.942C53.1628 25.4018 48.4641 30.6504 42.6913 30.6504C36.885 30.6504 32.2199 25.4018 32.2199 18.942C32.2199 15.0392 33.9315 11.5737 36.5494 9.45411H29.4342V26.2429V26.3102V29.7756H26.2793V26.4448C26.2793 26.3775 26.2793 26.3102 26.2793 26.2765V9.45411H23.4937V7.33449H26.3129C26.7156 3.06159 29.3335 0.63916 32.9918 0.63916C35.3747 0.63916 36.6501 0.874674 37.422 1.24477V4.13823C37.422 4.3401 37.422 4.47467 37.422 4.47467C37.3885 4.47467 37.3213 4.47467 37.3213 4.47467C36.1802 3.43168 35.0727 2.62421 32.4212 2.62421C30.3404 2.62421 28.9643 4.3401 29.4342 7.30084H41.2146C41.6845 7.23355 42.1879 7.19991 42.6913 7.19991C46.8866 7.19991 50.5114 9.95879 52.1559 13.9625C52.1559 13.727 52.1224 13.5251 52.1224 13.256C52.1224 9.08402 56.1498 7.33449 60.3116 7.33449C60.4794 7.33449 60.6136 7.33449 60.7814 7.33449C62.2582 7.30084 64.3391 7.80552 65.6144 8.14196L66.7891 11.0018L68.098 14.2317L71.6556 22.8784L72.0584 24.2579L72.5283 22.8784L76.9921 11.7756C77.8311 8.71393 81.0867 7.40178 84.7114 7.40178C86.5238 7.40178 87.8327 7.60365 89.4101 8.17561V11.5401C87.4635 10.127 86.0539 9.28589 83.8388 9.28589C81.8922 9.28589 79.5428 10.1607 79.5428 13.0205C79.5092 15.1737 80.8182 15.5775 84.6107 17.4616C87.732 18.8074 90.6184 20.3214 90.6519 23.7868C90.6519 29.5737 84.9463 30.5831 82.1607 30.5831C79.6771 30.5831 77.4284 29.9775 76.153 28.9345V25.1326L76.3544 25.3008C78.6031 27.4205 80.5832 28.4971 83.1675 28.4971C85.7183 28.5307 87.967 27.2859 87.967 24.8971C87.967 22.9121 86.1881 21.7345 83.0333 20.3887C80.0127 19.0765 78.0325 18.2018 77.227 16.0485C75.9852 19.0429 70.2796 33.0055 68.9371 35.9999H65.8494L66.5877 34.6205L67.2254 33.4093L67.259 33.3756C68.0309 31.8616 69.172 29.4728 70.1453 27.1513L64.2048 12.785C64.1712 12.684 64.0706 12.4822 63.8692 12.0111C63.3993 10.9681 62.9966 10.0261 61.7212 9.5214C61.0499 9.28589 60.3116 9.18495 59.4389 9.18495C57.4923 9.18495 54.9752 10.0597 54.9752 12.9195C54.9416 15.0728 56.3848 15.4765 60.1773 17.3607C63.2986 18.7064 66.185 20.2205 66.2185 23.6859C66.2185 29.4728 60.5129 30.4822 57.7273 30.4822C55.5121 30.4822 53.4984 30.0111 52.1559 29.1364V25.4691H52.223Z" fill="white"/>
<path d="M9.96811 7.5362L10.0017 10.0596V10.2278H10.0352C10.0688 10.1269 10.1359 10.0259 10.1695 9.95863C11.4449 8.57919 13.0558 7.2334 16.882 7.2334C20.5403 7.2334 22.9232 10.3624 23.0239 12.3138V26.2091V26.2764V29.7082H19.869V25.5698V13.7269C19.869 11.2708 17.721 9.52125 15.1032 9.52125C12.9216 9.52125 10.1024 11.4727 10.0352 13.4913V26.2427V26.3437V29.7755H6.88037V26.2427V10.4633V7.5362H7.45093H9.16261H9.96811Z" fill="white"/>
</g>
<defs>
<clipPath id="clip0_511_11631">
<rect width="97.2973" height="36" fill="white"/>
</clipPath>
</defs>
</svg>
