<?xml version="1.0" encoding="UTF-8" standalone="no"?><svg width="218" height="218" viewBox="0 0 218 218" fill="none" xmlns="http://www.w3.org/2000/svg">
<path d="M107.183 190.75C100.825 190.599 93.0679 189.878 83.9119 188.588C74.7559 187.298 65.9753 185.218 57.5702 182.348C49.1651 179.478 42.0105 175.732 36.1063 171.112C30.2021 166.491 27.2501 160.926 27.2501 154.417V131.708C27.2501 137.158 29.4089 141.966 33.7265 146.133C38.0441 150.299 43.4547 153.781 49.9584 156.579C56.4621 159.376 63.6167 161.647 71.4223 163.391C79.2279 165.135 86.5309 166.382 93.3313 167.133C94.6938 171.524 96.5498 175.726 98.8994 179.741C101.249 183.756 104.01 187.425 107.183 190.75ZM91.0605 144.198C84.248 143.441 77.0933 142.19 69.5966 140.446C62.0998 138.702 55.2176 136.395 48.9501 133.525C42.6826 130.655 37.4961 127.212 33.3904 123.197C29.2847 119.182 27.2379 114.45 27.2501 109V86.2917C27.2501 92.0444 29.6359 97.0403 34.4077 101.279C39.1795 105.518 45.0837 109.115 52.1202 112.07C59.1568 115.025 66.8019 117.296 75.0556 118.883C83.3094 120.469 90.8394 121.565 97.6459 122.171C95.8292 125.501 94.3517 129.023 93.2132 132.735C92.0748 136.447 91.3572 140.268 91.0605 144.198ZM109 99.9167C86.4431 99.9167 67.1774 96.359 51.2028 89.2437C35.2282 82.1285 27.244 73.575 27.2501 63.5833C27.2561 53.5917 35.2434 45.0382 51.2119 37.9229C67.1804 30.8076 86.4431 27.25 109 27.25C131.708 27.25 151.01 30.8076 166.906 37.9229C182.802 45.0382 190.75 53.5917 190.75 63.5833C190.75 73.575 182.802 82.1285 166.906 89.2437C151.01 96.359 131.708 99.9167 109 99.9167ZM196.2 208.917L171.675 184.392C168.344 186.36 164.863 187.913 161.229 189.051C157.596 190.19 153.811 190.756 149.875 190.75C138.521 190.75 128.871 186.778 120.926 178.833C112.982 170.888 109.006 161.235 109 149.875C108.994 138.515 112.969 128.865 120.926 120.926C128.883 112.988 138.533 109.012 149.875 109C161.217 108.988 170.87 112.963 178.833 120.926C186.796 128.889 190.768 138.539 190.75 149.875C190.75 153.811 190.184 157.596 189.051 161.229C187.919 164.862 186.366 168.344 184.392 171.675L208.917 196.2L196.2 208.917ZM165.998 165.998C170.388 161.608 172.583 156.233 172.583 149.875C172.583 143.517 170.388 138.142 165.998 133.752C161.608 129.362 156.233 127.167 149.875 127.167C143.517 127.167 138.142 129.362 133.752 133.752C129.362 138.142 127.167 143.517 127.167 149.875C127.167 156.233 129.362 161.608 133.752 165.998C138.142 170.388 143.517 172.583 149.875 172.583C156.233 172.583 161.608 170.388 165.998 165.998Z" fill="white"/>
</svg>
