<?xml version="1.0" encoding="UTF-8" standalone="no"?><svg width="230" height="230" viewBox="0 0 230 230" fill="none" xmlns="http://www.w3.org/2000/svg">
<circle cx="114.813" cy="114.812" r="61.0143" fill="#FF0000"/>
<foreignObject x="-26.2426" y="-26.2426" width="282.109" height="282.109"><div xmlns="http://www.w3.org/1999/xhtml" style="backdrop-filter:blur(13.12px);clip-path:url(#bgblur_0_396_3950_clip_path);height:100%;width:100%"></div></foreignObject><g data-figma-bg-blur-radius="26.2426">
<mask id="path-2-outside-1_396_3950" maskUnits="userSpaceOnUse" x="-0.6875" y="-0.687988" width="231" height="231" fill="black">
<rect fill="white" x="-0.6875" y="-0.687988" width="231" height="231"/>
<path d="M228.312 114.812C228.312 137.26 221.655 159.204 209.184 177.869C196.712 196.534 178.986 211.081 158.247 219.672C137.507 228.262 114.686 230.51 92.6695 226.131C70.6527 221.751 50.429 210.941 34.5558 195.068C18.6826 179.195 7.87278 158.971 3.49336 136.954C-0.886046 114.938 1.36163 92.1166 9.95215 71.3773C18.5427 50.6379 33.0902 32.9117 51.7551 20.4402C70.4201 7.96865 92.3641 1.31201 114.812 1.31201V114.812H228.312Z"/>
</mask>
<path d="M228.312 114.812C228.312 137.26 221.655 159.204 209.184 177.869C196.712 196.534 178.986 211.081 158.247 219.672C137.507 228.262 114.686 230.51 92.6695 226.131C70.6527 221.751 50.429 210.941 34.5558 195.068C18.6826 179.195 7.87278 158.971 3.49336 136.954C-0.886046 114.938 1.36163 92.1166 9.95215 71.3773C18.5427 50.6379 33.0902 32.9117 51.7551 20.4402C70.4201 7.96865 92.3641 1.31201 114.812 1.31201V114.812H228.312Z" fill="url(#paint0_linear_396_3950)"/>
<path d="M228.312 114.812C228.312 137.26 221.655 159.204 209.184 177.869C196.712 196.534 178.986 211.081 158.247 219.672C137.507 228.262 114.686 230.51 92.6695 226.131C70.6527 221.751 50.429 210.941 34.5558 195.068C18.6826 179.195 7.87278 158.971 3.49336 136.954C-0.886046 114.938 1.36163 92.1166 9.95215 71.3773C18.5427 50.6379 33.0902 32.9117 51.7551 20.4402C70.4201 7.96865 92.3641 1.31201 114.812 1.31201V114.812H228.312Z" stroke="url(#paint1_radial_396_3950)" stroke-opacity="0.6" stroke-width="2.62426" mask="url(#path-2-outside-1_396_3950)"/>
</g>
<foreignObject x="-26.2426" y="-26.2426" width="282.109" height="282.109"><div xmlns="http://www.w3.org/1999/xhtml" style="backdrop-filter:blur(13.12px);clip-path:url(#bgblur_1_396_3950_clip_path);height:100%;width:100%"></div></foreignObject><path data-figma-bg-blur-radius="26.2426" d="M144.189 5.1556C143.444 4.95603 142.697 4.76405 141.949 4.57971L137.304 23.4416C137.925 23.5944 138.544 23.7535 139.161 23.9189L144.189 5.1556Z" fill="#535353"/>
<foreignObject x="-26.2426" y="-26.2426" width="282.109" height="282.109"><div xmlns="http://www.w3.org/1999/xhtml" style="backdrop-filter:blur(13.12px);clip-path:url(#bgblur_2_396_3950_clip_path);height:100%;width:100%"></div></foreignObject><path data-figma-bg-blur-radius="26.2426" d="M171.563 16.4943C170.895 16.1087 170.224 15.73 169.548 15.3581L160.18 32.3753C160.74 32.6835 161.297 32.9974 161.85 33.317L171.563 16.4943Z" fill="#535353"/>
<foreignObject x="-26.2426" y="-26.2426" width="282.109" height="282.109"><div xmlns="http://www.w3.org/1999/xhtml" style="backdrop-filter:blur(13.12px);clip-path:url(#bgblur_3_396_3950_clip_path);height:100%;width:100%"></div></foreignObject><path data-figma-bg-blur-radius="26.2426" d="M195.07 34.5315C194.524 33.9862 193.974 33.4466 193.417 32.9125L179.964 46.9253C180.425 47.368 180.882 47.8153 181.334 48.2672L195.07 34.5315Z" fill="#535353"/>
<foreignObject x="-26.2426" y="-26.2426" width="282.109" height="282.109"><div xmlns="http://www.w3.org/1999/xhtml" style="backdrop-filter:blur(13.12px);clip-path:url(#bgblur_4_396_3950_clip_path);height:100%;width:100%"></div></foreignObject><path data-figma-bg-blur-radius="26.2426" d="M213.107 58.038C212.721 57.3703 212.329 56.7064 211.93 56.0466L195.309 66.1C195.639 66.6469 195.964 67.1972 196.284 67.7507L213.107 58.038Z" fill="#535353"/>
<foreignObject x="-26.2426" y="-26.2426" width="282.109" height="282.109"><div xmlns="http://www.w3.org/1999/xhtml" style="backdrop-filter:blur(13.12px);clip-path:url(#bgblur_5_396_3950_clip_path);height:100%;width:100%"></div></foreignObject><path data-figma-bg-blur-radius="26.2426" d="M224.445 85.412C224.246 84.6672 224.039 83.9244 223.824 83.1838L205.167 88.5928C205.345 89.2066 205.517 89.8223 205.682 90.4396L224.445 85.412Z" fill="#535353"/>
<path d="M92.1123 144.179V85.4426C92.1123 83.8347 92.6798 82.4859 93.8148 81.3963C94.9498 80.3067 96.274 79.7638 97.7873 79.7676C98.2602 79.7676 98.7577 79.8376 99.2798 79.9776C99.8019 80.1176 100.298 80.3313 100.767 80.6188L147.018 109.987C147.869 110.554 148.509 111.264 148.936 112.115C149.364 112.966 149.575 113.865 149.572 114.811C149.568 115.757 149.356 116.655 148.936 117.506C148.516 118.358 147.877 119.067 147.018 119.634L100.767 149.003C100.294 149.286 99.7981 149.5 99.2798 149.644C98.7615 149.788 98.264 149.858 97.7873 149.854C96.274 149.854 94.9498 149.309 93.8148 148.219C92.6798 147.13 92.1123 145.783 92.1123 144.179Z" fill="white"/>
<defs>
<clipPath id="bgblur_0_396_3950_clip_path" transform="translate(26.2426 26.2426)"><path d="M228.312 114.812C228.312 137.26 221.655 159.204 209.184 177.869C196.712 196.534 178.986 211.081 158.247 219.672C137.507 228.262 114.686 230.51 92.6695 226.131C70.6527 221.751 50.429 210.941 34.5558 195.068C18.6826 179.195 7.87278 158.971 3.49336 136.954C-0.886046 114.938 1.36163 92.1166 9.95215 71.3773C18.5427 50.6379 33.0902 32.9117 51.7551 20.4402C70.4201 7.96865 92.3641 1.31201 114.812 1.31201V114.812H228.312Z"/>
</clipPath><clipPath id="bgblur_1_396_3950_clip_path" transform="translate(26.2426 26.2426)"><path d="M144.189 5.1556C143.444 4.95603 142.697 4.76405 141.949 4.57971L137.304 23.4416C137.925 23.5944 138.544 23.7535 139.161 23.9189L144.189 5.1556Z"/>
</clipPath><clipPath id="bgblur_2_396_3950_clip_path" transform="translate(26.2426 26.2426)"><path d="M171.563 16.4943C170.895 16.1087 170.224 15.73 169.548 15.3581L160.18 32.3753C160.74 32.6835 161.297 32.9974 161.85 33.317L171.563 16.4943Z"/>
</clipPath><clipPath id="bgblur_3_396_3950_clip_path" transform="translate(26.2426 26.2426)"><path d="M195.07 34.5315C194.524 33.9862 193.974 33.4466 193.417 32.9125L179.964 46.9253C180.425 47.368 180.882 47.8153 181.334 48.2672L195.07 34.5315Z"/>
</clipPath><clipPath id="bgblur_4_396_3950_clip_path" transform="translate(26.2426 26.2426)"><path d="M213.107 58.038C212.721 57.3703 212.329 56.7064 211.93 56.0466L195.309 66.1C195.639 66.6469 195.964 67.1972 196.284 67.7507L213.107 58.038Z"/>
</clipPath><clipPath id="bgblur_5_396_3950_clip_path" transform="translate(26.2426 26.2426)"><path d="M224.445 85.412C224.246 84.6672 224.039 83.9244 223.824 83.1838L205.167 88.5928C205.345 89.2066 205.517 89.8223 205.682 90.4396L224.445 85.412Z"/>
</clipPath><linearGradient id="paint0_linear_396_3950" x1="51.3555" y1="32.7824" x2="194.196" y2="211.91" gradientUnits="userSpaceOnUse">
<stop stop-color="white" stop-opacity="0.45"/>
<stop offset="1" stop-color="white" stop-opacity="0"/>
<stop offset="1" stop-color="white" stop-opacity="0"/>
</linearGradient>
<radialGradient id="paint1_radial_396_3950" cx="0" cy="0" r="1" gradientUnits="userSpaceOnUse" gradientTransform="translate(114.812 114.812) rotate(-43.0379) scale(223.755)">
<stop stop-color="white"/>
<stop offset="1" stop-color="white" stop-opacity="0"/>
</radialGradient>
</defs>
</svg>
