<?xml version="1.0" encoding="UTF-8" standalone="no"?><svg width="72" height="72" viewBox="0 0 72 72" fill="none" xmlns="http://www.w3.org/2000/svg">
<path d="M21.96 69.1668C17.58 67.2756 13.77 64.71 10.53 61.47C7.29 58.23 4.7256 54.42 2.8368 50.04C0.948004 45.66 0.00240456 40.98 4.55696e-06 36C-0.00239544 31.02 0.943204 26.34 2.8368 21.96C4.7304 17.58 7.2948 13.77 10.53 10.53C13.7652 7.29 17.5752 4.7256 21.96 2.8368C26.3448 0.948004 31.0248 0.00240456 36 4.55696e-06C40.9752 -0.00239544 45.6552 0.943204 50.04 2.8368C54.4248 4.7304 58.2348 7.2948 61.47 10.53C64.7052 13.7652 67.2708 17.5752 69.1668 21.96C71.0628 26.3448 72.0072 31.0248 72 36C71.9928 40.9752 71.0472 45.6552 69.1632 50.04C67.2792 54.4248 64.7148 58.2348 61.47 61.47C58.2252 64.7052 54.4152 67.2708 50.04 69.1668C45.6648 71.0628 40.9848 72.0072 36 72C31.0152 71.9928 26.3352 71.0508 21.96 69.1668ZM36 64.8C39.24 64.8 42.36 64.2756 45.36 63.2268C48.36 62.178 51.12 60.6624 53.64 58.68L13.32 18.36C11.34 20.88 9.8244 23.64 8.7732 26.64C7.722 29.64 7.1976 32.76 7.2 36C7.2 44.04 9.99 50.85 15.57 56.43C21.15 62.01 27.96 64.8 36 64.8ZM58.68 53.64C60.66 51.12 62.1756 48.36 63.2268 45.36C64.278 42.36 64.8024 39.24 64.8 36C64.8 27.96 62.01 21.15 56.43 15.57C50.85 9.99 44.04 7.2 36 7.2C32.76 7.2 29.64 7.7244 26.64 8.7732C23.64 9.822 20.88 11.3376 18.36 13.32L58.68 53.64Z" fill="white"/>
</svg>
