<?xml version="1.0" encoding="UTF-8" standalone="no"?><svg width="221" height="36" viewBox="0 0 221 36" fill="none" xmlns="http://www.w3.org/2000/svg">
<g clip-path="url(#clip0_511_10159)">
<path fill-rule="evenodd" clip-rule="evenodd" d="M63.6679 20.3442H65.6785C64.8408 24.0279 61.7411 26.4558 57.5525 26.4558C52.6098 26.4558 48.6725 22.7721 48.6725 18C48.6725 13.1442 52.6098 9.5442 57.5525 9.5442C61.7411 9.5442 64.8408 11.9721 65.6785 15.6558H63.6679C62.9978 12.9768 60.7359 11.3023 57.6363 11.3023C53.7827 11.3023 50.7668 14.1488 50.7668 18C50.7668 21.8512 53.7827 24.6977 57.6363 24.6977C60.6521 24.6977 62.914 22.9395 63.6679 20.3442ZM86.8732 18C86.8732 22.6884 83.1034 26.4558 78.4121 26.4558C73.7208 26.4558 69.951 22.6884 69.951 18C69.951 13.3116 73.7208 9.5442 78.4121 9.5442C83.1034 9.5442 86.8732 13.3116 86.8732 18ZM84.9464 18C84.9464 14.3163 82.0981 11.3023 78.4121 11.3023C74.7261 11.3023 71.8778 14.3163 71.8778 18C71.8778 21.6837 74.7261 24.6977 78.4121 24.6977C82.0981 24.6977 84.9464 21.6837 84.9464 18ZM106.979 9.5442V26.4558H105.387L95.083 13.0605V26.4558H93.24V9.5442H94.7479L105.136 23.107V9.5442H106.979ZM116.361 11.3861V17.5814H124.99V19.4233H116.361V26.5395H114.351V9.5442H125.995V11.3861H116.361ZM144.091 24.614V26.4558H132.446V9.5442H134.457V24.6977H144.091V24.614ZM162.102 19.0884C162.102 23.5256 159.17 26.5395 154.646 26.5395C150.206 26.5395 147.19 23.5256 147.19 19.0884V9.5442H149.201V19.0884C149.201 22.3535 151.379 24.6977 154.646 24.6977C157.913 24.6977 160.007 22.3535 160.007 19.0884V9.5442H162.018V19.0884H162.102ZM171.484 11.3861V17.1628H180.197V19.0047H171.484V24.6977H181.202V26.5395H169.558V9.5442H181.202V11.3861H171.484ZM200.219 9.5442V26.4558H198.627L188.323 13.0605V26.4558H186.48V9.5442H187.988L198.376 23.107V9.5442H200.219ZM220.408 11.3861H214.46V26.5395H212.617V11.3861H206.669V9.5442H220.408V11.3861ZM25.8023 19.0047C26.7238 18.9209 27.6453 18.9209 28.5668 18.8372V18.1675C27.6453 18.0837 26.7238 18.0837 25.8023 18L23.0378 17.9163C21.4461 17.8326 19.7706 17.8326 18.1789 17.8326C18.1789 16.2419 18.1789 14.5675 18.0951 12.9768L18.0114 10.214C17.9276 9.29303 17.9276 8.3721 17.8438 7.45117H17.0899C17.0061 8.3721 17.0061 9.29303 16.9223 10.214L16.8385 12.9768C16.8385 13.7302 16.8385 14.4837 16.8385 15.2372C16.5035 14.5675 16.2521 13.814 15.917 13.1442L14.7442 10.6326C14.3253 9.79536 13.9902 8.95815 13.5714 8.12094L12.9012 8.3721C13.2363 9.29303 13.4876 10.1302 13.8227 10.9675L14.828 13.5628C15.0793 14.3163 15.4144 14.9861 15.6657 15.7395C15.0793 15.2372 14.5767 14.6512 13.9902 14.1488L11.9797 12.2233C11.3095 11.6372 10.6393 10.9675 9.88534 10.3814L9.29893 10.9675C9.88534 11.6372 10.5555 12.307 11.1419 13.0605L13.0687 15.0698C13.5714 15.6558 14.1578 16.1581 14.6604 16.7442C13.9902 16.493 13.2363 16.1581 12.4823 15.907L9.88534 14.9023C9.04761 14.5675 8.1261 14.2326 7.28836 13.9814L6.95327 14.7349C7.791 15.1535 8.62874 15.4884 9.46648 15.907L11.9797 17.0791C12.6499 17.414 13.4038 17.6651 14.074 18C13.3201 18 12.5661 18 11.8121 18L9.04761 18.0837C8.1261 18.1675 7.20459 18.1674 6.28308 18.2512V19.0047C7.20459 19.0884 8.1261 19.0884 9.04761 19.1721L11.8121 19.2558C13.4876 19.3395 15.0793 19.3395 16.671 19.3395C16.671 20.9302 16.671 22.6047 16.7548 24.1954L16.8385 26.9581C16.9223 27.8791 16.9223 28.8 17.0061 29.7209H17.6763C17.7601 28.8 17.7601 27.8791 17.8438 26.9581L17.9276 24.1954C17.9276 23.4419 17.9276 22.6047 18.0114 21.8512C18.3465 22.6047 18.5978 23.2744 18.9329 24.0279L20.1057 26.5395C20.5246 27.3768 20.8597 28.214 21.2785 29.0512L21.9487 28.8C21.6974 27.8791 21.3623 27.0419 21.0272 26.2047L20.1895 23.4419C19.9382 22.6884 19.6031 22.0186 19.3518 21.2651C19.9382 21.8512 20.4408 22.3535 21.0272 22.8558L23.0378 24.7814C23.708 25.3675 24.3782 26.0372 25.1321 26.6233L25.6348 26.1209C25.0484 25.4512 24.3782 24.7814 23.7917 24.0279L21.865 22.0186C21.3623 21.4326 20.7759 20.8465 20.2733 20.3442C21.0272 20.5954 21.6974 20.9302 22.4514 21.1814L25.0483 22.1861C25.8861 22.5209 26.8076 22.8558 27.6453 23.107L27.8967 22.4372C27.0589 22.0186 26.2212 21.6 25.3834 21.2651L22.8702 20.093C22.1163 19.7581 21.4461 19.4233 20.6921 19.1721C21.4461 19.1721 22.2838 19.1721 23.0378 19.0884L25.8023 19.0047Z" fill="white"/>
<path fill-rule="evenodd" clip-rule="evenodd" d="M18.0113 36C8.04226 36 0 27.9628 0 18C0 8.03721 8.04226 0 18.0113 0C27.9804 0 36.0226 8.03721 36.0226 18C36.0226 27.9628 27.9804 36 18.0113 36ZM18.0113 1.67442C9.04754 1.67442 1.67547 9.04186 1.67547 18C1.67547 26.9581 9.04754 34.3256 18.0113 34.3256C26.9751 34.3256 34.3471 26.9581 34.3471 18C34.3471 9.04186 26.9751 1.67442 18.0113 1.67442Z" fill="white"/>
</g>
<defs>
<clipPath id="clip0_511_10159">
<rect width="220.408" height="36" fill="white"/>
</clipPath>
</defs>
</svg>
