<?xml version="1.0" encoding="UTF-8" standalone="no"?><svg width="218" height="218" viewBox="0 0 218 218" fill="none" xmlns="http://www.w3.org/2000/svg">
<path d="M63.5835 145.333H122.625C128.983 145.333 134.358 143.102 138.748 138.639C143.138 134.176 145.333 128.759 145.333 122.389C145.333 116.019 143.063 110.644 138.521 106.266C133.979 101.888 128.529 99.6928 122.171 99.6807C120.96 91.9598 117.402 85.5258 111.498 80.3786C105.594 75.2314 98.7057 72.6608 90.8335 72.6668C84.6265 72.6668 78.9495 74.3321 73.8022 77.6627C68.655 80.9932 64.7946 85.4592 62.221 91.0606C54.9543 91.3633 48.8231 94.1277 43.8272 99.3537C38.8314 104.58 36.3335 110.823 36.3335 118.083C36.3335 125.653 38.9828 132.087 44.2814 137.386C49.58 142.684 56.014 145.333 63.5835 145.333ZM63.5835 208.917V190.75H77.2085V172.583H27.2502C22.2543 172.583 17.9791 170.806 14.4245 167.252C10.8699 163.697 9.08955 159.419 9.0835 154.417V63.5835C9.0835 58.5877 10.8638 54.3124 14.4245 50.7578C17.9852 47.2032 22.2604 45.4229 27.2502 45.4168H154.417C159.413 45.4168 163.691 47.1972 167.252 50.7578C170.812 54.3185 172.59 58.5937 172.583 63.5835V154.417C172.583 159.413 170.806 163.691 167.252 167.252C163.697 170.812 159.419 172.59 154.417 172.583H104.458V190.75H118.083V208.917H63.5835ZM190.75 127.167V27.2502H45.4168V9.0835H190.75C195.746 9.0835 200.024 10.8638 203.585 14.4245C207.146 17.9852 208.923 22.2604 208.917 27.2502V127.167H190.75Z" fill="white"/>
</svg>
