<?xml version="1.0" encoding="UTF-8" standalone="no"?><svg width="218" height="218" viewBox="0 0 218 218" fill="none" xmlns="http://www.w3.org/2000/svg">
<path d="M94.0127 154.417L145.333 103.096L132.163 89.9252L93.7856 128.302L74.7106 109.227L61.7668 122.171L94.0127 154.417ZM59.0418 181.667C45.2654 181.667 33.4965 176.898 23.7349 167.361C13.9734 157.823 9.08955 146.166 9.0835 132.39C9.0835 120.581 12.6411 110.06 19.7564 100.825C26.8717 91.5904 36.1821 85.6863 47.6877 83.1127C51.4724 69.1849 59.0418 57.9064 70.396 49.2772C81.7502 40.6481 94.6182 36.3335 109 36.3335C126.713 36.3335 141.74 42.5041 154.081 54.8453C166.422 67.1866 172.59 82.2104 172.583 99.9168C183.029 101.128 191.698 105.633 198.589 113.433C205.48 121.232 208.923 130.352 208.917 140.792C208.917 152.146 204.944 161.799 196.999 169.749C189.055 177.7 179.402 181.673 168.042 181.667H59.0418Z" fill="white"/>
</svg>
