<?xml version="1.0" encoding="UTF-8" standalone="no"?><svg width="171" height="28" viewBox="0 0 171 28" fill="none" xmlns="http://www.w3.org/2000/svg">
<path d="M7.41634 5.78765L7.45946 7.74588V7.87642H7.50258C7.54569 7.78939 7.58881 7.74588 7.63193 7.65884C8.62365 6.61446 9.83096 5.57007 12.763 5.57007C15.5657 5.57007 17.3767 7.96346 17.4629 9.48652V20.1915V22.8895H15.0483V19.7128V10.5744C15.0483 8.70323 13.4098 7.31071 11.3832 7.31071C9.70161 7.31071 7.58881 8.83378 7.50258 10.3568V20.148V20.235V22.846H5.08795V20.148V8.05049V5.78765H7.41634Z" fill="white"/>
<path d="M0 3.26374V0.565735H2.63021V20.1915V20.235V22.8895H0V20.1915V3.26374Z" fill="white"/>
<path d="M64.4187 13.4465C61.5298 12.0105 60.538 11.7059 60.538 10.0087C60.538 7.78941 62.349 7.13667 63.815 7.13667C65.4966 7.13667 66.5746 7.78941 68.0837 8.87732V6.30987C66.8764 5.8747 65.8416 5.70064 64.4618 5.70064C61.7022 5.70064 59.2014 6.70151 58.5546 9.05138L55.1483 17.5805L54.8033 18.6685L54.5015 17.5805L51.785 10.9226L49.8878 6.22283C48.8961 5.96174 47.3007 5.61361 46.1796 5.61361C46.0503 5.61361 45.9641 5.61361 45.8347 5.61361C42.6871 5.65712 39.6257 7.00612 39.6257 10.1828C39.6257 10.3569 39.6257 10.5309 39.6257 10.705C38.3321 7.65887 35.5726 5.52657 32.3818 5.52657C31.9937 5.52657 31.6057 5.57009 31.2607 5.61361H22.249C21.8609 3.30725 22.9389 2.00177 24.5343 2.00177C26.5608 2.00177 27.3801 2.61099 28.2856 3.39428C28.2856 3.39428 28.3287 3.39428 28.3718 3.39428C28.3718 3.39428 28.3718 3.30725 28.3718 3.13319V0.957378C27.8113 0.696281 26.8195 0.522217 25.0086 0.522217C22.2059 0.522217 20.2225 2.39341 19.9206 5.65712H17.7647V7.26722H19.8775V20.1915C19.8775 20.235 19.8775 20.2786 19.8775 20.3221V22.8895H22.2921V20.235V20.1915V7.26722H27.6819C25.6985 8.92083 24.3618 11.5753 24.3618 14.5779C24.3618 19.5388 27.9406 23.5858 32.3387 23.5858C36.7367 23.5858 40.3156 19.5388 40.3156 14.5779C40.3156 13.9687 40.2725 13.403 40.1862 12.8373C40.9623 14.1428 42.5146 14.752 44.5412 15.6223C46.9558 16.6667 48.2924 17.537 48.2924 19.1036C48.2924 20.9313 46.5677 21.8886 44.6274 21.8886C42.7302 21.8886 41.2642 21.1054 39.6257 19.6258V22.4979C40.6174 23.1506 42.1697 23.5423 43.8513 23.5423C45.9641 23.5423 50.319 22.759 50.319 18.3203C50.319 15.6658 48.12 14.4909 45.7054 13.4465C42.8164 12.0105 41.6954 11.7059 41.7385 10.0087C41.7385 7.78941 43.6357 7.13667 45.1448 7.13667C45.7916 7.13667 46.3521 7.2237 46.8695 7.39777C47.8613 7.78941 48.1631 8.52919 48.508 9.31248C48.6805 9.66061 48.7236 9.83467 48.7667 9.87819L53.3804 20.8878C52.6043 22.6284 51.7419 24.4996 51.1814 25.6746V25.7181L50.1465 27.7198H52.518C53.5529 25.4135 57.9078 14.7085 58.8564 12.4021C59.4601 14.0557 60.9692 14.752 63.2976 15.7529C65.7122 16.7973 67.0489 17.6676 67.0489 19.1906C67.0489 21.0183 65.3242 21.9757 63.3838 21.9757C61.4004 21.9757 59.8913 21.1489 58.1665 19.5388L57.9941 19.4082V22.3673C58.9427 23.1941 60.7105 23.6293 62.5646 23.6293C64.6774 23.6293 69.0323 22.846 69.0323 18.4074C69.0323 15.6223 66.7902 14.4909 64.4187 13.4465ZM32.4249 21.9757C29.4066 22.0192 26.9058 18.799 26.8195 14.752C26.7333 10.705 29.1479 7.35425 32.1662 7.31074C35.1845 7.26722 37.6854 10.4874 37.7716 14.5344C37.8147 18.6249 35.4432 21.9322 32.4249 21.9757Z" fill="white"/>
<line x1="82.5" y1="2.35986" x2="82.5" y2="25.3599" stroke="white"/>
<path d="M132.494 17.0699C132.494 18.9771 131.283 20.3794 129.305 20.3794C128.221 20.3794 127.264 19.8745 126.818 19.0338V15.1081C127.201 14.323 128.221 13.7625 129.305 13.7625C131.281 13.7625 132.494 15.1649 132.494 17.071M136.193 17.1277C136.193 13.7625 134.024 10.9579 130.135 10.9579C128.731 10.9579 127.392 11.5751 126.819 12.1923V5.90906H123.12V22.9594H126.819V22.0064C127.393 22.6236 128.732 23.2408 130.135 23.2408C134.024 23.2408 136.193 20.4929 136.193 17.1277ZM153.157 22.9605H156.856V15.276C156.856 12.6404 155.198 10.9579 152.455 10.9579C150.542 10.9579 149.266 11.6307 148.373 12.4725C147.608 11.5751 146.397 10.9579 144.802 10.9579C143.335 10.9579 142.059 11.4628 141.422 12.1923V11.2393H137.851V22.9617H141.55V15.3884C141.805 14.3786 142.698 13.8737 143.654 13.8737C144.93 13.8737 145.504 14.7144 145.504 15.9489V22.9594H149.203V15.3884C149.394 14.3786 150.286 13.8737 151.244 13.8737C152.52 13.8737 153.157 14.7144 153.157 15.9489V22.9594V22.9605ZM166.933 15.1649H170.569C170.186 12.6972 168.081 10.959 164.701 10.959C160.938 10.959 158.324 13.4267 158.26 17.0165C158.26 20.6063 160.938 23.1296 164.701 23.1296C168.081 23.1296 170.186 21.447 170.569 18.9237H166.933C166.678 19.8212 165.913 20.3817 164.701 20.3817C162.979 20.3817 161.958 19.0361 161.958 17.0721C161.958 15.1081 162.979 13.7069 164.701 13.7069C165.913 13.7069 166.742 14.2674 166.933 15.1649Z" fill="white"/>
<path d="M101.006 3.92553V7.35629C101.006 7.9184 101.582 8.81848 102.157 9.09954L109.641 12.9809L114.055 10.6744L101.006 3.92553ZM109.641 16.076L102.157 19.9574C101.582 20.2384 101.006 21.1385 101.006 21.7017V25.1325L113.99 18.3825L109.641 16.076ZM100.495 28C99.2797 28 98 27.1568 98 25.525V21.7006C98 20.1815 99.0869 18.4383 100.623 17.7066L106.699 14.5569L100.623 11.4072C99.1516 10.5629 98 8.87538 98 7.35629V3.47492C98 1.84318 99.2797 1 100.558 1C101.069 1 101.645 1.11265 102.157 1.39371L115.846 8.53742C116.805 9.04378 117.317 9.83119 117.317 10.6187C117.317 11.4618 116.741 12.2504 115.846 12.6999L112.584 14.3874L115.846 16.0749C116.805 16.5812 117.38 17.3687 117.38 18.1561C117.38 19.0004 116.805 19.7878 115.846 20.2372L102.157 27.6063C101.582 27.8874 101.07 28 100.495 28Z" fill="white"/>
</svg>
