<?xml version="1.0" encoding="UTF-8" standalone="no"?><svg width="218" height="218" viewBox="0 0 218 218" fill="none" xmlns="http://www.w3.org/2000/svg">
<path d="M45.4167 190.75C40.4208 190.75 36.1456 188.973 32.591 185.418C29.0364 181.863 27.2561 177.585 27.25 172.583V45.4167C27.25 40.4208 29.0303 36.1456 32.591 32.591C36.1517 29.0364 40.4269 27.2561 45.4167 27.25H172.583C177.579 27.25 181.857 29.0303 185.418 32.591C188.979 36.1517 190.756 40.4269 190.75 45.4167V172.583C190.75 177.579 188.973 181.857 185.418 185.418C181.863 188.979 177.585 190.756 172.583 190.75H45.4167ZM45.4167 75.6187H172.583V45.4167H45.4167V75.6187ZM45.4167 124.215H172.583V93.7854H45.4167V124.215ZM45.4167 172.583H172.583V142.381H45.4167V172.583ZM54.5 69.4875V51.3208H72.6667V69.4875H54.5ZM54.5 118.083V99.9167H72.6667V118.083H54.5ZM54.5 166.679V148.512H72.6667V166.679H54.5Z" fill="white"/>
</svg>
