<?xml version="1.0" encoding="UTF-8" standalone="no"?><svg width="78" height="78" viewBox="0 0 78 78" fill="none" xmlns="http://www.w3.org/2000/svg">
<path d="M13.7583 72.9083C10.3639 69.5139 8.66667 65.4333 8.66667 60.6667V25.2417C6.13889 24.3028 4.06322 22.7327 2.43967 20.5313C0.816111 18.33 0.00288889 15.8196 0 13C0 9.38889 1.26389 6.31944 3.79167 3.79167C6.31944 1.26389 9.38889 0 13 0C16.6111 0 19.6806 1.26389 22.2083 3.79167C24.7361 6.31944 26 9.38889 26 13C26 15.8167 25.1882 18.3271 23.5647 20.5313C21.9411 22.7356 19.864 24.3057 17.3333 25.2417V60.6667C17.3333 63.05 18.1827 65.091 19.8813 66.7897C21.58 68.4883 23.6196 69.3362 26 69.3333C28.3804 69.3304 30.4214 68.4826 32.123 66.7897C33.8246 65.0968 34.6724 63.0558 34.6667 60.6667V17.3333C34.6667 12.5667 36.3639 8.48611 39.7583 5.09167C43.1528 1.69722 47.2333 0 52 0C56.7667 0 60.8472 1.69722 64.2417 5.09167C67.6361 8.48611 69.3333 12.5667 69.3333 17.3333V52.7583C71.8611 53.6972 73.9382 55.2688 75.5647 57.473C77.1911 59.6772 78.0029 62.1862 78 65C78 68.6111 76.7361 71.6806 74.2083 74.2083C71.6806 76.7361 68.6111 78 65 78C61.3889 78 58.3194 76.7361 55.7917 74.2083C53.2639 71.6806 52 68.6111 52 65C52 62.1833 52.8132 59.6556 54.4397 57.4167C56.0661 55.1778 58.1418 53.625 60.6667 52.7583V17.3333C60.6667 14.95 59.8188 12.9104 58.123 11.2147C56.4272 9.51889 54.3862 8.66956 52 8.66667C49.6138 8.66378 47.5742 9.51311 45.8813 11.2147C44.1884 12.9162 43.3391 14.9558 43.3333 17.3333V60.6667C43.3333 65.4333 41.6361 69.5139 38.2417 72.9083C34.8472 76.3028 30.7667 78 26 78C21.2333 78 17.1528 76.3028 13.7583 72.9083ZM13 17.3333C14.2278 17.3333 15.2577 16.9173 16.0897 16.0853C16.9217 15.2533 17.3362 14.2249 17.3333 13C17.3304 11.7751 16.9144 10.7467 16.0853 9.91467C15.2562 9.08267 14.2278 8.66667 13 8.66667C11.7722 8.66667 10.7438 9.08267 9.91467 9.91467C9.08556 10.7467 8.66955 11.7751 8.66667 13C8.66378 14.2249 9.07978 15.2548 9.91467 16.0897C10.7496 16.9246 11.778 17.3391 13 17.3333ZM65 69.3333C66.2278 69.3333 67.2577 68.9173 68.0897 68.0853C68.9217 67.2533 69.3362 66.2249 69.3333 65C69.3304 63.7751 68.9144 62.7467 68.0853 61.9147C67.2562 61.0827 66.2278 60.6667 65 60.6667C63.7722 60.6667 62.7438 61.0827 61.9147 61.9147C61.0856 62.7467 60.6696 63.7751 60.6667 65C60.6638 66.2249 61.0798 67.2548 61.9147 68.0897C62.7496 68.9246 63.778 69.3391 65 69.3333Z" fill="white"/>
</svg>
