<?xml version="1.0" encoding="UTF-8" standalone="no"?><svg width="63" height="64" viewBox="0 0 63 64" fill="none" xmlns="http://www.w3.org/2000/svg">
<path fill-rule="evenodd" clip-rule="evenodd" d="M35 11.6666C35 5.22328 29.7766 0 23.3333 0L22.6931 0.0171876C16.5475 0.349531 11.6666 5.43813 11.6666 11.6666C11.6666 18.11 16.89 23.3333 23.3333 23.3333L23.9734 23.3159C30.1191 22.9838 35 17.8952 35 11.6666ZM26.6666 50C26.6666 53.6428 27.6405 57.0583 29.3422 60H0V48C0 38.3073 7.44812 30.4041 16.7786 30.015L17.4998 30H29.1666C32.2031 30 35.0591 30.7955 37.5481 32.1948C31.0873 35.5103 26.6666 42.2389 26.6666 50ZM36.8702 63.4836L46.6666 57.5L56.463 63.4836L53.7995 52.3175L62.5175 44.8497L51.075 43.9323L46.6666 33.3333L42.2581 43.9323L30.8156 44.8497L39.5336 52.3175L36.8702 63.4836Z" fill="white"/>
</svg>
