<?xml version="1.0" encoding="UTF-8" standalone="no"?><svg width="65" height="67" viewBox="0 0 65 67" fill="none" xmlns="http://www.w3.org/2000/svg">
<path d="M54.15 65.5833C53.5389 65.8055 52.9556 65.7367 52.4 65.3767C51.8444 65.0167 51.4833 64.4744 51.3167 63.75C51.2056 63.1389 51.3033 62.5278 51.61 61.9167C51.9167 61.3056 52.3744 60.8611 52.9833 60.5833C55.0944 59.6389 56.7756 58.2222 58.0267 56.3333C59.2778 54.4444 59.9022 52.3333 59.9 50C59.8978 47.6667 59.2733 45.5556 58.0267 43.6667C56.78 41.7778 55.0989 40.3611 52.9833 39.4167C52.3167 39.1389 51.8444 38.6944 51.5667 38.0833C51.2889 37.4722 51.2056 36.8611 51.3167 36.25C51.4833 35.5278 51.8444 34.9867 52.4 34.6267C52.9556 34.2667 53.5389 34.1967 54.15 34.4167C57.4278 35.6389 60.0389 37.6667 61.9833 40.5C63.9278 43.3333 64.9 46.5 64.9 50C64.9 53.5 63.9278 56.6667 61.9833 59.5C60.0389 62.3333 57.4278 64.3611 54.15 65.5833ZM42.4 65.4167C41.2889 64.9722 40.2467 64.4444 39.2733 63.8333C38.3 63.2222 37.3978 62.5 36.5667 61.6667C35.7356 60.8333 35.0133 59.9311 34.4 58.96C33.7867 57.9889 33.2589 56.9467 32.8167 55.8333C32.5944 55.2222 32.6644 54.6389 33.0267 54.0833C33.3889 53.5278 33.9022 53.1667 34.5667 53C35.1778 52.8889 35.7756 53 36.36 53.3333C36.9444 53.6667 37.3744 54.1389 37.65 54.75C37.9278 55.4167 38.2756 56.0278 38.6933 56.5833C39.1111 57.1389 39.5689 57.6667 40.0667 58.1667C40.5644 58.6667 41.1067 59.1256 41.6933 59.5433C42.28 59.9611 42.8767 60.3078 43.4833 60.5833C44.09 60.8589 44.5489 61.3033 44.86 61.9167C45.1711 62.53 45.2678 63.1411 45.15 63.75C44.9833 64.4167 44.6367 64.9167 44.11 65.25C43.5833 65.5833 43.0133 65.6389 42.4 65.4167ZM46.2333 55.8333C45.9556 56 45.6633 56.0144 45.3567 55.8767C45.05 55.7389 44.8978 55.5022 44.9 55.1667V44.8333C44.9 44.5 45.0533 44.2644 45.36 44.1267C45.6667 43.9889 45.9578 44.0022 46.2333 44.1667L54.15 49.3333C54.4278 49.5 54.5667 49.7222 54.5667 50C54.5667 50.2778 54.4278 50.5 54.15 50.6667L46.2333 55.8333ZM34.5667 47C33.9 46.8333 33.3867 46.4722 33.0267 45.9167C32.6667 45.3611 32.5967 44.7778 32.8167 44.1667C33.2611 43.0556 33.7889 42.0144 34.4 41.0433C35.0111 40.0722 35.7333 39.1689 36.5667 38.3333C37.4 37.4978 38.3033 36.7756 39.2767 36.1667C40.25 35.5578 41.2911 35.03 42.4 34.5833C43.0111 34.3611 43.5811 34.4167 44.11 34.75C44.6389 35.0833 44.9855 35.5833 45.15 36.25C45.2611 36.8611 45.1633 37.4722 44.8567 38.0833C44.55 38.6944 44.0922 39.1389 43.4833 39.4167C42.8744 39.6944 42.2778 40.0422 41.6933 40.46C41.1089 40.8778 40.5667 41.3356 40.0667 41.8333C39.5667 42.3311 39.1078 42.8589 38.69 43.4167C38.2722 43.9744 37.9256 44.5856 37.65 45.25C37.3722 45.8611 36.9422 46.3333 36.36 46.6667C35.7778 47 35.18 47.1111 34.5667 47ZM26.9833 66.6667C25.4833 66.6667 24.3311 66.1667 23.5267 65.1667C22.7222 64.1667 22.2078 62.9444 21.9833 61.5L21.2333 56C20.5111 55.7222 19.8311 55.3889 19.1933 55C18.5556 54.6111 17.93 54.1944 17.3167 53.75L12.15 55.9167C10.7611 56.5278 9.37222 56.5833 7.98333 56.0833C6.59444 55.5833 5.51111 54.6944 4.73333 53.4167L0.816666 46.5833C0.0388884 45.3056 -0.183333 43.9444 0.15 42.5C0.483333 41.0556 1.23333 39.8611 2.4 38.9167L6.81667 35.5833C6.76111 35.1944 6.73333 34.8189 6.73333 34.4567V32.2067C6.73333 31.8467 6.76111 31.4722 6.81667 31.0833L2.4 27.75C1.23333 26.8056 0.483333 25.6111 0.15 24.1667C-0.183333 22.7222 0.0388884 21.3611 0.816666 20.0833L4.73333 13.25C5.51111 11.9722 6.59444 11.0833 7.98333 10.5833C9.37222 10.0833 10.7611 10.1389 12.15 10.75L17.3167 12.9167C17.9278 12.4722 18.5667 12.0556 19.2333 11.6667C19.9 11.2778 20.5667 10.9444 21.2333 10.6667L21.9833 5.16667C22.2056 3.72222 22.8589 2.5 23.9433 1.5C25.0278 0.5 26.3189 0 27.8167 0H35.65C37.15 0 38.4422 0.5 39.5267 1.5C40.6111 2.5 41.2633 3.72222 41.4833 5.16667L42.2333 10.6667C42.9556 10.9444 43.6367 11.2778 44.2767 11.6667C44.9167 12.0556 45.5411 12.4722 46.15 12.9167L51.3167 10.75C52.7056 10.1389 54.0944 10.0833 55.4833 10.5833C56.8722 11.0833 57.9556 11.9722 58.7333 13.25L62.65 20.0833C63.4278 21.3611 63.65 22.7222 63.3167 24.1667C62.9833 25.6111 62.2333 26.8056 61.0667 27.75L59.0667 29.25C58.3444 29.8611 57.5389 30.0967 56.65 29.9567C55.7611 29.8167 55.0111 29.3867 54.4 28.6667C53.7889 27.9467 53.5389 27.1411 53.65 26.25C53.7611 25.3589 54.1778 24.6089 54.9 24L56.4833 22.8333L53.2333 17.1667L44.9833 20.6667C43.7611 19.3889 42.4133 18.32 40.94 17.46C39.4667 16.6 37.87 15.9467 36.15 15.5L35.0667 6.66667H28.4833L27.3167 15.5C25.5944 15.9444 23.9978 16.5978 22.5267 17.46C21.0556 18.3222 19.7078 19.3633 18.4833 20.5833L10.2333 17.1667L6.98333 22.8333L14.15 28.1667C13.8722 29 13.6778 29.8333 13.5667 30.6667C13.4556 31.5 13.4 32.3889 13.4 33.3333C13.4 34.2222 13.4556 35.0833 13.5667 35.9167C13.6778 36.75 13.8722 37.5833 14.15 38.4167L6.98333 43.8333L10.2333 49.5L18.4833 46C19.4278 46.9444 20.4422 47.7922 21.5267 48.5433C22.6111 49.2944 23.7911 49.9189 25.0667 50.4167C25.1222 52.8611 25.5256 55.1811 26.2767 57.3767C27.0278 59.5722 28.0411 61.5856 29.3167 63.4167C29.7611 64.0833 29.7333 64.7922 29.2333 65.5433C28.7333 66.2944 27.9833 66.6689 26.9833 66.6667ZM31.9 21.6667C28.6778 21.6667 25.9278 22.7922 23.65 25.0433C21.3722 27.2944 20.2333 30.0578 20.2333 33.3333C20.2333 34.5 20.4 35.6389 20.7333 36.75C21.0667 37.8611 21.5667 38.9167 22.2333 39.9167C22.8444 40.75 23.6367 41.2778 24.61 41.5C25.5833 41.7222 26.4578 41.5278 27.2333 40.9167C28.0111 40.3611 28.47 39.6244 28.61 38.7067C28.75 37.7889 28.5133 36.9978 27.9 36.3333C27.5667 35.8889 27.3167 35.43 27.15 34.9567C26.9833 34.4833 26.9 33.9422 26.9 33.3333C26.9 31.9444 27.3867 30.7644 28.36 29.7933C29.3333 28.8222 30.5133 28.3356 31.9 28.3333C32.4556 28.3333 32.9978 28.4311 33.5267 28.6267C34.0556 28.8222 34.5411 29.0856 34.9833 29.4167C35.65 29.9167 36.4 30.0978 37.2333 29.96C38.0667 29.8222 38.7611 29.3633 39.3167 28.5833C39.8722 27.8033 40.0533 26.9422 39.86 26C39.6667 25.0578 39.18 24.28 38.4 23.6667C37.6222 23 36.6778 22.5 35.5667 22.1667C34.4556 21.8333 33.2333 21.6667 31.9 21.6667Z" fill="white"/>
</svg>
