<?xml version="1.0" encoding="UTF-8" standalone="no"?><svg width="60" height="54" viewBox="0 0 60 54" fill="none" xmlns="http://www.w3.org/2000/svg">
<path d="M6.66667 53.3333C4.83334 53.3333 3.26445 52.6811 1.96001 51.3767C0.655561 50.0722 0.00222787 48.5022 5.64972e-06 46.6667C-0.00221657 44.8311 0.651117 43.2622 1.96001 41.96C3.26889 40.6578 4.83778 40.0044 6.66667 40H53.3333C55.1667 40 56.7367 40.6533 58.0433 41.96C59.35 43.2667 60.0022 44.8356 60 46.6667C59.9978 48.4978 59.3456 50.0678 58.0433 51.3767C56.7411 52.6856 55.1711 53.3378 53.3333 53.3333H6.66667ZM6.66667 13.3333C4.83334 13.3333 3.26445 12.6811 1.96001 11.3767C0.655561 10.0722 0.00222787 8.50222 5.64972e-06 6.66667C-0.00221657 4.83111 0.651117 3.26222 1.96001 1.96C3.26889 0.657777 4.83778 0.00444444 6.66667 0H53.3333C55.1667 0 56.7367 0.653333 58.0433 1.96C59.35 3.26667 60.0022 4.83556 60 6.66667C59.9978 8.49778 59.3456 10.0678 58.0433 11.3767C56.7411 12.6856 55.1711 13.3378 53.3333 13.3333H6.66667ZM6.66667 33.3333C4.83334 33.3333 3.26445 32.6811 1.96001 31.3767C0.655561 30.0722 0.00222787 28.5022 5.64972e-06 26.6667C-0.00221657 24.8311 0.651117 23.2622 1.96001 21.96C3.26889 20.6578 4.83778 20.0044 6.66667 20H53.3333C55.1667 20 56.7367 20.6533 58.0433 21.96C59.35 23.2667 60.0022 24.8356 60 26.6667C59.9978 28.4978 59.3456 30.0678 58.0433 31.3767C56.7411 32.6856 55.1711 33.3378 53.3333 33.3333H6.66667ZM12.3767 9.04C13.0144 8.40444 13.3333 7.61333 13.3333 6.66667C13.3333 5.72 13.0133 4.92889 12.3733 4.29333C11.7333 3.65778 10.9422 3.33778 10 3.33333C9.05778 3.32889 8.26667 3.64889 7.62667 4.29333C6.98667 4.93778 6.66667 5.72889 6.66667 6.66667C6.66667 7.60444 6.98667 8.39667 7.62667 9.04333C8.26667 9.69 9.05778 10.0089 10 10C10.9422 9.99111 11.7344 9.67111 12.3767 9.04ZM12.3767 29.04C13.0144 28.4044 13.3333 27.6133 13.3333 26.6667C13.3333 25.72 13.0133 24.9289 12.3733 24.2933C11.7333 23.6578 10.9422 23.3378 10 23.3333C9.05778 23.3289 8.26667 23.6489 7.62667 24.2933C6.98667 24.9378 6.66667 25.7289 6.66667 26.6667C6.66667 27.6044 6.98667 28.3967 7.62667 29.0433C8.26667 29.69 9.05778 30.0089 10 30C10.9422 29.9911 11.7344 29.6711 12.3767 29.04ZM12.3767 49.04C13.0144 48.4044 13.3333 47.6133 13.3333 46.6667C13.3333 45.72 13.0133 44.9289 12.3733 44.2933C11.7333 43.6578 10.9422 43.3378 10 43.3333C9.05778 43.3289 8.26667 43.6489 7.62667 44.2933C6.98667 44.9378 6.66667 45.7289 6.66667 46.6667C6.66667 47.6044 6.98667 48.3967 7.62667 49.0433C8.26667 49.69 9.05778 50.0089 10 50C10.9422 49.9911 11.7344 49.6711 12.3767 49.04Z" fill="white"/>
</svg>
