<?xml version="1.0" encoding="UTF-8" standalone="no"?><svg width="60" height="60" viewBox="0 0 60 60" fill="none" xmlns="http://www.w3.org/2000/svg">
<path d="M6.66667 60L0 20H60L53.3333 60H6.66667ZM12.25 53.3333H47.75L52 26.6667H8L12.25 53.3333ZM23.3333 40H36.6667C37.6111 40 38.4033 39.68 39.0433 39.04C39.6833 38.4 40.0022 37.6089 40 36.6667C39.9978 35.7244 39.6778 34.9333 39.04 34.2933C38.4022 33.6533 37.6111 33.3333 36.6667 33.3333H23.3333C22.3889 33.3333 21.5978 33.6533 20.96 34.2933C20.3222 34.9333 20.0022 35.7244 20 36.6667C19.9978 37.6089 20.3178 38.4011 20.96 39.0433C21.6022 39.6856 22.3933 40.0044 23.3333 40ZM10 16.6667C9.05556 16.6667 8.26444 16.3467 7.62667 15.7067C6.98889 15.0667 6.66889 14.2756 6.66667 13.3333C6.66444 12.3911 6.98444 11.6 7.62667 10.96C8.26889 10.32 9.06 10 10 10H50C50.9444 10 51.7367 10.32 52.3767 10.96C53.0167 11.6 53.3356 12.3911 53.3333 13.3333C53.3311 14.2756 53.0111 15.0678 52.3733 15.71C51.7356 16.3522 50.9444 16.6711 50 16.6667H10ZM16.6667 6.66667C15.7222 6.66667 14.9311 6.34667 14.2933 5.70667C13.6556 5.06667 13.3356 4.27556 13.3333 3.33333C13.3311 2.39111 13.6511 1.6 14.2933 0.96C14.9356 0.32 15.7267 0 16.6667 0H43.3333C44.2778 0 45.07 0.32 45.71 0.96C46.35 1.6 46.6689 2.39111 46.6667 3.33333C46.6644 4.27556 46.3444 5.06778 45.7067 5.71C45.0689 6.35222 44.2778 6.67111 43.3333 6.66667H16.6667Z" fill="white"/>
</svg>
