<?xml version="1.0" encoding="UTF-8" standalone="no"?><svg width="293" height="35" viewBox="0 0 293 35" fill="none" xmlns="http://www.w3.org/2000/svg">
<path d="M7.41634 9.78765L7.45946 11.7459V11.8764H7.50258C7.54569 11.7894 7.58881 11.7459 7.63193 11.6588C8.62365 10.6145 9.83096 9.57007 12.763 9.57007C15.5657 9.57007 17.3767 11.9635 17.4629 13.4865V24.1915V26.8895H15.0483V23.7128V14.5744C15.0483 12.7032 13.4098 11.3107 11.3832 11.3107C9.70161 11.3107 7.58881 12.8338 7.50258 14.3568V24.148V24.235V26.846H5.08795V24.148V12.0505V9.78765H7.41634Z" fill="white"/>
<path d="M0 7.26374V4.56573H2.63021V24.1915V24.235V26.8895H0V24.1915V7.26374Z" fill="white"/>
<path d="M64.4187 17.4465C61.5298 16.0105 60.538 15.7059 60.538 14.0087C60.538 11.7894 62.349 11.1367 63.815 11.1367C65.4966 11.1367 66.5746 11.7894 68.0837 12.8773V10.3099C66.8764 9.8747 65.8416 9.70064 64.4618 9.70064C61.7022 9.70064 59.2014 10.7015 58.5546 13.0514L55.1483 21.5805L54.8033 22.6685L54.5015 21.5805L51.785 14.9226L49.8878 10.2228C48.8961 9.96174 47.3007 9.61361 46.1796 9.61361C46.0503 9.61361 45.9641 9.61361 45.8347 9.61361C42.6871 9.65712 39.6257 11.0061 39.6257 14.1828C39.6257 14.3569 39.6257 14.5309 39.6257 14.705C38.3321 11.6589 35.5726 9.52657 32.3818 9.52657C31.9937 9.52657 31.6057 9.57009 31.2607 9.61361H22.249C21.8609 7.30725 22.9389 6.00177 24.5343 6.00177C26.5608 6.00177 27.3801 6.61099 28.2856 7.39428C28.2856 7.39428 28.3287 7.39428 28.3718 7.39428C28.3718 7.39428 28.3718 7.30725 28.3718 7.13319V4.95738C27.8113 4.69628 26.8195 4.52222 25.0086 4.52222C22.2059 4.52222 20.2225 6.39341 19.9206 9.65712H17.7647V11.2672H19.8775V24.1915C19.8775 24.235 19.8775 24.2786 19.8775 24.3221V26.8895H22.2921V24.235V24.1915V11.2672H27.6819C25.6985 12.9208 24.3618 15.5753 24.3618 18.5779C24.3618 23.5388 27.9406 27.5858 32.3387 27.5858C36.7367 27.5858 40.3156 23.5388 40.3156 18.5779C40.3156 17.9687 40.2725 17.403 40.1862 16.8373C40.9623 18.1428 42.5146 18.752 44.5412 19.6223C46.9558 20.6667 48.2924 21.537 48.2924 23.1036C48.2924 24.9313 46.5677 25.8886 44.6274 25.8886C42.7302 25.8886 41.2642 25.1054 39.6257 23.6258V26.4979C40.6174 27.1506 42.1697 27.5423 43.8513 27.5423C45.9641 27.5423 50.319 26.759 50.319 22.3203C50.319 19.6658 48.12 18.4909 45.7054 17.4465C42.8164 16.0105 41.6954 15.7059 41.7385 14.0087C41.7385 11.7894 43.6357 11.1367 45.1448 11.1367C45.7916 11.1367 46.3521 11.2237 46.8695 11.3978C47.8613 11.7894 48.1631 12.5292 48.508 13.3125C48.6805 13.6606 48.7236 13.8347 48.7667 13.8782L53.3804 24.8878C52.6043 26.6284 51.7419 28.4996 51.1814 29.6746V29.7181L50.1465 31.7198H52.518C53.5529 29.4135 57.9078 18.7085 58.8564 16.4021C59.4601 18.0557 60.9692 18.752 63.2976 19.7529C65.7122 20.7973 67.0489 21.6676 67.0489 23.1906C67.0489 25.0183 65.3242 25.9757 63.3838 25.9757C61.4004 25.9757 59.8913 25.1489 58.1665 23.5388L57.9941 23.4082V26.3673C58.9427 27.1941 60.7105 27.6293 62.5646 27.6293C64.6774 27.6293 69.0323 26.846 69.0323 22.4074C69.0323 19.6223 66.7902 18.4909 64.4187 17.4465ZM32.4249 25.9757C29.4066 26.0192 26.9058 22.799 26.8195 18.752C26.7333 14.705 29.1479 11.3543 32.1662 11.3107C35.1845 11.2672 37.6854 14.4874 37.7716 18.5344C37.8147 22.6249 35.4432 25.9322 32.4249 25.9757Z" fill="white"/>
<line x1="82.5" y1="6.35986" x2="82.5" y2="29.3599" stroke="white"/>
<g clip-path="url(#clip0_34_59)">
<mask id="mask0_34_59" style="mask-type:luminance" maskUnits="userSpaceOnUse" x="90" y="0" width="203" height="35">
<path d="M292.222 0H90V35H292.222V0Z" fill="white"/>
</mask>
<g mask="url(#mask0_34_59)">
<path d="M93.5918 27.2223V7.81203H97.3205V15.666H106.655V7.81203H110.384V27.2223H106.655V18.8394H97.3205V27.2223H93.5918ZM113.982 27.2223V13.1274H117.552V27.2223H113.982ZM115.78 11.2498C114.537 11.2498 113.691 10.43 113.691 9.31936C113.691 8.18225 114.537 7.38892 115.78 7.38892C117.023 7.38892 117.869 8.18225 117.869 9.31936C117.869 10.43 117.023 11.2498 115.78 11.2498ZM126.277 27.5396C123.527 27.5396 121.649 26.1116 121.649 22.9118V16.0891H119.56V13.524L121.649 13.1802V9.98047L125.193 8.94914V13.1274H128.816V16.0891H125.219V22.5151C125.219 23.9431 125.933 24.5514 127.097 24.5514C127.705 24.5514 128.34 24.3927 128.816 24.1811V27.1165C128.128 27.3545 127.229 27.5396 126.277 27.5396ZM135.205 27.5396C132.217 27.5396 130.392 25.8471 130.392 23.3349C130.392 20.664 132.481 19.4476 135.787 18.8923L139.278 18.3369C139.225 16.3271 138.193 15.5867 136.289 15.5867C134.703 15.5867 133.01 16.0627 131.556 16.856V13.9736C132.931 13.286 134.703 12.81 136.66 12.81C140.441 12.81 142.821 14.6611 142.821 18.4162V23.7316C142.821 24.5778 143.112 25.0274 143.932 25.0274C144.249 25.0274 144.593 24.948 144.937 24.8687V27.1958C144.223 27.4338 143.509 27.5396 142.848 27.5396C141.129 27.5396 140.177 26.8256 139.701 25.5298H139.357L137.665 27.1429C136.898 27.4074 136.051 27.5396 135.205 27.5396ZM136.263 24.7894C137.321 24.7894 138.352 24.4985 139.278 23.9696V20.5847L136.369 21.0607C134.782 21.3516 133.989 21.8805 133.989 23.0176C133.989 24.1547 134.782 24.7894 136.263 24.7894ZM153.686 27.5396C149.005 27.5396 145.964 24.3927 145.964 20.188C145.964 15.9569 149.005 12.81 153.686 12.81C155.14 12.81 156.462 13.1009 157.652 13.6563V16.7502C156.727 16.2214 155.537 15.8247 154.162 15.8247C151.359 15.8247 149.587 17.4642 149.587 20.188C149.587 22.9118 151.359 24.5249 154.162 24.5249C155.51 24.5249 156.727 24.1547 157.652 23.5994V26.6934C156.462 27.2487 155.14 27.5396 153.686 27.5396ZM160.208 27.2223V7.81203H163.778V14.5818H164.043L165.497 13.2067C166.238 12.9951 167.084 12.81 168.036 12.81C171.156 12.81 173.298 14.7405 173.298 18.1783V27.2223H169.728V18.76C169.728 16.6445 168.671 15.8247 166.899 15.8247C165.682 15.8247 164.572 16.2214 163.778 16.6709V27.2223H160.208ZM176.297 27.2223V13.1274H179.867V27.2223H176.297ZM178.095 11.2498C176.852 11.2498 176.006 10.43 176.006 9.31936C176.006 8.18225 176.852 7.38892 178.095 7.38892C179.338 7.38892 180.184 8.18225 180.184 9.31936C180.184 10.43 179.338 11.2498 178.095 11.2498ZM196.11 27.2223L188.996 7.81203H193.069L198.252 22.9911H198.463L203.779 7.81203H207.719L200.553 27.2223H196.11ZM211.956 27.5396C208.968 27.5396 207.143 25.8471 207.143 23.3349C207.143 20.664 209.233 19.4476 212.538 18.8923L216.029 18.3369C215.976 16.3271 214.945 15.5867 213.041 15.5867C211.454 15.5867 209.761 16.0627 208.307 16.856V13.9736C209.682 13.286 211.454 12.81 213.411 12.81C217.192 12.81 219.572 14.6611 219.572 18.4162V23.7316C219.572 24.5778 219.863 25.0274 220.683 25.0274C221 25.0274 221.344 24.948 221.688 24.8687V27.1958C220.974 27.4338 220.26 27.5396 219.599 27.5396C217.88 27.5396 216.928 26.8256 216.452 25.5298H216.108L214.416 27.1429C213.649 27.4074 212.803 27.5396 211.956 27.5396ZM213.014 24.7894C214.072 24.7894 215.103 24.4985 216.029 23.9696V20.5847L213.12 21.0607C211.533 21.3516 210.74 21.8805 210.74 23.0176C210.74 24.1547 211.533 24.7894 213.014 24.7894ZM223.66 27.2223V13.1274H226.568L226.886 14.8198H227.203L228.896 13.2067C229.61 12.9951 230.456 12.81 231.434 12.81C234.608 12.81 236.75 14.7405 236.75 18.1783V27.2223H233.18V18.76C233.18 16.6709 232.122 15.8247 230.324 15.8247C229.134 15.8247 228.023 16.2214 227.23 16.6445V27.2223H223.66ZM245.199 27.5396C242.449 27.5396 240.572 26.1116 240.572 22.9118V16.0891H238.482V13.524L240.572 13.1802V9.98047L244.115 8.94914V13.1274H247.738V16.0891H244.142V22.5151C244.142 23.9431 244.856 24.5514 246.019 24.5514C246.627 24.5514 247.262 24.3927 247.738 24.1811V27.1165C247.05 27.3545 246.151 27.5396 245.199 27.5396ZM254.127 27.5396C251.139 27.5396 249.315 25.8471 249.315 23.3349C249.315 20.664 251.404 19.4476 254.709 18.8923L258.2 18.3369C258.147 16.3271 257.116 15.5867 255.212 15.5867C253.625 15.5867 251.933 16.0627 250.478 16.856V13.9736C251.853 13.286 253.625 12.81 255.582 12.81C259.363 12.81 261.743 14.6611 261.743 18.4162V23.7316C261.743 24.5778 262.034 25.0274 262.854 25.0274C263.171 25.0274 263.515 24.948 263.859 24.8687V27.1958C263.145 27.4338 262.431 27.5396 261.77 27.5396C260.051 27.5396 259.099 26.8256 258.623 25.5298H258.279L256.587 27.1429C255.82 27.4074 254.974 27.5396 254.127 27.5396ZM255.185 24.7894C256.243 24.7894 257.274 24.4985 258.2 23.9696V20.5847L255.291 21.0607C253.704 21.3516 252.911 21.8805 252.911 23.0176C252.911 24.1547 253.704 24.7894 255.185 24.7894ZM265.831 27.2223V13.1274H268.74L269.058 14.8198H269.349L271.041 13.2596C271.861 12.9951 273.104 12.8365 274.056 12.81V16.0098C272.363 16.0627 270.856 16.3007 269.401 16.7238V27.2223H265.831ZM279.539 27.5396C276.551 27.5396 274.726 25.8471 274.726 23.3349C274.726 20.664 276.815 19.4476 280.121 18.8923L283.611 18.3369C283.559 16.3271 282.527 15.5867 280.623 15.5867C279.037 15.5867 277.344 16.0627 275.89 16.856V13.9736C277.265 13.286 279.037 12.81 280.994 12.81C284.775 12.81 287.155 14.6611 287.155 18.4162V23.7316C287.155 24.5778 287.446 25.0274 288.266 25.0274C288.583 25.0274 288.927 24.948 289.271 24.8687V27.1958C288.557 27.4338 287.843 27.5396 287.181 27.5396C285.463 27.5396 284.511 26.8256 284.035 25.5298H283.691L281.998 27.1429C281.231 27.4074 280.385 27.5396 279.539 27.5396ZM280.597 24.7894C281.655 24.7894 282.686 24.4985 283.611 23.9696V20.5847L280.703 21.0607C279.116 21.3516 278.323 21.8805 278.323 23.0176C278.323 24.1547 279.116 24.7894 280.597 24.7894Z" fill="white"/>
</g>
</g>
<defs>
<clipPath id="clip0_34_59">
<rect width="202.222" height="35" fill="white" transform="translate(90)"/>
</clipPath>
</defs>
</svg>
