<?xml version="1.0" encoding="UTF-8" standalone="no"?><svg width="36" height="36" viewBox="0 0 36 36" fill="none" xmlns="http://www.w3.org/2000/svg">
<circle cx="17.563" cy="17.563" r="17.563" fill="white"/>
<path d="M18 12C19.575 12 21.075 12.6 22.2 13.725C24.525 16.05 24.525 19.875 22.2 22.2C20.85 23.625 18.975 24.15 17.175 23.925L17.55 22.425C18.825 22.575 20.175 22.125 21.15 21.15C22.875 19.425 22.875 16.575 21.15 14.775C20.325 13.95 19.125 13.5 18 13.5V16.95L14.25 13.2L18 9.44995V12ZM13.725 22.2C11.775 20.25 11.475 17.25 12.825 14.925L13.95 16.05C13.125 17.7 13.425 19.8 14.85 21.15C15.225 21.525 15.675 21.825 16.2 22.05L15.75 23.55C15 23.25 14.325 22.8 13.725 22.2Z" fill="black"/>
</svg>
