<?xml version="1.0" encoding="UTF-8" standalone="no"?><svg width="182" height="182" viewBox="0 0 182 182" fill="none" xmlns="http://www.w3.org/2000/svg">
<path d="M90.8333 181.667C78.2681 181.667 66.4597 179.281 55.4083 174.509C44.357 169.737 34.7438 163.267 26.5688 155.098C18.3938 146.929 11.9234 137.316 7.15768 126.258C2.39196 115.201 0.00606705 103.393 1.14979e-05 90.8333C-0.00604406 78.2741 2.37985 66.4658 7.15768 55.4083C11.9355 44.3509 18.4059 34.7377 26.5688 26.5688C34.7317 18.3998 44.3448 11.9294 55.4083 7.15767C66.4718 2.38589 78.2802 0 90.8333 0C103.387 0 115.195 2.38589 126.258 7.15767C137.322 11.9294 146.935 18.3998 155.098 26.5688C163.261 34.7377 169.734 44.3509 174.518 55.4083C179.302 66.4658 181.685 78.2741 181.667 90.8333C181.649 103.393 179.263 115.201 174.509 126.258C169.755 137.316 163.285 146.929 155.098 155.098C146.911 163.267 137.298 169.74 126.258 174.518C115.219 179.296 103.411 181.679 90.8333 181.667ZM90.8333 163.5C111.119 163.5 128.302 156.46 142.381 142.381C156.46 128.302 163.5 111.119 163.5 90.8333C163.5 89.7736 163.464 88.6745 163.391 87.5361C163.318 86.3976 163.279 85.453 163.273 84.7021C162.516 89.0924 160.472 92.7257 157.142 95.6021C153.811 98.4785 149.875 99.9167 145.333 99.9167H127.167C122.171 99.9167 117.896 98.1394 114.341 94.5847C110.786 91.0301 109.006 86.7519 109 81.75V72.6667H72.6667V54.5C72.6667 49.5042 74.447 45.2289 78.0077 41.6743C81.5683 38.1197 85.8436 36.3394 90.8333 36.3333H99.9167C99.9167 32.8514 100.864 29.7873 102.76 27.141C104.655 24.4947 106.962 22.3359 109.681 20.6646C106.653 19.9076 103.589 19.3021 100.489 18.8479C97.3885 18.3937 94.17 18.1667 90.8333 18.1667C70.5472 18.1667 53.3646 25.2062 39.2854 39.2854C25.2063 53.3646 18.1667 70.5472 18.1667 90.8333H63.5833C73.575 90.8333 82.1285 94.391 89.2438 101.506C96.359 108.622 99.9167 117.175 99.9167 127.167V136.25H72.6667V161.229C75.6945 161.986 78.6859 162.555 81.641 162.937C84.5961 163.318 87.6602 163.506 90.8333 163.5Z" fill="white"/>
</svg>
