<?xml version="1.0" encoding="UTF-8" standalone="no"?><svg width="50" height="74" viewBox="0 0 50 74" fill="none" xmlns="http://www.w3.org/2000/svg">
<path d="M6.66667 73.3333C4.83333 73.3333 3.26444 72.6811 1.96 71.3767C0.655555 70.0722 0.00222222 68.5022 0 66.6667V6.66667C0 4.83333 0.653333 3.26444 1.96 1.96C3.26667 0.655556 4.83556 0.00222222 6.66667 0H40C41.8333 0 43.4033 0.653334 44.71 1.96C46.0167 3.26667 46.6689 4.83556 46.6667 6.66667V17C47.6667 17.3889 48.4722 18 49.0833 18.8333C49.6944 19.6667 50 20.6111 50 21.6667V28.3333C50 29.3889 49.6944 30.3333 49.0833 31.1667C48.4722 32 47.6667 32.6111 46.6667 33V66.6667C46.6667 68.5 46.0144 70.07 44.71 71.3767C43.4056 72.6833 41.8356 73.3356 40 73.3333H6.66667ZM16.6667 63.3333H30C30.9444 63.3333 31.7367 63.0133 32.3767 62.3733C33.0167 61.7333 33.3356 60.9422 33.3333 60C33.3311 59.0578 33.0111 58.2667 32.3733 57.6267C31.7356 56.9867 30.9444 56.6667 30 56.6667H16.6667C15.7222 56.6667 14.9311 56.9867 14.2933 57.6267C13.6556 58.2667 13.3356 59.0578 13.3333 60C13.3311 60.9422 13.6511 61.7344 14.2933 62.3767C14.9356 63.0189 15.7267 63.3378 16.6667 63.3333Z" fill="white"/>
</svg>
