<?xml version="1.0" encoding="UTF-8" standalone="no"?><svg width="48" height="48" viewBox="0 0 48 48" fill="none" xmlns="http://www.w3.org/2000/svg">
<g clip-path="url(#clip0_594_4351)">
<path d="M6.58926 36.7385C8.73699 36.7385 10.4781 35.0062 10.4781 32.8692C10.4781 30.7322 8.73699 28.9999 6.58926 28.9999C4.44152 28.9999 2.70044 30.7322 2.70044 32.8692C2.70044 35.0062 4.44152 36.7385 6.58926 36.7385Z" stroke="white" stroke-width="0.73646" stroke-linejoin="round"/>
<path d="M11.3143 46.7411C12.2183 46.3995 12.8106 45.5358 12.8106 44.572V42.9289C12.8106 38.2855 9.95959 36.7385 7.21118 36.7385H5.96686C3.21845 36.7385 0.367432 38.2868 0.367432 42.9289V44.572C0.367432 45.5345 0.959717 46.3982 1.86373 46.7411C2.9353 47.1464 4.5472 47.5724 6.58902 47.5724C8.63085 47.5724 10.2427 47.1464 11.3143 46.7411Z" stroke="white" stroke-width="0.73646" stroke-linejoin="round"/>
<path d="M40.6352 36.7385C42.7829 36.7385 44.524 35.0062 44.524 32.8692C44.524 30.7322 42.7829 28.9999 40.6352 28.9999C38.4874 28.9999 36.7463 30.7322 36.7463 32.8692C36.7463 35.0062 38.4874 36.7385 40.6352 36.7385Z" stroke="white" stroke-width="0.73646" stroke-linejoin="round"/>
<path d="M35.9099 46.7411C35.0059 46.3995 34.4136 45.5358 34.4136 44.572V42.9289C34.4136 38.2855 37.2646 36.7385 40.013 36.7385H41.2573C44.0057 36.7385 46.8568 38.2868 46.8568 42.9289V44.572C46.8568 45.5345 46.2645 46.3982 45.3605 46.7411C44.2889 47.1464 42.677 47.5724 40.6352 47.5724C38.5933 47.5724 36.9814 47.1464 35.9099 46.7411Z" stroke="white" stroke-width="0.73646" stroke-linejoin="round"/>
<path d="M23.6146 8.10629C25.7624 8.10629 27.5035 6.37392 27.5035 4.23695C27.5035 2.09997 25.7624 0.367615 23.6146 0.367615C21.4669 0.367615 19.7258 2.09997 19.7258 4.23695C19.7258 6.37392 21.4669 8.10629 23.6146 8.10629Z" stroke="white" stroke-width="0.73646" stroke-linejoin="round"/>
<path d="M28.3387 18.1089C29.2427 17.7673 29.835 16.9035 29.835 15.9398V14.2967C29.835 9.65322 26.984 8.10626 24.2356 8.10626H22.9913C20.2429 8.10626 17.3918 9.65452 17.3918 14.2967V15.9398C17.3918 16.9022 17.9841 17.766 18.8881 18.1089C19.9597 18.5141 21.5716 18.9401 23.6134 18.9401C25.6553 18.9401 27.2672 18.5141 28.3387 18.1089Z" stroke="white" stroke-width="0.73646" stroke-linejoin="round"/>
<path d="M23.6082 31.8976V21.8379" stroke="white" stroke-width="0.73646" stroke-linejoin="round"/>
<path d="M23.8357 32.1627L32.5472 37.1919" stroke="white" stroke-width="0.73646" stroke-linejoin="round"/>
<path d="M23.4925 32.2263L14.781 37.2568" stroke="white" stroke-width="0.73646" stroke-linejoin="round"/>
</g>
<defs>
<clipPath id="clip0_594_4351">
<rect width="47.2243" height="47.9413" fill="white"/>
</clipPath>
</defs>
</svg>
