<?xml version="1.0" encoding="UTF-8" standalone="no"?><svg width="59" height="59" viewBox="0 0 59 59" fill="none" xmlns="http://www.w3.org/2000/svg">
<g clip-path="url(#clip0_594_4289)">
<path d="M8.03026 20.1943C8.29527 22.2673 6.82903 24.1606 4.75607 24.4256C2.68311 24.6907 0.789726 23.2244 0.524722 21.1515C0.259718 19.0785 1.72596 17.1851 3.79892 16.9201C5.87187 16.6551 7.76526 18.1213 8.03026 20.1943Z" stroke="white" stroke-width="0.988535" stroke-linejoin="round"/>
<path d="M26.9468 7.58395C27.2118 9.65691 25.7455 11.552 23.6726 11.8153C21.5996 12.0803 19.7045 10.6141 19.4412 8.5411C19.1762 6.46814 20.6425 4.57476 22.7154 4.30976C24.7884 4.04475 26.6818 5.51099 26.9468 7.58395Z" stroke="white" stroke-width="0.988535" stroke-linejoin="round"/>
<path d="M28.209 31.5442C28.474 33.6171 27.0077 35.5122 24.9348 35.7755C22.8618 36.0405 20.9684 34.5743 20.7034 32.5013C20.4384 30.4283 21.9047 28.535 23.9776 28.27C26.0506 28.005 27.9457 29.4712 28.209 31.5442Z" stroke="white" stroke-width="0.988535" stroke-linejoin="round"/>
<path d="M25.6863 54.2422C25.9513 56.3151 24.485 58.2085 22.4121 58.4735C20.3391 58.7385 18.444 57.2723 18.1807 55.1993C17.9157 53.1263 19.382 51.2312 21.4549 50.968C23.5279 50.703 25.4213 52.1692 25.6863 54.2422Z" stroke="white" stroke-width="0.988535" stroke-linejoin="round"/>
<path d="M43.342 21.4548C43.607 23.5278 42.1408 25.4211 40.0678 25.6861C37.9949 25.9512 36.0997 24.4849 35.8365 22.412C35.5715 20.339 37.0377 18.4439 39.1107 18.1806C41.1836 17.9156 43.077 19.3818 43.342 21.4548Z" stroke="white" stroke-width="0.988535" stroke-linejoin="round"/>
<path d="M58.4752 3.79879C58.7402 5.87175 57.274 7.76514 55.201 8.03014C53.1281 8.29514 51.2347 6.8289 50.9697 4.75595C50.7047 2.68299 52.1709 0.78786 54.2439 0.5246C56.3168 0.259596 58.2119 1.72583 58.4752 3.79879Z" stroke="white" stroke-width="0.988535" stroke-linejoin="round"/>
<path d="M58.4752 32.8047C58.7402 34.8776 57.274 36.7727 55.201 37.036C53.1281 37.301 51.2347 35.8348 50.9697 33.7618C50.7047 31.6888 52.1709 29.7955 54.2439 29.5305C56.3168 29.2655 58.2119 30.7317 58.4752 32.8047Z" stroke="white" stroke-width="0.988535" stroke-linejoin="round"/>
<path d="M42.0798 42.8922C42.3448 44.9651 40.8786 46.8585 38.8056 47.1235C36.7327 47.3885 34.8375 45.9223 34.5743 43.8493C34.3093 41.7764 35.7755 39.8812 37.8485 39.618C39.9214 39.353 41.8148 40.8192 42.0798 42.8922Z" stroke="white" stroke-width="0.988535" stroke-linejoin="round"/>
<path d="M8.03026 44.1545C8.29527 46.2275 6.82903 48.1208 4.75607 48.3859C2.68311 48.6509 0.787982 47.1846 0.524722 45.1117C0.259718 43.0387 1.72596 41.1436 3.79892 40.8803C5.87187 40.6153 7.76526 42.0815 8.03026 44.1545Z" stroke="white" stroke-width="0.988535" stroke-linejoin="round"/>
<path d="M23.3796 11.5956L24.2705 28.4878" stroke="white" stroke-width="0.988535" stroke-linejoin="round"/>
<path d="M50.7344 4.7561L27.1821 7.58397" stroke="white" stroke-width="0.988535" stroke-linejoin="round"/>
<path d="M42.0502 19.061L52.2615 7.14978" stroke="white" stroke-width="0.988535" stroke-linejoin="round"/>
<path d="M51.6966 31.0142L42.6133 24.2025" stroke="white" stroke-width="0.988535" stroke-linejoin="round"/>
<path d="M41.5498 41.3893L51.4997 35.2664" stroke="white" stroke-width="0.988535" stroke-linejoin="round"/>
<path d="M25.0428 52.5683L35.2176 45.5248" stroke="white" stroke-width="0.988535" stroke-linejoin="round"/>
<path d="M7.55786 46.5065L18.6532 52.8474" stroke="white" stroke-width="0.988535" stroke-linejoin="round"/>
<path d="M4.27844 24.2112V41.0947" stroke="white" stroke-width="0.988535" stroke-linejoin="round"/>
<path d="M21.1655 30.1721L7.57007 22.5236" stroke="white" stroke-width="0.988535" stroke-linejoin="round"/>
<path d="M54.7216 8.06165V29.5008" stroke="white" stroke-width="0.988535" stroke-linejoin="round"/>
<path d="M27.3425 30.0987L36.7014 23.8572" stroke="white" stroke-width="0.988535" stroke-linejoin="round"/>
<path d="M35.5437 41.0946L27.2396 34.3004" stroke="white" stroke-width="0.988535" stroke-linejoin="round"/>
<path d="M39.3671 25.707L38.5494 39.5971" stroke="white" stroke-width="0.988535" stroke-linejoin="round"/>
<path d="M26.0802 10.5043L36.7013 19.4917" stroke="white" stroke-width="0.988535" stroke-linejoin="round"/>
<path d="M7.2179 18.7124L20.2554 10.0214" stroke="white" stroke-width="0.988535" stroke-linejoin="round"/>
<path d="M24.0387 35.7806L22.3511 50.9626" stroke="white" stroke-width="0.988535" stroke-linejoin="round"/>
<path d="M7.35034 42.7127L21.3834 33.9431" stroke="white" stroke-width="0.988535" stroke-linejoin="round"/>
</g>
<defs>
<clipPath id="clip0_594_4289">
<rect width="59" height="59" fill="white"/>
</clipPath>
</defs>
</svg>
