<?xml version="1.0" encoding="UTF-8" standalone="no"?><svg width="64" height="67" viewBox="0 0 64 67" fill="none" xmlns="http://www.w3.org/2000/svg">
<path d="M6.66667 66.6667C4.83333 66.6667 3.26444 66.0144 1.96 64.71C0.655555 63.4056 0.00222222 61.8356 0 60V6.66667C0 4.83333 0.653333 3.26444 1.96 1.96C3.26667 0.655556 4.83556 0.00222222 6.66667 0H30.5833C31.4722 0 32.32 0.166667 33.1267 0.5C33.9333 0.833334 34.6411 1.30556 35.25 1.91667L51.4167 18.0833C52.0278 18.6944 52.5 19.4033 52.8333 20.21C53.1667 21.0167 53.3333 21.8633 53.3333 22.75V36.6667C53.3333 37.6111 53.0133 38.4033 52.3733 39.0433C51.7333 39.6833 50.9422 40.0022 50 40C49.0578 39.9978 48.2667 39.6778 47.6267 39.04C46.9867 38.4022 46.6667 37.6111 46.6667 36.6667V23.3333H33.3333C32.3889 23.3333 31.5978 23.0133 30.96 22.3733C30.3222 21.7333 30.0022 20.9422 30 20V6.66667H6.66667V60H33.3333C34.2778 60 35.07 60.32 35.71 60.96C36.35 61.6 36.6689 62.3911 36.6667 63.3333C36.6644 64.2756 36.3444 65.0678 35.7067 65.71C35.0689 66.3522 34.2778 66.6711 33.3333 66.6667H6.66667ZM50 58.0833V62.1667C50 63.1111 49.68 63.9033 49.04 64.5433C48.4 65.1833 47.6089 65.5022 46.6667 65.5C45.7244 65.4978 44.9333 65.1789 44.2933 64.5433C43.6533 63.9078 43.3333 63.1156 43.3333 62.1667V50C43.3333 49.0556 43.6533 48.2644 44.2933 47.6267C44.9333 46.9889 45.7244 46.6689 46.6667 46.6667H58.8333C59.7778 46.6667 60.57 46.9867 61.21 47.6267C61.85 48.2667 62.1689 49.0578 62.1667 50C62.1644 50.9422 61.8456 51.7344 61.21 52.3767C60.5744 53.0189 59.7822 53.3378 58.8333 53.3333H54.6667L62.1667 60.8333C62.7778 61.4444 63.0833 62.2089 63.0833 63.1267C63.0833 64.0444 62.7778 64.8356 62.1667 65.5C61.5 66.1667 60.7089 66.5 59.7933 66.5C58.8778 66.5 58.0856 66.1667 57.4167 65.5L50 58.0833Z" fill="white"/>
</svg>
