<?xml version="1.0" encoding="UTF-8" standalone="no"?><svg width="50" height="52" viewBox="0 0 50 52" fill="none" xmlns="http://www.w3.org/2000/svg">
<g clip-path="url(#clip0_594_4387)">
<path d="M24.4759 4.36458C20.8718 4.31137 17.9608 7.10171 17.8803 10.6201C17.8388 12.4345 18.5902 13.7492 19.5999 15.1016C20.4851 16.2878 21.1327 16.4098 21.4948 18.1826" stroke="white" stroke-width="0.735873" stroke-linejoin="round"/>
<path d="M24.4758 4.36458C28.0799 4.31137 30.991 7.10171 31.0714 10.6201C31.113 12.4345 30.3615 13.7492 29.3518 15.1016C28.4667 16.2878 27.688 16.4098 27.3259 18.1826" stroke="white" stroke-width="0.735873" stroke-linejoin="round"/>
<path d="M27.3273 18.1827H27.3066L21.5896 18.184" stroke="white" stroke-width="0.735873" stroke-linejoin="round"/>
<path d="M24.4758 22.546H26.006L27.3272 20.3643V18.1827" stroke="white" stroke-width="0.735873" stroke-linejoin="round"/>
<path d="M26.5071 7.80127C27.4 8.30872 28.0424 9.14193 28.2319 10.1166" stroke="white" stroke-width="0.735873" stroke-linejoin="round"/>
<path d="M21.4934 18.1827V20.3643L22.9457 22.546H24.4096" stroke="white" stroke-width="0.735873" stroke-linejoin="round"/>
<path d="M24.4097 -6.10352e-05V1.45481" stroke="white" stroke-width="0.735873" stroke-linejoin="round"/>
<path d="M16.6772 3.19525L17.7077 4.22444" stroke="white" stroke-width="0.735873" stroke-linejoin="round"/>
<path d="M13.4729 10.9096H14.9317" stroke="white" stroke-width="0.735873" stroke-linejoin="round"/>
<path d="M16.6772 18.6239L17.7077 17.5947" stroke="white" stroke-width="0.735873" stroke-linejoin="round"/>
<path d="M32.1435 18.6239L31.113 17.5947" stroke="white" stroke-width="0.735873" stroke-linejoin="round"/>
<path d="M35.3466 10.9096H33.8892" stroke="white" stroke-width="0.735873" stroke-linejoin="round"/>
<path d="M32.1435 3.19525L31.113 4.22444" stroke="white" stroke-width="0.735873" stroke-linejoin="round"/>
<path d="M10.3775 35.9072C12.6834 35.9072 14.5527 34.0379 14.5527 31.7321C14.5527 29.4262 12.6834 27.5569 10.3775 27.5569C8.07167 27.5569 6.20239 29.4262 6.20239 31.7321C6.20239 34.0379 8.07167 35.9072 10.3775 35.9072Z" stroke="white" stroke-width="0.735873" stroke-linejoin="round"/>
<path d="M8.70721 41.7527L10.3931 46.2471C10.8863 47.5618 12.1426 48.4326 13.5468 48.4326H19.4585C20.4383 48.4326 21.2326 47.6384 21.2326 46.6585C21.2326 45.7643 20.5668 45.0089 19.6791 44.8986L15.1133 44.3276C14.7772 44.2861 14.5007 44.0485 14.4125 43.7215C14.1399 42.7092 13.5118 40.5055 12.8823 39.2479C12.0478 37.5775 11.212 35.9072 8.28931 35.9072C4.53207 35.9072 3.69626 38.412 2.86176 41.7527C2.02725 45.0933 0.356934 51.7733 0.356934 51.7733" stroke="white" stroke-width="0.735873" stroke-linejoin="round"/>
<path d="M10.3775 46.7623L9.54688 51.7732" stroke="white" stroke-width="0.735873" stroke-linejoin="round"/>
<path d="M38.5781 46.7623L39.6034 51.7732" stroke="white" stroke-width="0.735873" stroke-linejoin="round"/>
<path d="M16.2229 48.4326H24.5732" stroke="white" stroke-width="0.735873" stroke-linejoin="round"/>
<path d="M38.7689 35.9072C41.0748 35.9072 42.944 34.0379 42.944 31.7321C42.944 29.4262 41.0748 27.5569 38.7689 27.5569C36.463 27.5569 34.5938 29.4262 34.5938 31.7321C34.5938 34.0379 36.463 35.9072 38.7689 35.9072Z" stroke="white" stroke-width="0.735873" stroke-linejoin="round"/>
<path d="M24.5733 35.9072C26.8792 35.9072 28.7485 34.0379 28.7485 31.7321C28.7485 29.4262 26.8792 27.5569 24.5733 27.5569C22.2675 27.5569 20.3982 29.4262 20.3982 31.7321C20.3982 34.0379 22.2675 35.9072 24.5733 35.9072Z" stroke="white" stroke-width="0.735873" stroke-linejoin="round"/>
<path d="M40.4392 41.7527L38.7533 46.2471C38.2602 47.5618 37.0039 48.4326 35.5996 48.4326H29.688C28.7081 48.4326 27.9138 47.6384 27.9138 46.6585C27.9138 45.7643 28.5796 45.0089 29.4673 44.8986L34.0331 44.3276C34.3693 44.2861 34.6457 44.0485 34.7339 43.7215C35.0065 42.7092 35.6346 40.5055 36.2641 39.2479C37.0986 37.5775 37.9344 35.9072 40.8571 35.9072C44.6144 35.9072 45.4502 38.412 46.2847 41.7527C47.1192 45.0933 48.7895 51.7733 48.7895 51.7733" stroke="white" stroke-width="0.735873" stroke-linejoin="round"/>
<path d="M32.9235 48.4326H24.5732" stroke="white" stroke-width="0.735873" stroke-linejoin="round"/>
<path d="M17.8933 44.2575V41.7527C17.8933 38.525 20.8848 35.9072 24.5733 35.9072C28.2617 35.9072 31.2532 38.5237 31.2532 41.7527V44.2575" stroke="white" stroke-width="0.735873" stroke-linejoin="round"/>
</g>
<defs>
<clipPath id="clip0_594_4387">
<rect width="49.1464" height="51.8615" fill="white"/>
</clipPath>
</defs>
</svg>
