<?xml version="1.0" encoding="UTF-8" standalone="no"?><svg width="52" height="52" viewBox="0 0 52 52" fill="none" xmlns="http://www.w3.org/2000/svg">
<g clip-path="url(#clip0_594_4480)">
<path d="M45.3572 31.1157C45.2121 31.1157 45.0689 31.061 44.9577 30.9499C44.7372 30.7294 44.7372 30.3714 44.9577 30.1509L46.94 28.1667L44.1983 25.4288C44.0363 25.2668 43.9873 25.0218 44.0777 24.8108L45.5739 21.2419C45.6624 21.0308 45.8678 20.8952 46.0958 20.8952H49.9511V15.3402H46.0958C45.8678 15.3402 45.6624 15.2026 45.5739 14.9935L44.0777 11.4246C43.9892 11.2136 44.0382 10.9686 44.2002 10.8065L46.9419 8.06863L43.0187 4.13984L40.2865 6.87209C40.1244 7.03414 39.8832 7.08125 39.6722 6.99457L36.0901 5.52669C35.8791 5.44001 35.7396 5.23274 35.7396 5.00285V1.13059H30.196V5.00285C30.196 5.23274 30.0565 5.43813 29.8455 5.52669L26.2597 6.99457C26.0486 7.07937 25.8074 7.03226 25.6454 6.87209L22.9169 4.13984L20.9365 6.12402C20.716 6.34449 20.358 6.34449 20.1375 6.12402C19.9171 5.90356 19.9171 5.54554 20.1375 5.32507L22.5174 2.93953C22.6229 2.83401 22.768 2.77371 22.9169 2.77371C23.0676 2.77371 23.2108 2.83401 23.3164 2.93953L26.1786 5.80557L29.0654 4.62411V0.565294C29.0654 0.252498 29.3179 0 29.6307 0H36.3049C36.6177 0 36.8702 0.252498 36.8702 0.565294V4.62411L39.7532 5.80557L42.6193 2.93953C42.7248 2.83401 42.8699 2.77371 43.0187 2.77371C43.1695 2.77371 43.3127 2.83401 43.4182 2.93953L48.1403 7.66916C48.3608 7.88962 48.3608 8.24764 48.1403 8.46811L45.2686 11.336L46.4727 14.2077H50.5183C50.8311 14.2077 51.0836 14.4602 51.0836 14.773V21.4586C51.0836 21.7714 50.8311 22.0239 50.5183 22.0239H46.4727L45.2686 24.8956L48.1403 27.7635C48.2458 27.869 48.3061 28.0141 48.3061 28.163C48.3061 28.3118 48.2477 28.4569 48.1403 28.5624L45.7604 30.948C45.6492 31.0592 45.5042 31.1138 45.3609 31.1138L45.3572 31.1157Z" fill="white"/>
<path d="M24.839 51.0799H17.0813C16.7685 51.0799 16.516 50.8274 16.516 50.5146V45.7379L13.0526 44.319L9.68161 47.69C9.57609 47.7955 9.43099 47.8558 9.28213 47.8558C9.13139 47.8558 8.98818 47.7955 8.88266 47.69L3.39553 42.1991C3.17507 41.9787 3.17507 41.6206 3.39553 41.4002L6.77411 38.0216L5.33073 34.5714H0.565294C0.252498 34.5714 0 34.3189 0 34.0061V26.2371C0 25.9243 0.252498 25.6718 0.565294 25.6718H5.33073L6.77411 22.2216L3.39553 18.8431C3.17507 18.6226 3.17507 18.2646 3.39553 18.0441L8.88266 12.5532C9.0937 12.3403 9.47056 12.3403 9.68161 12.5532L13.0526 15.9242L16.516 14.5054V9.72862C16.516 9.41583 16.7685 9.16333 17.0813 9.16333H24.839C25.1518 9.16333 25.4043 9.41583 25.4043 9.72862V14.5054L28.8677 15.9242L32.2387 12.5532C32.3443 12.4477 32.4893 12.3874 32.6382 12.3874C32.789 12.3874 32.9322 12.4477 33.0377 12.5532L38.5248 18.0441C38.7453 18.2646 38.7453 18.6226 38.5248 18.8431L35.1462 22.2216L36.5915 25.6718H41.3569C41.6697 25.6718 41.9222 25.9243 41.9222 26.2371V34.0061C41.9222 34.3189 41.6697 34.5714 41.3569 34.5714H36.5915L35.1462 38.0216L38.5248 41.4002C38.7453 41.6206 38.7453 41.9787 38.5248 42.1991L33.0377 47.69C32.8266 47.9011 32.4498 47.9029 32.2387 47.69L28.8677 44.319L25.4043 45.7379V50.5146C25.4043 50.8274 25.1518 51.0799 24.839 51.0799ZM17.6466 49.9493H24.2737V45.3572C24.2737 45.1273 24.4132 44.922 24.6242 44.8334L28.7867 43.1281C28.9977 43.0414 29.2389 43.0904 29.401 43.2525L32.6382 46.4897L37.3264 41.7978L34.0778 38.5492C33.9158 38.3872 33.8668 38.1422 33.9553 37.9312L35.6908 33.7838C35.7794 33.5727 35.9847 33.4371 36.2127 33.4371H40.7898V26.7986H36.2127C35.9847 26.7986 35.7794 26.6611 35.6908 26.4519L33.9553 22.3045C33.8668 22.0935 33.9158 21.8485 34.0778 21.6865L37.3264 18.4379L32.6382 13.746L29.401 16.9832C29.2389 17.1434 28.9977 17.1924 28.7867 17.1076L24.6242 15.4023C24.4113 15.3156 24.2737 15.1083 24.2737 14.8785V10.2864H17.6466V14.8785C17.6466 15.1083 17.5072 15.3137 17.2961 15.4023L13.1337 17.1076C12.9226 17.1924 12.6814 17.1453 12.5194 16.9832L9.28213 13.746L4.59396 18.4379L7.84063 21.6865C8.00268 21.8485 8.05167 22.0935 7.96311 22.3045L6.22766 26.4519C6.1391 26.663 5.93371 26.7986 5.7057 26.7986H1.13059V33.4371H5.70759C5.93559 33.4371 6.14098 33.5746 6.22954 33.7838L7.965 37.9312C8.05356 38.1422 8.00457 38.3872 7.84252 38.5492L4.59584 41.7978L9.28402 46.4897L12.5213 43.2525C12.6833 43.0904 12.9245 43.0433 13.1356 43.1281L17.298 44.8334C17.5109 44.9201 17.6485 45.1273 17.6485 45.3572V49.9493H17.6466Z" fill="white"/>
<path d="M20.9555 40.1283C15.4364 40.1283 10.946 35.638 10.946 30.1189C10.946 24.5997 15.4364 20.1094 20.9555 20.1094C26.4747 20.1094 30.965 24.5997 30.965 30.1189C30.965 35.638 26.4747 40.1283 20.9555 40.1283ZM20.9555 21.2381C16.0601 21.2381 12.0766 25.2215 12.0766 30.117C12.0766 35.0124 16.0601 38.9959 20.9555 38.9959C25.851 38.9959 29.8344 35.0124 29.8344 30.117C29.8344 25.2215 25.851 21.2381 20.9555 21.2381Z" fill="white"/>
</g>
<defs>
<clipPath id="clip0_594_4480">
<rect width="51.08" height="51.08" fill="white"/>
</clipPath>
</defs>
</svg>
