<?xml version="1.0" encoding="UTF-8" standalone="no"?><svg width="144" height="144" viewBox="0 0 144 144" fill="none" xmlns="http://www.w3.org/2000/svg">
<path d="M84 139.2V127.2C95.7 127.2 105.626 123.126 113.778 114.978C121.93 106.83 126.004 96.904 126 85.2H138C138 92.7 136.576 99.7259 133.728 106.278C130.88 112.83 127.03 118.53 122.178 123.378C117.326 128.226 111.626 132.076 105.078 134.928C98.53 137.78 91.504 139.204 84 139.2ZM84 115.2V103.2C89 103.2 93.25 101.45 96.75 97.95C100.25 94.45 102 90.2 102 85.2H114C114 93.5 111.074 100.576 105.222 106.428C99.37 112.28 92.296 115.204 84 115.2ZM33.3 135.45C31.8 135.45 30.3 135.15 28.8 134.55C27.3 133.95 25.95 133.1 24.75 132L3.45 110.7C2.35 109.5 1.5 108.15 0.9 106.65C0.3 105.15 0 103.65 0 102.15C0 100.55 0.3 99.0239 0.9 97.5719C1.5 96.1199 2.35 94.846 3.45 93.75L22.5 74.7C24.8 72.3999 27.65 71.226 31.05 71.1779C34.45 71.13 37.3 72.254 39.6 74.55L47.1 82.05L51.3 77.85L43.8 70.35C41.5 68.05 40.35 65.25 40.35 61.95C40.35 58.65 41.5 55.85 43.8 53.55L52.35 45C54.65 42.7 57.476 41.55 60.828 41.55C64.18 41.55 67.004 42.7 69.3 45L76.8 52.5L81 48.3L73.5 40.8C71.2 38.5 70.05 35.676 70.05 32.328C70.05 28.98 71.2 26.1539 73.5 23.85L92.55 4.79995C93.75 3.59995 95.1 2.69995 96.6 2.09995C98.1 1.49995 99.6 1.19995 101.1 1.19995C102.6 1.19995 104.076 1.49995 105.528 2.09995C106.98 2.69995 108.304 3.59995 109.5 4.79995L130.8 26.1C132 27.2 132.876 28.476 133.428 29.928C133.98 31.38 134.254 32.904 134.25 34.5C134.25 36 133.976 37.5 133.428 39C132.88 40.5 132.004 41.85 130.8 43.05L111.75 62.1C109.45 64.4 106.626 65.55 103.278 65.55C99.93 65.55 97.104 64.4 94.8 62.1L87.3 54.6L83.1 58.8L90.6 66.3C92.9 68.6 94.026 71.426 93.978 74.778C93.93 78.13 92.754 80.9539 90.45 83.25L82.05 91.6499C79.75 93.95 76.926 95.1 73.578 95.1C70.23 95.1 67.404 93.95 65.1 91.6499L57.6 84.1499L53.4 88.35L60.9 95.85C63.2 98.15 64.326 101 64.278 104.4C64.23 107.8 63.054 110.65 60.75 112.95L41.7 132C40.6 133.1 39.324 133.95 37.872 134.55C36.42 135.15 34.896 135.45 33.3 135.45ZM33.3 123.6L39.6 117.3L18.3 96L12 102.3L33.3 123.6ZM46.05 110.85L52.35 104.55L31.05 83.25L24.75 89.55L46.05 110.85ZM103.35 53.55L109.65 47.25L88.35 25.95L82.05 32.25L103.35 53.55ZM116.1 40.8L122.4 34.5L101.1 13.2L94.8 19.5L116.1 40.8Z" fill="white"/>
</svg>
