<?xml version="1.0" encoding="UTF-8" standalone="no"?><svg width="49" height="49" viewBox="0 0 49 49" fill="none" xmlns="http://www.w3.org/2000/svg">
<g clip-path="url(#clip0_594_4426)">
<path d="M42.1096 39.466C45.6255 35.3462 47.7526 30.0062 47.7526 24.166" stroke="white" stroke-width="1.15299" stroke-linecap="round" stroke-linejoin="round"/>
<path d="M47.7526 24.1639C47.7526 18.3237 45.6255 12.9837 42.1096 8.86389" stroke="white" stroke-width="1.15299" stroke-linecap="round" stroke-linejoin="round"/>
<path d="M6.21862 8.86389C2.70475 12.9837 0.575684 18.3237 0.575684 24.1639" stroke="white" stroke-width="1.15299" stroke-linecap="round" stroke-linejoin="round"/>
<path d="M24.1641 0.575439C31.3504 0.575439 37.7824 3.79446 42.1096 8.86395" stroke="white" stroke-width="1.15299" stroke-linecap="round" stroke-linejoin="round"/>
<path d="M0.575684 24.1639C0.575684 30.0041 2.70272 35.3441 6.21862 39.4639" stroke="white" stroke-width="1.15299" stroke-linecap="round" stroke-linejoin="round"/>
<path d="M6.21851 39.4659C10.5458 44.5354 16.9777 47.7545 24.1641 47.7545" stroke="white" stroke-width="1.15299" stroke-linecap="round" stroke-linejoin="round"/>
<path d="M42.1096 39.4659C37.7824 44.5354 31.3504 47.7545 24.1641 47.7545" stroke="white" stroke-width="1.15299" stroke-linecap="round" stroke-linejoin="round"/>
<path d="M24.1641 0.575439C16.9777 0.575439 10.5458 3.79446 6.21851 8.86395" stroke="white" stroke-width="1.15299" stroke-linecap="round" stroke-linejoin="round"/>
<path d="M24.1641 16.8434V24.164" stroke="white" stroke-width="1.15299" stroke-linecap="round" stroke-linejoin="round"/>
<path d="M24.1641 0.575439V10.3362" stroke="white" stroke-width="1.15299" stroke-linecap="round" stroke-linejoin="round"/>
<path d="M24.1641 24.1639V34.976" stroke="white" stroke-width="1.15299" stroke-linecap="round" stroke-linejoin="round"/>
<path d="M24.1641 47.7525V34.9761" stroke="white" stroke-width="1.15299" stroke-linecap="round" stroke-linejoin="round"/>
<path d="M33.9248 24.1639H24.1641" stroke="white" stroke-width="1.15299" stroke-linecap="round" stroke-linejoin="round"/>
<path d="M40.4321 24.1639H47.7527" stroke="white" stroke-width="1.15299" stroke-linecap="round" stroke-linejoin="round"/>
<path d="M24.1641 24.1639H11.3877" stroke="white" stroke-width="1.15299" stroke-linecap="round" stroke-linejoin="round"/>
<path d="M0.575684 24.1639H11.3878" stroke="white" stroke-width="1.15299" stroke-linecap="round" stroke-linejoin="round"/>
<path d="M13.2483 11.902C12.0689 15.4748 11.3877 19.674 11.3877 24.1639" stroke="white" stroke-width="1.15299" stroke-linecap="round" stroke-linejoin="round"/>
<path d="M12.3963 33.3452C11.7497 30.5227 11.3877 27.4236 11.3877 24.1639" stroke="white" stroke-width="1.15299" stroke-linecap="round" stroke-linejoin="round"/>
<path d="M24.1641 0.575439C28.7882 0.575439 32.8369 5.11013 35.0798 11.902" stroke="white" stroke-width="1.15299" stroke-linecap="round" stroke-linejoin="round"/>
<path d="M35.0818 11.902C35.9745 14.6065 36.5805 17.671 36.8225 20.947" stroke="white" stroke-width="1.15299" stroke-linecap="round" stroke-linejoin="round"/>
<path d="M35.0818 36.4279C35.9745 33.7234 36.5805 30.6589 36.8225 27.3829" stroke="white" stroke-width="1.15299" stroke-linecap="round" stroke-linejoin="round"/>
<path d="M35.0818 36.428C32.8389 43.2198 28.7881 47.7545 24.166 47.7545" stroke="white" stroke-width="1.15299" stroke-linecap="round" stroke-linejoin="round"/>
<path d="M24.1641 47.7525C20.2781 47.7525 16.8008 44.5416 14.4583 39.4863" stroke="white" stroke-width="1.15299" stroke-linecap="round" stroke-linejoin="round"/>
<path d="M24.1641 0.575439C19.5399 0.575439 15.4912 5.11013 13.2483 11.902" stroke="white" stroke-width="1.15299" stroke-linecap="round" stroke-linejoin="round"/>
<path d="M6.21851 39.4659C7.4752 38.6688 8.92712 37.9672 10.5071 37.3572" stroke="white" stroke-width="1.15299" stroke-linecap="round" stroke-linejoin="round"/>
<path d="M35.0818 36.428C31.816 35.5027 28.1049 34.9761 24.166 34.9761" stroke="white" stroke-width="1.15299" stroke-linecap="round" stroke-linejoin="round"/>
<path d="M35.0818 36.428C37.7721 37.1905 40.1553 38.2256 42.1116 39.466" stroke="white" stroke-width="1.15299" stroke-linecap="round" stroke-linejoin="round"/>
<path d="M16.752 35.6268C19.0844 35.2079 21.5734 34.9761 24.164 34.9761" stroke="white" stroke-width="1.15299" stroke-linecap="round" stroke-linejoin="round"/>
<path d="M13.2483 11.902C15.6092 12.571 18.2039 13.0265 20.9471 13.2298" stroke="white" stroke-width="1.15299" stroke-linecap="round" stroke-linejoin="round"/>
<path d="M35.0818 11.9019C37.7721 11.1394 40.1553 10.1043 42.1116 8.86389" stroke="white" stroke-width="1.15299" stroke-linecap="round" stroke-linejoin="round"/>
<path d="M6.21851 8.86389C8.17269 10.1043 10.558 11.1394 13.2483 11.9019" stroke="white" stroke-width="1.15299" stroke-linecap="round" stroke-linejoin="round"/>
<path d="M27.3831 13.2319C30.1262 13.0286 32.723 12.571 35.0819 11.9041" stroke="white" stroke-width="1.15299" stroke-linecap="round" stroke-linejoin="round"/>
<path d="M16.752 35.6267C16.8069 35.8646 16.8435 36.1107 16.8435 36.3649C16.8435 37.8595 15.8309 39.104 14.4583 39.4863" stroke="white" stroke-width="1.15299" stroke-linecap="round" stroke-linejoin="round"/>
<path d="M10.5071 37.3572C10.928 38.6667 12.142 39.6205 13.5899 39.6205C13.8928 39.6205 14.1796 39.5655 14.4582 39.4883" stroke="white" stroke-width="1.15299" stroke-linecap="round" stroke-linejoin="round"/>
<path d="M16.752 35.6268C16.4165 34.187 15.1313 33.1113 13.5899 33.1113C13.1669 33.1113 12.7663 33.1988 12.3962 33.3452" stroke="white" stroke-width="1.15299" stroke-linecap="round" stroke-linejoin="round"/>
<path d="M12.3964 33.3451C11.1925 33.8209 10.3364 34.9902 10.3364 36.3648C10.3364 36.7126 10.4056 37.042 10.5072 37.3551" stroke="white" stroke-width="1.15299" stroke-linecap="round" stroke-linejoin="round"/>
<path d="M33.9248 24.1639C33.9248 22.4883 35.1957 21.1258 36.8225 20.9469" stroke="white" stroke-width="1.15299" stroke-linecap="round" stroke-linejoin="round"/>
<path d="M36.8225 27.383C36.9405 27.3952 37.0564 27.4196 37.1784 27.4196C38.976 27.4196 40.432 25.9636 40.432 24.166" stroke="white" stroke-width="1.15299" stroke-linecap="round" stroke-linejoin="round"/>
<path d="M36.8225 27.383C35.1957 27.2041 33.9248 25.8396 33.9248 24.166" stroke="white" stroke-width="1.15299" stroke-linecap="round" stroke-linejoin="round"/>
<path d="M40.432 24.164C40.432 22.3664 38.976 20.9104 37.1784 20.9104C37.0564 20.9104 36.9405 20.9328 36.8225 20.947" stroke="white" stroke-width="1.15299" stroke-linecap="round" stroke-linejoin="round"/>
<path d="M24.164 16.8434C22.3664 16.8434 20.9104 15.3874 20.9104 13.5898C20.9104 13.4657 20.9328 13.3498 20.947 13.2299" stroke="white" stroke-width="1.15299" stroke-linecap="round" stroke-linejoin="round"/>
<path d="M24.164 10.3362C22.4904 10.3362 21.128 11.6051 20.947 13.2298" stroke="white" stroke-width="1.15299" stroke-linecap="round" stroke-linejoin="round"/>
<path d="M27.383 13.2319C27.3972 13.3519 27.4196 13.4678 27.4196 13.5919C27.4196 15.3895 25.9636 16.8454 24.166 16.8454" stroke="white" stroke-width="1.15299" stroke-linecap="round" stroke-linejoin="round"/>
<path d="M27.383 13.2319C27.202 11.6072 25.8396 10.3383 24.166 10.3383" stroke="white" stroke-width="1.15299" stroke-linecap="round" stroke-linejoin="round"/>
</g>
<defs>
<clipPath id="clip0_594_4426">
<rect width="48.33" height="48.33" fill="white"/>
</clipPath>
</defs>
</svg>
