<?xml version="1.0" encoding="UTF-8" standalone="no"?><svg width="200" height="195" viewBox="0 0 200 195" fill="none" xmlns="http://www.w3.org/2000/svg">
<path d="M0 99.9167C0 85.9889 2.61297 72.9694 7.83892 60.8583C13.0649 48.7472 20.2165 38.1894 29.2937 29.1847C38.371 20.1801 48.9682 13.0649 61.0854 7.83892C73.2026 2.61297 86.1463 0 99.9167 0C113.687 0 126.631 2.61297 138.748 7.83892C150.865 13.0649 161.462 20.1801 170.54 29.1847C179.617 38.1894 186.771 48.7472 192.003 60.8583C197.236 72.9694 199.845 85.9889 199.833 99.9167H181.667C181.667 88.5625 179.511 77.9289 175.199 68.016C170.888 58.1031 165.02 49.4345 157.596 42.0104C150.172 34.5863 141.503 28.7578 131.59 24.525C121.677 20.2922 111.119 18.1727 99.9167 18.1667C88.7139 18.1606 78.153 20.2801 68.234 24.525C58.315 28.7699 49.6495 34.5984 42.2375 42.0104C34.8255 49.4224 28.9607 58.0909 24.6431 68.016C20.3255 77.9411 18.1667 88.5746 18.1667 99.9167H0ZM36.3333 99.9167C36.3333 82.0528 42.5403 66.9896 54.9542 54.7271C67.3681 42.4646 82.3556 36.3333 99.9167 36.3333C117.478 36.3333 132.465 42.4646 144.879 54.7271C157.293 66.9896 163.5 82.0528 163.5 99.9167H145.333C145.333 87.3514 140.904 76.6421 132.044 67.7889C123.185 58.9357 112.476 54.5061 99.9167 54.5C87.3574 54.4939 76.6482 58.9236 67.7889 67.7889C58.9296 76.6543 54.5 87.3635 54.5 99.9167H36.3333ZM72.6667 194.383L59.95 181.667L90.8333 150.783V120.808C86.7458 118.992 83.4516 116.191 80.9507 112.406C78.4497 108.622 77.2023 104.458 77.2083 99.9167C77.2083 93.5583 79.4035 88.184 83.7937 83.7937C88.184 79.4035 93.5583 77.2083 99.9167 77.2083C106.275 77.2083 111.649 79.4035 116.04 83.7937C120.43 88.184 122.625 93.5583 122.625 99.9167C122.625 104.458 121.375 108.622 118.874 112.406C116.373 116.191 113.081 118.992 109 120.808V150.783L139.883 181.667L127.167 194.383L99.9167 167.133L72.6667 194.383Z" fill="white"/>
</svg>
