<?xml version="1.0" encoding="UTF-8" standalone="no"?><svg width="36" height="36" viewBox="0 0 36 36" fill="none" xmlns="http://www.w3.org/2000/svg">
<circle cx="17.563" cy="17.563" r="17.563" fill="white"/>
<path d="M18 12.826C18.2422 12.826 18.4744 12.7298 18.6456 12.5586C18.8168 12.3874 18.913 12.1551 18.913 11.913C18.913 11.6709 18.8168 11.4386 18.6456 11.2674C18.4744 11.0962 18.2422 11 18 11C17.7579 11 17.5257 11.0962 17.3544 11.2674C17.1832 11.4386 17.087 11.6709 17.087 11.913C17.087 12.1551 17.1832 12.3874 17.3544 12.5586C17.5257 12.7298 17.7579 12.826 18 12.826ZM24.088 12.826C24.2079 12.826 24.3266 12.8024 24.4374 12.7565C24.5482 12.7106 24.6488 12.6434 24.7336 12.5586C24.8184 12.4738 24.8856 12.3732 24.9315 12.2624C24.9774 12.1516 25.001 12.0329 25.001 11.913C25.001 11.7931 24.9774 11.6744 24.9315 11.5636C24.8856 11.4528 24.8184 11.3522 24.7336 11.2674C24.6488 11.1826 24.5482 11.1154 24.4374 11.0695C24.3266 11.0236 24.2079 11 24.088 11C23.8459 11 23.6137 11.0962 23.4424 11.2674C23.2712 11.4386 23.175 11.6709 23.175 11.913C23.175 12.1551 23.2712 12.3874 23.4424 12.5586C23.6137 12.7298 23.8459 12.826 24.088 12.826ZM11.912 12.826C12.0319 12.826 12.1506 12.8024 12.2614 12.7565C12.3722 12.7106 12.4728 12.6434 12.5576 12.5586C12.6424 12.4738 12.7096 12.3732 12.7555 12.2624C12.8014 12.1516 12.825 12.0329 12.825 11.913C12.825 11.7931 12.8014 11.6744 12.7555 11.5636C12.7096 11.4528 12.6424 11.3522 12.5576 11.2674C12.4728 11.1826 12.3722 11.1154 12.2614 11.0695C12.1506 11.0236 12.0319 11 11.912 11C11.6699 11 11.4377 11.0962 11.2664 11.2674C11.0952 11.4386 10.999 11.6709 10.999 11.913C10.999 12.1551 11.0952 12.3874 11.2664 12.5586C11.4377 12.7298 11.6699 12.826 11.912 12.826ZM18 18.913C18.2422 18.913 18.4744 18.8168 18.6456 18.6456C18.8168 18.4744 18.913 18.2421 18.913 18C18.913 17.7579 18.8168 17.5256 18.6456 17.3544C18.4744 17.1832 18.2422 17.087 18 17.087C17.7579 17.087 17.5257 17.1832 17.3544 17.3544C17.1832 17.5256 17.087 17.7579 17.087 18C17.087 18.2421 17.1832 18.4744 17.3544 18.6456C17.5257 18.8168 17.7579 18.913 18 18.913ZM24.088 18.913C24.3302 18.913 24.5624 18.8168 24.7336 18.6456C24.9048 18.4744 25.001 18.2421 25.001 18C25.001 17.7579 24.9048 17.5256 24.7336 17.3544C24.5624 17.1832 24.3302 17.087 24.088 17.087C23.8459 17.087 23.6137 17.1832 23.4424 17.3544C23.2712 17.5256 23.175 17.7579 23.175 18C23.175 18.2421 23.2712 18.4744 23.4424 18.6456C23.6137 18.8168 23.8459 18.913 24.088 18.913ZM11.912 18.913C12.1542 18.913 12.3864 18.8168 12.5576 18.6456C12.7288 18.4744 12.825 18.2421 12.825 18C12.825 17.7579 12.7288 17.5256 12.5576 17.3544C12.3864 17.1832 12.1542 17.087 11.912 17.087C11.6699 17.087 11.4377 17.1832 11.2664 17.3544C11.0952 17.5256 10.999 17.7579 10.999 18C10.999 18.2421 11.0952 18.4744 11.2664 18.6456C11.4377 18.8168 11.6699 18.913 11.912 18.913ZM18 25C18.2422 25 18.4744 24.9038 18.6456 24.7326C18.8168 24.5614 18.913 24.3291 18.913 24.087C18.913 23.8449 18.8168 23.6126 18.6456 23.4414C18.4744 23.2702 18.2422 23.174 18 23.174C17.7579 23.174 17.5257 23.2702 17.3544 23.4414C17.1832 23.6126 17.087 23.8449 17.087 24.087C17.087 24.3291 17.1832 24.5614 17.3544 24.7326C17.5257 24.9038 17.7579 25 18 25ZM24.088 25C24.3302 25 24.5624 24.9038 24.7336 24.7326C24.9048 24.5614 25.001 24.3291 25.001 24.087C25.001 23.8449 24.9048 23.6126 24.7336 23.4414C24.5624 23.2702 24.3302 23.174 24.088 23.174C23.8459 23.174 23.6137 23.2702 23.4424 23.4414C23.2712 23.6126 23.175 23.8449 23.175 24.087C23.175 24.3291 23.2712 24.5614 23.4424 24.7326C23.6137 24.9038 23.8459 25 24.088 25ZM11.912 25C12.1542 25 12.3864 24.9038 12.5576 24.7326C12.7288 24.5614 12.825 24.3291 12.825 24.087C12.825 23.8449 12.7288 23.6126 12.5576 23.4414C12.3864 23.2702 12.1542 23.174 11.912 23.174C11.6699 23.174 11.4377 23.2702 11.2664 23.4414C11.0952 23.6126 10.999 23.8449 10.999 24.087C10.999 24.3291 11.0952 24.5614 11.2664 24.7326C11.4377 24.9038 11.6699 25 11.912 25Z" stroke="black" stroke-width="1.5" stroke-linecap="round" stroke-linejoin="round"/>
</svg>
