<?xml version="1.0" encoding="UTF-8" standalone="no"?><svg width="300" height="36" viewBox="0 0 300 36" fill="none" xmlns="http://www.w3.org/2000/svg">
<path d="M23.7598 30.5906L23.7598 5.54593L28.5708 5.54593L28.5708 15.6798L40.6154 15.6798L40.6154 5.54593L45.4264 5.54593L45.4264 30.5906L40.6154 30.5906L40.6154 19.7743L28.5708 19.7743L28.5708 30.5906L23.7598 30.5906ZM50.069 30.5906L50.069 12.4042L54.6752 12.4042L54.6752 30.5906L50.069 30.5906ZM52.3892 9.98163C50.7855 9.98163 49.6936 8.92388 49.6936 7.49081C49.6936 6.02362 50.7855 5 52.3892 5C53.9928 5 55.0847 6.02362 55.0847 7.49081C55.0847 8.92388 53.9928 9.98163 52.3892 9.98163ZM65.9327 31C62.3841 31 59.9616 29.1575 59.9616 25.0289L59.9616 16.2257L57.266 16.2257L57.266 12.916L59.9616 12.4724L59.9616 8.34383L64.5337 7.01312L64.5337 12.4042L69.2083 12.4042L69.2083 16.2257L64.5679 16.2257L64.5679 24.5171C64.5679 26.3596 65.4891 27.1444 66.9904 27.1444C67.7752 27.1444 68.5941 26.9396 69.2083 26.6667L69.2083 30.4541C68.3211 30.7612 67.161 31 65.9327 31ZM77.4527 31C73.5971 31 71.2428 28.8163 71.2428 25.5748C71.2428 22.1286 73.9383 20.5591 78.2034 19.8425L82.7073 19.126C82.6391 16.5328 81.3084 15.5774 78.8517 15.5774C76.8044 15.5774 74.6207 16.1916 72.7441 17.2152L72.7441 13.4961C74.5184 12.6089 76.8045 11.9947 79.3294 11.9947C84.2086 11.9947 87.2795 14.3832 87.2795 19.2283L87.2795 26.0866C87.2795 27.1785 87.6548 27.7585 88.7126 27.7585C89.122 27.7585 89.5656 27.6562 90.0092 27.5538L90.0092 30.5564C89.0879 30.8635 88.1666 31 87.3136 31C85.0958 31 83.8674 30.0787 83.2533 28.4068L82.8097 28.4068L80.626 30.4882C79.6365 30.8294 78.5446 31 77.4527 31ZM78.8176 27.4514C80.1824 27.4514 81.5131 27.0761 82.7073 26.3937L82.7073 22.0262L78.9541 22.6404C76.9068 23.0157 75.8832 23.6982 75.8832 25.1654C75.8832 26.6325 76.9068 27.4514 78.8176 27.4514ZM101.298 31C95.2584 31 91.3345 26.9396 91.3345 21.5144C91.3345 16.0551 95.2584 11.9947 101.298 11.9947C103.174 11.9947 104.88 12.3701 106.416 13.0866L106.416 17.0787C105.222 16.3963 103.686 15.8845 101.912 15.8845C98.2952 15.8845 96.0091 18 96.0091 21.5144C96.0091 25.0289 98.2952 27.1102 101.912 27.1102C103.652 27.1102 105.222 26.6325 106.416 25.916L106.416 29.9081C104.88 30.6247 103.174 31 101.298 31ZM109.714 30.5906L109.714 5.54593L114.32 5.54593L114.32 14.2808L114.661 14.2808L116.538 12.5066C117.493 12.2336 118.585 11.9947 119.814 11.9947C123.84 11.9947 126.604 14.4856 126.604 18.9213L126.604 30.5906L121.997 30.5906L121.997 19.6719C121.997 16.9423 120.633 15.8845 118.346 15.8845C116.777 15.8845 115.344 16.3963 114.32 16.9764L114.32 30.5906L109.714 30.5906ZM130.472 30.5905L130.472 12.4042L135.079 12.4042L135.079 30.5905L130.472 30.5905ZM132.793 9.98163C131.189 9.98163 130.097 8.92388 130.097 7.49081C130.097 6.02362 131.189 5 132.793 5C134.396 5 135.488 6.02362 135.488 7.49081C135.488 8.92388 134.396 9.98163 132.793 9.98163ZM156.037 30.5905L146.858 5.54593L152.113 5.54593L158.801 25.1312L159.074 25.1312L165.932 5.54593L171.016 5.54593L161.769 30.5905L156.037 30.5905ZM176.483 31C172.627 31 170.273 28.8163 170.273 25.5748C170.273 22.1286 172.969 20.5591 177.234 19.8425L181.738 19.126C181.669 16.5328 180.339 15.5774 177.882 15.5774C175.835 15.5774 173.651 16.1916 171.774 17.2152L171.774 13.4961C173.549 12.6089 175.835 11.9947 178.36 11.9947C183.239 11.9947 186.31 14.3832 186.31 19.2283L186.31 26.0866C186.31 27.1785 186.685 27.7585 187.743 27.7585C188.152 27.7585 188.596 27.6562 189.04 27.5538L189.04 30.5564C188.118 30.8635 187.197 31 186.344 31C184.126 31 182.898 30.0787 182.284 28.4068L181.84 28.4068L179.656 30.4882C178.667 30.8294 177.575 31 176.483 31ZM177.848 27.4514C179.213 27.4514 180.544 27.0761 181.738 26.3937L181.738 22.0262L177.984 22.6404C175.937 23.0157 174.914 23.6982 174.914 25.1654C174.914 26.6325 175.937 27.4514 177.848 27.4514ZM191.584 30.5905L191.584 12.4042L195.337 12.4042L195.746 14.5879L196.156 14.5879L198.339 12.5066C199.261 12.2336 200.353 11.9947 201.615 11.9947C205.71 11.9947 208.473 14.4856 208.473 18.9213L208.473 30.5905L203.867 30.5905L203.867 19.6719C203.867 16.9764 202.502 15.8845 200.182 15.8845C198.647 15.8845 197.213 16.3963 196.19 16.9423L196.19 30.5905L191.584 30.5905ZM219.376 31C215.827 31 213.405 29.1575 213.405 25.0289L213.405 16.2257L210.709 16.2257L210.709 12.916L213.405 12.4724L213.405 8.34383L217.977 7.01312L217.977 12.4042L222.651 12.4042L222.651 16.2257L218.011 16.2257L218.011 24.5171C218.011 26.3596 218.932 27.1444 220.434 27.1444C221.218 27.1444 222.037 26.9396 222.651 26.6667L222.651 30.4541C221.764 30.7611 220.604 31 219.376 31ZM230.896 31C227.04 31 224.686 28.8163 224.686 25.5748C224.686 22.1286 227.381 20.5591 231.646 19.8425L236.15 19.126C236.082 16.5328 234.751 15.5774 232.295 15.5774C230.247 15.5774 228.064 16.1916 226.187 17.2152L226.187 13.4961C227.961 12.6089 230.247 11.9947 232.772 11.9947C237.652 11.9947 240.722 14.3832 240.722 19.2283L240.722 26.0866C240.722 27.1785 241.098 27.7585 242.156 27.7585C242.565 27.7585 243.009 27.6562 243.452 27.5538L243.452 30.5564C242.531 30.8635 241.61 31 240.757 31C238.539 31 237.31 30.0787 236.696 28.4068L236.253 28.4068L234.069 30.4882C233.079 30.8294 231.988 31 230.896 31ZM232.26 27.4514C233.625 27.4514 234.956 27.0761 236.15 26.3937L236.15 22.0262L232.397 22.6404C230.35 23.0157 229.326 23.6982 229.326 25.1654C229.326 26.6325 230.35 27.4514 232.26 27.4514ZM245.997 30.5905L245.997 12.4042L249.75 12.4042L250.16 14.5879L250.535 14.5879L252.719 12.5748C253.777 12.2336 255.38 12.0289 256.609 11.9947L256.609 16.1234C254.425 16.1916 252.48 16.4987 250.603 17.0446L250.603 30.5905L245.997 30.5905ZM263.684 31C259.828 31 257.474 28.8163 257.474 25.5748C257.474 22.1286 260.169 20.5591 264.434 19.8425L268.938 19.126C268.87 16.5328 267.539 15.5774 265.083 15.5774C263.035 15.5774 260.852 16.1916 258.975 17.2152L258.975 13.4961C260.749 12.6089 263.035 11.9947 265.56 11.9947C270.44 11.9947 273.51 14.3832 273.51 19.2283L273.51 26.0866C273.51 27.1785 273.886 27.7585 274.943 27.7585C275.353 27.7585 275.797 27.6562 276.24 27.5538L276.24 30.5564C275.319 30.8635 274.398 31 273.545 31C271.327 31 270.098 30.0787 269.484 28.4068L269.041 28.4068L266.857 30.4882C265.867 30.8294 264.776 31 263.684 31ZM265.048 27.4514C266.413 27.4514 267.744 27.0761 268.938 26.3937L268.938 22.0262L265.185 22.6404C263.138 23.0157 262.114 23.6982 262.114 25.1654C262.114 26.6325 263.138 27.4514 265.048 27.4514Z" fill="white"/>
</svg>
