<?xml version="1.0" encoding="UTF-8" standalone="no"?><svg width="50" height="53" viewBox="0 0 50 53" fill="none" xmlns="http://www.w3.org/2000/svg">
<g clip-path="url(#clip0_594_4270)">
<path d="M28.6063 29.8883H21.2657V24.5194C22.1945 24.2109 22.9289 23.4781 23.2359 22.5493H28.6048V29.8899L28.6063 29.8883Z" stroke="white" stroke-width="0.874757" stroke-linejoin="round"/>
<path d="M32.8335 22.1003H35.035" stroke="white" stroke-width="0.874757" stroke-linejoin="round"/>
<path d="M32.8335 26.218H35.035" stroke="white" stroke-width="0.874757" stroke-linejoin="round"/>
<path d="M32.8335 30.3373H35.035" stroke="white" stroke-width="0.874757" stroke-linejoin="round"/>
<path d="M14.965 22.1003H17.1665" stroke="white" stroke-width="0.874757" stroke-linejoin="round"/>
<path d="M14.965 26.218H17.1665" stroke="white" stroke-width="0.874757" stroke-linejoin="round"/>
<path d="M14.965 30.3373H17.1665" stroke="white" stroke-width="0.874757" stroke-linejoin="round"/>
<path d="M20.8168 18.4624V16.2609" stroke="white" stroke-width="0.874757" stroke-linejoin="round"/>
<path d="M24.9359 18.4624V16.2609" stroke="white" stroke-width="0.874757" stroke-linejoin="round"/>
<path d="M29.0552 18.4624V16.2609" stroke="white" stroke-width="0.874757" stroke-linejoin="round"/>
<path d="M20.8168 36.3309V34.1294" stroke="white" stroke-width="0.874757" stroke-linejoin="round"/>
<path d="M24.9359 36.3309V34.1294" stroke="white" stroke-width="0.874757" stroke-linejoin="round"/>
<path d="M29.0552 36.3309V34.1294" stroke="white" stroke-width="0.874757" stroke-linejoin="round"/>
<path d="M25.0008 42.4973C33.949 42.4973 41.203 35.2433 41.203 26.2951C41.203 17.3468 33.949 10.0928 25.0008 10.0928C16.0525 10.0928 8.79846 17.3468 8.79846 26.2951C8.79846 35.2433 16.0525 42.4973 25.0008 42.4973Z" stroke="white" stroke-width="0.874757" stroke-linejoin="round"/>
<path d="M48.5467 18.1786L49.5634 17.1233L45.2266 9.60995L43.8042 9.9617C40.896 10.6822 37.8413 10.1869 35.251 8.68119C35.2217 8.66422 35.1924 8.64725 35.1631 8.63028C32.5542 7.1307 30.5795 4.7363 29.7448 1.84513L29.3391 0.43811H20.664L20.2567 1.84821C19.4236 4.73476 17.4566 7.1307 14.8508 8.62719C14.8385 8.63491 14.8246 8.64262 14.8122 8.64879C14.7999 8.65651 14.786 8.66422 14.7737 8.67193C12.1756 10.1792 9.11629 10.6868 6.20043 9.96478L4.77645 9.61149L0.436601 17.1233L1.45175 18.1786C3.53913 20.3462 4.62525 23.2543 4.61908 26.2643C4.61908 26.2982 4.61908 26.3322 4.61908 26.3661C4.62834 29.3622 3.52988 32.2549 1.45175 34.4132L0.435059 35.4685L4.77336 42.9818L6.1958 42.6301C9.10395 41.9096 12.1587 42.4064 14.749 43.9121C14.7783 43.9291 14.8076 43.9461 14.8369 43.9631C17.4458 45.4626 19.4205 47.857 20.2552 50.7482L20.6609 52.1552H29.336L29.7433 50.7451C30.5764 47.8586 32.545 45.4626 35.1492 43.9661C35.1615 43.9584 35.1754 43.9507 35.1877 43.943C35.2001 43.9353 35.214 43.9276 35.2263 43.9199C37.8244 42.4126 40.8837 41.905 43.7996 42.627L45.2235 42.9803L49.5603 35.467L48.5451 34.4117C46.4578 32.2441 45.3716 29.3359 45.3778 26.3275C45.3778 26.2936 45.3778 26.2596 45.3778 26.2257C45.3686 23.2296 46.467 20.3369 48.5451 18.1786H48.5467Z" stroke="white" stroke-width="0.874757" stroke-linejoin="round"/>
</g>
<defs>
<clipPath id="clip0_594_4270">
<rect width="50" height="52.5919" fill="white"/>
</clipPath>
</defs>
</svg>
