<?xml version="1.0" encoding="UTF-8" standalone="no"?><svg width="70" height="60" viewBox="0 0 70 60" fill="none" xmlns="http://www.w3.org/2000/svg">
<path d="M30 23.3333V0H66.6667V23.3333H30ZM0 53.3333V30H33.3333V53.3333H0ZM0 23.3333V0H23.3333V23.3333H0ZM36.6667 16.6667H60V6.66667H36.6667V16.6667ZM6.66667 46.6667H26.6667V36.6667H6.66667V46.6667ZM6.66667 16.6667H16.6667V6.66667H6.66667V16.6667ZM40 60V49.75L58.4167 31.4167C58.9167 30.9167 59.4722 30.5556 60.0833 30.3333C60.6944 30.1111 61.3056 30 61.9167 30C62.5833 30 63.2222 30.1256 63.8333 30.3767C64.4444 30.6278 65 31.0022 65.5 31.5L68.5833 34.5833C69.0833 35.0833 69.4444 35.6389 69.6667 36.25C69.8889 36.8611 70 37.4722 70 38.0833C70 38.6944 69.8889 39.32 69.6667 39.96C69.4444 40.6 69.0833 41.1689 68.5833 41.6667L50.25 60H40ZM45 55H48.1667L58.25 44.8333L56.75 43.25L55.1667 41.75L45 51.8333V55ZM56.75 43.25L55.1667 41.75L58.25 44.8333L56.75 43.25Z" fill="white"/>
</svg>
