<?xml version="1.0" encoding="UTF-8" standalone="no"?><svg width="1338" height="335" viewBox="0 0 1338 335" fill="none" xmlns="http://www.w3.org/2000/svg">
<g clip-path="url(#clip0_956_5134)">
<path d="M130.025 22.8514H221.005L349.495 330.01H253.335L172.096 126.06L118.42 259.902H182.25L207.741 330.01H0.0839844L130.025 22.8514ZM456.64 86.5858C465.966 86.5858 476.121 87.4082 486.276 89.8753V13.8052H566.686V316.441C548.241 324.665 508.451 334.739 468.66 334.739C396.54 334.739 334.574 294.031 334.574 212.821C334.574 131.611 394.26 86.7914 456.64 86.7914V86.5858ZM466.795 268.949C474.256 268.949 480.266 267.509 486.276 265.659V154.227C480.266 151.965 474.256 150.937 466.38 150.937C440.061 150.937 415.606 170.263 415.606 210.971C415.606 251.679 440.475 268.743 466.795 268.743V268.949ZM709.891 86.5858C776.83 86.5858 833.822 131.406 833.822 210.354C833.822 289.302 777.037 334.122 709.891 334.122C642.744 334.122 585.545 289.302 585.545 210.354C585.545 131.406 641.915 86.5858 709.891 86.5858ZM709.891 267.715C732.895 267.715 754.241 249.417 754.241 210.354C754.241 171.291 732.895 152.993 709.891 152.993C686.887 152.993 665.955 171.291 665.955 210.354C665.955 249.417 685.851 267.715 709.891 267.715ZM853.096 13.8052H933.92V89.8753C943.661 88.025 953.816 86.5858 963.97 86.5858C1026.77 86.5858 1085 127.294 1085 207.064C1085 291.358 1023.03 334.122 949.671 334.122C918.17 334.122 877.965 327.749 853.096 316.235V13.5996V13.8052ZM951.536 268.537C979.306 268.537 1004.59 248.8 1004.59 208.092C1004.59 170.057 979.721 152.171 952.779 152.171C945.319 152.171 939.309 152.993 933.92 155.46V265.453C938.48 267.304 944.49 268.743 951.536 268.743V268.537ZM1222.2 86.5858C1282.71 86.5858 1338.25 125.032 1338.25 202.541C1338.25 213.027 1337.84 223.101 1336.39 233.175H1185.72C1194.01 260.314 1218.05 273.06 1248.1 273.06C1272.56 273.06 1295.14 267.098 1320.64 256.202V317.263C1297.01 329.188 1268.82 334.122 1239.81 334.122C1163.13 334.122 1103.44 288.275 1103.44 210.354C1103.44 132.434 1157.54 86.5858 1222.2 86.5858ZM1262.81 183.215C1258.67 157.105 1241.05 146.62 1223.02 146.62C1204.99 146.62 1190.28 157.722 1184.27 183.215H1262.81Z" fill="#EB1000"/>
</g>
<defs>
<clipPath id="clip0_956_5134">
<rect width="1338" height="335" fill="white"/>
</clipPath>
</defs>
</svg>
