<?xml version="1.0" encoding="UTF-8" standalone="no"?><svg width="50" height="74" viewBox="0 0 50 74" fill="none" xmlns="http://www.w3.org/2000/svg">
<path d="M6.66667 73.3333C4.83333 73.3333 3.26444 72.6811 1.96 71.3767C0.655555 70.0722 0.00222222 68.5022 0 66.6667V6.66667C0 4.83333 0.653333 3.26444 1.96 1.96C3.26667 0.655556 4.83556 0.00222222 6.66667 0H40C41.8333 0 43.4033 0.653334 44.71 1.96C46.0167 3.26667 46.6689 4.83556 46.6667 6.66667V17C47.6667 17.3889 48.4722 18 49.0833 18.8333C49.6944 19.6667 50 20.6111 50 21.6667V28.3333C50 29.3889 49.6944 30.3333 49.0833 31.1667C48.4722 32 47.6667 32.6111 46.6667 33V66.6667C46.6667 68.5 46.0144 70.07 44.71 71.3767C43.4056 72.6833 41.8356 73.3356 40 73.3333H6.66667ZM20 50H26.6667L27.1667 45.8333C27.6111 45.6667 28 45.4867 28.3333 45.2933C28.6667 45.1 29 44.8356 29.3333 44.5L33.1667 46.1667L36.5 40.3333L33.1667 37.8333C33.2778 37.3889 33.3333 36.9722 33.3333 36.5833C33.3333 36.1944 33.2778 35.7778 33.1667 35.3333L36.5 32.8333L33 27.1667L29.3333 28.6667C29 28.3889 28.6667 28.1667 28.3333 28C28 27.8333 27.6111 27.6667 27.1667 27.5L26.6667 23.3333H20L19.5 27.5C19.0556 27.6667 18.6667 27.8333 18.3333 28C18 28.1667 17.6667 28.3889 17.3333 28.6667L13.6667 27.1667L10.1667 32.8333L13.5 35.3333C13.3889 35.7778 13.3333 36.1944 13.3333 36.5833C13.3333 36.9722 13.3889 37.3889 13.5 37.8333L10.1667 40.3333L13.5 46.1667L17.3333 44.5C17.6667 44.8333 18 45.0967 18.3333 45.29C18.6667 45.4833 19.0556 45.6644 19.5 45.8333L20 50ZM19.75 40.25C18.8056 39.3056 18.3333 38.1111 18.3333 36.6667C18.3333 35.2222 18.8056 34.0278 19.75 33.0833C20.6944 32.1389 21.8889 31.6667 23.3333 31.6667C24.7778 31.6667 25.9722 32.1389 26.9167 33.0833C27.8611 34.0278 28.3333 35.2222 28.3333 36.6667C28.3333 38.1111 27.8611 39.3056 26.9167 40.25C25.9722 41.1944 24.7778 41.6667 23.3333 41.6667C21.8889 41.6667 20.6944 41.1944 19.75 40.25Z" fill="white"/>
</svg>
