<?xml version="1.0" encoding="UTF-8" standalone="no"?><svg width="74" height="74" viewBox="0 0 74 74" fill="none" xmlns="http://www.w3.org/2000/svg">
<path d="M16.6667 73.3333H6.66667C4.83333 73.3333 3.26444 72.6811 1.96 71.3767C0.655556 70.0722 0.00222222 68.5022 0 66.6667V56.6667H6.66667V66.6667H16.6667V73.3333ZM56.6667 73.3333V66.6667H66.6667V56.6667H73.3333V66.6667C73.3333 68.5 72.6811 70.07 71.3767 71.3767C70.0722 72.6833 68.5022 73.3356 66.6667 73.3333H56.6667ZM36.6667 58.3333C30 58.3333 23.9589 56.3611 18.5433 52.4167C13.1278 48.4722 9.16889 43.2222 6.66667 36.6667C9.16667 30.1111 13.1256 24.8611 18.5433 20.9167C23.9611 16.9722 30.0022 15 36.6667 15C43.3311 15 49.3733 16.9722 54.7933 20.9167C60.2133 24.8611 64.1711 30.1111 66.6667 36.6667C64.1667 43.2222 60.2089 48.4722 54.7933 52.4167C49.3778 56.3611 43.3356 58.3333 36.6667 58.3333ZM36.6667 48.3333C39.8889 48.3333 42.6389 47.1944 44.9167 44.9167C47.1944 42.6389 48.3333 39.8889 48.3333 36.6667C48.3333 33.4444 47.1944 30.6944 44.9167 28.4167C42.6389 26.1389 39.8889 25 36.6667 25C33.4444 25 30.6944 26.1389 28.4167 28.4167C26.1389 30.6944 25 33.4444 25 36.6667C25 39.8889 26.1389 42.6389 28.4167 44.9167C30.6944 47.1944 33.4444 48.3333 36.6667 48.3333ZM36.6667 41.6667C35.2778 41.6667 34.0978 41.1811 33.1267 40.21C32.1556 39.2389 31.6689 38.0578 31.6667 36.6667C31.6644 35.2756 32.1511 34.0956 33.1267 33.1267C34.1022 32.1578 35.2822 31.6711 36.6667 31.6667C38.0511 31.6622 39.2322 32.1489 40.21 33.1267C41.1878 34.1044 41.6733 35.2844 41.6667 36.6667C41.66 38.0489 41.1744 39.23 40.21 40.21C39.2456 41.19 38.0644 41.6756 36.6667 41.6667ZM0 16.6667V6.66667C0 4.83333 0.653334 3.26444 1.96 1.96C3.26667 0.655556 4.83556 0.00222222 6.66667 0H16.6667V6.66667H6.66667V16.6667H0ZM66.6667 16.6667V6.66667H56.6667V0H66.6667C68.5 0 70.07 0.653334 71.3767 1.96C72.6833 3.26667 73.3356 4.83556 73.3333 6.66667V16.6667H66.6667Z" fill="white"/>
</svg>
