<?xml version="1.0" encoding="UTF-8" standalone="no"?><svg width="218" height="218" viewBox="0 0 218 218" fill="none" xmlns="http://www.w3.org/2000/svg">
<path d="M99.9167 99.9168V36.3335H199.833V99.9168H99.9167ZM18.1667 181.667V118.083H109V181.667H18.1667ZM18.1667 99.9168V36.3335H81.7501V99.9168H18.1667ZM118.083 81.7502H181.667V54.5002H118.083V81.7502ZM36.3334 163.5H90.8334V136.25H36.3334V163.5ZM36.3334 81.7502H63.5834V54.5002H36.3334V81.7502ZM154.417 199.833L151.692 186.208C149.875 185.452 148.173 184.658 146.587 183.829C145 182.999 143.371 181.976 141.7 180.758L128.529 184.846L119.446 169.404L129.892 160.321C129.589 158.353 129.438 156.385 129.438 154.417C129.438 152.449 129.589 150.481 129.892 148.513L119.446 139.429L128.529 123.988L141.7 128.075C143.365 126.864 144.994 125.844 146.587 125.014C148.18 124.184 149.881 123.388 151.692 122.625L154.417 109H172.583L175.308 122.625C177.125 123.382 178.83 124.178 180.422 125.014C182.015 125.85 183.641 126.87 185.3 128.075L198.471 123.988L207.554 139.429L197.108 148.513C197.411 150.481 197.563 152.449 197.563 154.417C197.563 156.385 197.411 158.353 197.108 160.321L207.554 169.404L198.471 184.846L185.3 180.758C183.635 181.97 182.009 182.993 180.422 183.829C178.836 184.664 177.131 185.458 175.308 186.208L172.583 199.833H154.417ZM176.335 167.242C179.889 163.694 181.667 159.419 181.667 154.417C181.667 149.415 179.889 145.14 176.335 141.591C172.78 138.043 168.502 136.262 163.5 136.25C158.498 136.238 154.223 138.018 150.674 141.591C147.126 145.164 145.346 149.439 145.333 154.417C145.321 159.394 147.102 163.673 150.674 167.252C154.247 170.83 158.522 172.608 163.5 172.583C168.478 172.559 172.756 170.773 176.335 167.242Z" fill="white"/>
</svg>
