<?xml version="1.0" encoding="UTF-8" standalone="no"?><svg width="182" height="146" viewBox="0 0 182 146" fill="none" xmlns="http://www.w3.org/2000/svg">
<path d="M90.8333 109.799C96.5861 109.721 100.825 107.637 103.55 103.55L154.417 27.25L78.1167 78.1167C74.0292 80.8417 71.8734 85.0049 71.6493 90.6062C71.4253 96.2076 73.1269 100.825 76.7542 104.458C80.3814 108.092 85.0745 109.872 90.8333 109.799ZM90.8333 0C99.7653 0 108.358 1.25047 116.612 3.75142C124.866 6.25236 132.623 9.99772 139.883 14.9875L122.625 25.8875C117.629 23.3139 112.446 21.3852 107.074 20.1014C101.703 18.8176 96.2894 18.1727 90.8333 18.1667C70.6986 18.1667 53.5523 25.2456 39.3944 39.4035C25.2365 53.5614 18.1606 70.7047 18.1667 90.8333C18.1667 97.1917 19.0387 103.474 20.7827 109.681C22.5267 115.888 24.9852 121.717 28.1583 127.167H153.508C156.99 121.414 159.528 115.434 161.12 109.227C162.713 103.02 163.506 96.5861 163.5 89.925C163.5 84.475 162.855 79.1764 161.565 74.0292C160.275 68.8819 158.347 63.8861 155.779 59.0417L166.679 41.7833C171.221 48.8986 174.818 56.4681 177.47 64.4917C180.122 72.5153 181.521 80.8417 181.667 89.4708C181.812 98.1 180.828 106.351 178.715 114.223C176.601 122.095 173.498 129.589 169.404 136.704C167.739 139.429 165.468 141.549 162.592 143.062C159.715 144.576 156.687 145.333 153.508 145.333H28.1583C24.9792 145.333 21.9514 144.576 19.075 143.062C16.1986 141.549 13.9278 139.429 12.2625 136.704C8.32639 129.892 5.29861 122.664 3.17917 115.022C1.05972 107.38 0 99.3172 0 90.8333C0 78.2681 2.38589 66.4991 7.15767 55.5264C11.9294 44.5537 18.4392 34.9406 26.6868 26.6868C34.9345 18.4331 44.584 11.9234 55.6354 7.15767C66.6868 2.39195 78.4194 0.00605556 90.8333 0Z" fill="white"/>
</svg>
