<?xml version="1.0" encoding="UTF-8" standalone="no"?><svg width="187" height="164" viewBox="0 0 187 164" fill="none" xmlns="http://www.w3.org/2000/svg">
<path d="M81.75 54.5V9.08333C81.75 6.50972 82.622 4.35395 84.366 2.616C86.11 0.878056 88.2658 0.00605556 90.8333 0H172.583C175.157 0 177.316 0.872001 179.06 2.616C180.804 4.36 181.673 6.51578 181.667 9.08333V54.5C181.667 57.0736 180.795 59.2324 179.051 60.9764C177.307 62.7204 175.151 63.5894 172.583 63.5833H90.8333C88.2597 63.5833 86.1039 62.7113 84.366 60.9673C82.6281 59.2233 81.7561 57.0676 81.75 54.5ZM0 136.25V90.8333C0 88.2597 0.872001 86.1039 2.616 84.366C4.36 82.6281 6.51578 81.7561 9.08333 81.75H81.75C84.3236 81.75 86.4824 82.622 88.2264 84.366C89.9704 86.11 90.8394 88.2658 90.8333 90.8333V136.25C90.8333 138.824 89.9613 140.982 88.2173 142.726C86.4733 144.47 84.3176 145.339 81.75 145.333H9.08333C6.50972 145.333 4.35395 144.461 2.616 142.717C0.878056 140.973 0.00605556 138.818 0 136.25ZM0 54.5V9.08333C0 6.50972 0.872001 4.35395 2.616 2.616C4.36 0.878056 6.51578 0.00605556 9.08333 0H54.5C57.0736 0 59.2324 0.872001 60.9764 2.616C62.7204 4.36 63.5894 6.51578 63.5833 9.08333V54.5C63.5833 57.0736 62.7113 59.2324 60.9673 60.9764C59.2233 62.7204 57.0676 63.5894 54.5 63.5833H9.08333C6.50972 63.5833 4.35395 62.7113 2.616 60.9673C0.878056 59.2233 0.00605556 57.0676 0 54.5ZM99.9167 45.4167H163.5V18.1667H99.9167V45.4167ZM18.1667 127.167H72.6667V99.9167H18.1667V127.167ZM18.1667 45.4167H45.4167V18.1667H18.1667V45.4167ZM123.533 144.425L116.948 146.469C114.98 147.074 113.051 146.999 111.162 146.242C109.272 145.485 107.795 144.274 106.729 142.608L104.912 139.429C103.853 137.613 103.474 135.644 103.777 133.525C104.08 131.406 105.064 129.665 106.729 128.302L111.725 123.987C111.422 122.019 111.271 120.051 111.271 118.083C111.271 116.115 111.422 114.147 111.725 112.179L106.729 107.865C105.064 106.502 104.08 104.8 103.777 102.76C103.474 100.719 103.853 98.7873 104.912 96.9646L106.956 93.5583C108.016 91.8931 109.454 90.6819 111.271 89.925C113.087 89.1681 114.98 89.0924 116.948 89.6979L123.533 91.7417C125.199 90.5306 126.828 89.5102 128.42 88.6806C130.013 87.851 131.714 87.0547 133.525 86.2917L134.887 79.7062C135.342 77.5868 136.362 75.8852 137.949 74.6014C139.535 73.3176 141.391 72.6727 143.517 72.6667H147.15C149.269 72.6667 151.125 73.3479 152.718 74.7104C154.311 76.0729 155.331 77.8139 155.779 79.9333L157.142 86.2917C158.958 87.0486 160.66 87.8419 162.246 88.6715C163.833 89.5011 165.462 90.5245 167.133 91.7417L173.719 89.6979C175.687 89.0924 177.619 89.1681 179.514 89.925C181.409 90.6819 182.884 91.8931 183.938 93.5583L185.754 96.7375C186.814 98.5542 187.192 100.522 186.89 102.642C186.587 104.761 185.603 106.502 183.938 107.865L178.942 112.179C179.244 114.147 179.396 116.115 179.396 118.083C179.396 120.051 179.244 122.019 178.942 123.987L183.938 128.302C185.603 129.665 186.587 131.369 186.89 133.416C187.192 135.463 186.814 137.391 185.754 139.202L183.71 142.608C182.651 144.274 181.212 145.485 179.396 146.242C177.579 146.999 175.687 147.074 173.719 146.469L167.133 144.425C165.468 145.636 163.842 146.656 162.256 147.486C160.669 148.316 158.964 149.112 157.142 149.875L155.779 156.46C155.325 158.58 154.305 160.285 152.718 161.574C151.132 162.864 149.275 163.506 147.15 163.5H143.517C141.397 163.5 139.544 162.819 137.958 161.456C136.371 160.094 135.348 158.353 134.887 156.233L133.525 149.875C131.708 149.118 130.007 148.325 128.42 147.495C126.834 146.666 125.205 145.642 123.533 144.425ZM158.168 130.918C161.723 127.357 163.5 123.079 163.5 118.083C163.5 113.087 161.723 108.812 158.168 105.258C154.613 101.703 150.335 99.9227 145.333 99.9167C140.331 99.9106 136.056 101.691 132.508 105.258C128.959 108.824 127.179 113.1 127.167 118.083C127.155 123.067 128.935 127.345 132.508 130.918C136.08 134.491 140.356 136.268 145.333 136.25C150.311 136.232 154.589 134.455 158.168 130.918Z" fill="white"/>
</svg>
