<?xml version="1.0" encoding="UTF-8" standalone="no"?><svg width="60" height="70" viewBox="0 0 60 70" fill="none" xmlns="http://www.w3.org/2000/svg">
<path d="M19.8333 6.66667V0H39.8333V6.66667H19.8333ZM23.1667 45.8333L19.5 38.5C19.2222 37.8889 18.8056 37.43 18.25 37.1233C17.6944 36.8167 17.1111 36.6644 16.5 36.6667H0C0.833333 29.1667 4.08333 22.8478 9.75 17.71C15.4167 12.5722 22.1111 10.0022 29.8333 10C33.2778 10 36.5833 10.5556 39.75 11.6667C42.9167 12.7778 45.8889 14.3889 48.6667 16.5L53.3333 11.8333L58 16.5L53.3333 21.1667C55.1111 23.5 56.5278 25.9589 57.5833 28.5433C58.6389 31.1278 59.3333 33.8356 59.6667 36.6667H45.25L39.5 25.1667C38.8889 23.8889 37.8889 23.25 36.5 23.25C35.1111 23.25 34.1111 23.8889 33.5 25.1667L23.1667 45.8333ZM9.75 62.2933C4.08333 57.1533 0.833333 50.8333 0 43.3333H14.4167L20.1667 54.8333C20.7778 56.1111 21.7778 56.75 23.1667 56.75C24.5556 56.75 25.5556 56.1111 26.1667 54.8333L36.5 34.1667L40.1667 41.5C40.4444 42.1111 40.8611 42.57 41.4167 42.8767C41.9722 43.1833 42.5555 43.3356 43.1667 43.3333H59.6667C58.8333 50.8333 55.5833 57.1522 49.9167 62.29C44.25 67.4278 37.5555 69.9978 29.8333 70C22.1111 70.0022 15.4167 67.4333 9.75 62.2933Z" fill="white"/>
</svg>
