<?xml version="1.0" encoding="UTF-8" standalone="no"?><svg width="81" height="72" viewBox="0 0 81 72" fill="none" xmlns="http://www.w3.org/2000/svg">
<path d="M22.3487 72C21.5168 72 20.7423 71.7945 20.0254 71.3835C19.3084 70.9725 18.7593 70.3905 18.3781 69.6375L9.52941 54H16.1092L20.6471 63H31.084V58.5H23.3697L18.8319 49.5H7.03361L0.567227 38.25C0.415966 37.875 0.284369 37.5 0.172436 37.125C0.0605036 36.75 0.00302521 36.375 0 36C0 35.7 0.189076 34.95 0.567227 33.75L7.03361 22.5H18.8319L23.3697 13.5H31.084V9H20.6471L16.1092 18H9.52941L18.3781 2.36251C18.7563 1.61251 19.3039 1.03201 20.0208 0.621008C20.7378 0.210008 21.5153 0.00300763 22.3533 7.62712e-06H33.3529C34.6386 7.62712e-06 35.7171 0.432008 36.5884 1.29601C37.4597 2.16001 37.8938 3.22801 37.8907 4.50001V22.5H31.084L26.5462 27H37.8907V40.5H27.9076L23.3697 31.5H12.9328L8.39495 36H20.6471L25.1849 45H37.8907V67.5C37.8907 68.775 37.4551 69.8445 36.5839 70.7085C35.7126 71.5725 34.6356 72.003 33.3529 72H22.3487ZM42.8279 69.3585C41.0491 67.5945 40.1597 65.475 40.1597 63C40.1597 61.275 40.5756 59.757 41.4076 58.446C42.2395 57.135 43.3361 56.0655 44.6975 55.2375V16.7625C43.3361 15.9375 42.2395 14.8695 41.4076 13.5585C40.5756 12.2475 40.1597 10.728 40.1597 9C40.1597 6.52501 41.0491 4.40701 42.8279 2.64601C44.6067 0.885006 46.7425 0.00300763 49.2353 7.62712e-06C51.7281 -0.00299237 53.8654 0.879006 55.6472 2.64601C57.4291 4.41301 58.317 6.53101 58.3109 9C58.3109 10.725 57.8949 12.2445 57.063 13.5585C56.2311 14.8725 55.1344 15.9405 53.7731 16.7625V28.125L62.8487 22.725C62.8487 20.175 63.7381 18 65.517 16.2C67.2958 14.4 69.4316 13.5 71.9243 13.5C74.4171 13.5 76.5544 14.382 78.3363 16.146C80.1181 17.91 81.006 20.028 81 22.5C80.9939 24.972 80.106 27.0915 78.3363 28.8585C76.5665 30.6255 74.4292 31.506 71.9243 31.5C71.0924 31.5 70.3164 31.407 69.5965 31.221C68.8764 31.035 68.1776 30.753 67.5 30.375L57.1765 36.5625L68.6344 45.5625C69.1638 45.3375 69.6933 45.1875 70.2227 45.1125C70.7521 45.0375 71.3193 45 71.9243 45C74.4201 45 76.5575 45.882 78.3363 47.646C80.1151 49.41 81.003 51.528 81 54C80.9969 56.472 80.1091 58.5915 78.3363 60.3585C76.5635 62.1255 74.4262 63.006 71.9243 63C69.126 63 66.8375 61.95 65.0586 59.85C63.2798 57.75 62.581 55.35 62.9622 52.65L53.7731 45.3375V55.35C55.1344 56.175 56.2129 57.2445 57.0086 58.5585C57.8042 59.8725 58.2005 61.353 58.1975 63C58.1975 65.475 57.3277 67.5945 55.5882 69.3585C53.8487 71.1225 51.7311 72.003 49.2353 72C46.7395 71.997 44.6037 71.1165 42.8279 69.3585Z" fill="white"/>
</svg>
