<?xml version="1.0" encoding="UTF-8" standalone="no"?><svg width="218" height="218" viewBox="0 0 218 218" fill="none" xmlns="http://www.w3.org/2000/svg">
<path d="M73.5751 192.685C62.5237 187.913 52.9105 181.439 44.7355 173.264C36.5605 165.089 30.0901 155.476 25.3244 144.425C20.5587 133.373 18.1728 121.565 18.1668 109C18.1607 96.4346 20.5466 84.6262 25.3244 73.5749C30.1023 62.5235 36.5726 52.9103 44.7355 44.7353C52.8984 36.5603 62.5116 30.0899 73.5751 25.3242C84.6386 20.5585 96.4469 18.1726 109 18.1665C121.553 18.1605 133.362 20.5463 144.425 25.3242C155.489 30.102 165.102 36.5724 173.265 44.7353C181.428 52.8982 187.901 62.5114 192.685 73.5749C197.469 84.6384 199.852 96.4467 199.833 109C199.815 121.553 197.429 133.361 192.676 144.425C187.922 155.488 181.452 165.102 173.265 173.264C165.078 181.427 155.464 187.901 144.425 192.685C133.386 197.468 121.577 199.851 109 199.833C96.4227 199.815 84.6144 197.438 73.5751 192.685ZM160.548 160.548C174.627 146.469 181.667 129.286 181.667 109C181.667 88.7137 174.627 71.5311 160.548 57.4519C146.469 43.3728 129.286 36.3332 109 36.3332C88.714 36.3332 71.5313 43.3728 57.4522 57.4519C43.373 71.5311 36.3334 88.7137 36.3334 109C36.3334 129.286 43.373 146.469 57.4522 160.548C71.5313 174.627 88.714 181.667 109 181.667C129.286 181.667 146.469 174.627 160.548 160.548ZM70.3959 147.604C59.7987 137.007 54.5001 124.139 54.5001 109C54.5001 93.861 59.7987 80.9929 70.3959 70.3957C80.9931 59.7985 93.8612 54.4998 109 54.4998C124.139 54.4998 137.007 59.7985 147.604 70.3957C158.201 80.9929 163.5 93.861 163.5 109C163.5 124.139 158.201 137.007 147.604 147.604C137.007 158.201 124.139 163.5 109 163.5C93.8612 163.5 80.9931 158.201 70.3959 147.604ZM134.66 134.66C141.776 127.545 145.333 118.992 145.333 109C145.333 99.0082 141.776 90.4547 134.66 83.3394C127.545 76.2242 118.992 72.6665 109 72.6665C99.0084 72.6665 90.455 76.2242 83.3397 83.3394C76.2244 90.4547 72.6668 99.0082 72.6668 109C72.6668 118.992 76.2244 127.545 83.3397 134.66C90.455 141.776 99.0084 145.333 109 145.333C118.992 145.333 127.545 141.776 134.66 134.66ZM96.1744 121.835C92.6138 118.274 90.8334 113.996 90.8334 109C90.8334 104.004 92.6138 99.7288 96.1744 96.1742C99.7351 92.6196 104.01 90.8392 109 90.8332C113.99 90.8271 118.268 92.6075 121.835 96.1742C125.402 99.7409 127.179 104.016 127.167 109C127.155 113.984 125.377 118.262 121.835 121.835C118.292 125.407 114.014 127.185 109 127.167C103.986 127.148 99.7109 125.371 96.1744 121.835Z" fill="white"/>
</svg>
