<?xml version="1.0" encoding="UTF-8" standalone="no"?><svg width="218" height="218" viewBox="0 0 218 218" fill="none" xmlns="http://www.w3.org/2000/svg">
<path d="M109 146.133C114.753 146.054 118.991 143.971 121.716 139.883L172.583 63.5835L96.2832 114.45C92.1957 117.175 90.0399 121.338 89.8158 126.94C89.5918 132.541 91.2934 137.158 94.9207 140.792C98.5479 144.425 103.241 146.205 109 146.133ZM109 36.3335C117.932 36.3335 126.525 37.584 134.778 40.0849C143.032 42.5859 150.789 46.3312 158.05 51.321L140.791 62.221C135.796 59.6474 130.612 57.7187 125.241 56.4349C119.87 55.1511 114.456 54.5062 109 54.5002C88.8651 54.5002 71.7188 61.5791 57.5609 75.737C43.403 89.8949 36.3271 107.038 36.3332 127.167C36.3332 133.525 37.2052 139.808 38.9492 146.015C40.6932 152.222 43.1517 158.05 46.3248 163.5H171.675C175.157 157.747 177.694 151.768 179.287 145.561C180.879 139.354 181.673 132.92 181.667 126.258C181.667 120.808 181.022 115.51 179.732 110.363C178.442 105.215 176.513 100.22 173.946 95.3752L184.846 78.1168C189.387 85.2321 192.984 92.8016 195.637 100.825C198.289 108.849 199.688 117.175 199.833 125.804C199.979 134.433 198.994 142.684 196.881 150.556C194.768 158.429 191.664 165.922 187.571 173.038C185.905 175.763 183.635 177.882 180.758 179.396C177.882 180.91 174.854 181.667 171.675 181.667H46.3248C43.1457 181.667 40.1179 180.91 37.2415 179.396C34.3651 177.882 32.0943 175.763 30.429 173.038C26.4929 166.225 23.4651 158.998 21.3457 151.356C19.2262 143.714 18.1665 135.651 18.1665 127.167C18.1665 114.602 20.5524 102.833 25.3242 91.8599C30.0959 80.8872 36.6057 71.2741 44.8533 63.0203C53.101 54.7666 62.7505 48.2569 73.8019 43.4912C84.8533 38.7254 96.5859 36.3396 109 36.3335Z" fill="white"/>
</svg>
