<?xml version="1.0" encoding="UTF-8" standalone="no"?><svg width="60" height="67" viewBox="0 0 60 67" fill="none" xmlns="http://www.w3.org/2000/svg">
<path d="M30 30C27.2222 30 24.8611 29.0278 22.9167 27.0833C20.9722 25.1389 20 22.7778 20 20C20 17.2222 20.9722 14.8611 22.9167 12.9167C24.8611 10.9722 27.2222 10 30 10C32.7778 10 35.1389 10.9722 37.0833 12.9167C39.0278 14.8611 40 17.2222 40 20C40 22.7778 39.0278 25.1389 37.0833 27.0833C35.1389 29.0278 32.7778 30 30 30ZM6.66667 40C4.83333 40 3.26444 39.3478 1.96 38.0433C0.655556 36.7389 0.00222222 35.1689 0 33.3333V6.66667C0 4.83333 0.653334 3.26444 1.96 1.96C3.26667 0.655556 4.83556 0.00222222 6.66667 0H53.3333C55.1667 0 56.7367 0.653334 58.0433 1.96C59.35 3.26667 60.0022 4.83556 60 6.66667V33.3333C60 35.1667 59.3478 36.7367 58.0433 38.0433C56.7389 39.35 55.1689 40.0022 53.3333 40H6.66667ZM13.3333 33.3333H46.6667C46.6667 31.5 47.32 29.9311 48.6267 28.6267C49.9333 27.3222 51.5022 26.6689 53.3333 26.6667V13.3333C51.5 13.3333 49.9311 12.6811 48.6267 11.3767C47.3222 10.0722 46.6689 8.50222 46.6667 6.66667H13.3333C13.3333 8.5 12.6811 10.07 11.3767 11.3767C10.0722 12.6833 8.50222 13.3356 6.66667 13.3333V26.6667C8.5 26.6667 10.07 27.32 11.3767 28.6267C12.6833 29.9333 13.3356 31.5022 13.3333 33.3333ZM30 66.6667L43.3333 53.3333L38.6667 48.6667L33.3333 54V43.3333H26.6667V54L21.3333 48.6667L16.6667 53.3333L30 66.6667Z" fill="white"/>
</svg>
