<?xml version="1.0" encoding="UTF-8" standalone="no"?><svg width="74" height="74" viewBox="0 0 74 74" fill="none" xmlns="http://www.w3.org/2000/svg">
<path d="M60 26.6667C56.8333 26.6667 54.0833 25.7222 51.75 23.8333C49.4167 21.9444 47.8611 19.5556 47.0833 16.6667H26.1667C25.5556 19 24.4033 21.0144 22.71 22.71C21.0167 24.4056 19.0022 25.5578 16.6667 26.1667V47.0833C19.5556 47.8611 21.9444 49.4167 23.8333 51.75C25.7222 54.0833 26.6667 56.8333 26.6667 60C26.6667 63.6667 25.3611 66.8055 22.75 69.4167C20.1389 72.0278 17 73.3333 13.3333 73.3333C9.66667 73.3333 6.52778 72.0278 3.91667 69.4167C1.30556 66.8055 0 63.6667 0 60C0 56.8333 0.944444 54.0833 2.83333 51.75C4.72222 49.4167 7.11111 47.8611 10 47.0833V26.1667C7.11111 25.3889 4.72222 23.8333 2.83333 21.5C0.944444 19.1667 0 16.4444 0 13.3333C0 9.66667 1.30556 6.52778 3.91667 3.91667C6.52778 1.30556 9.66667 0 13.3333 0C16.4444 0 19.1667 0.944444 21.5 2.83333C23.8333 4.72222 25.3889 7.11111 26.1667 10H47.0833C47.8611 7.11111 49.4167 4.72222 51.75 2.83333C54.0833 0.944444 56.8333 0 60 0C63.6667 0 66.8055 1.30556 69.4167 3.91667C72.0278 6.52778 73.3333 9.66667 73.3333 13.3333C73.3333 17 72.0278 20.1389 69.4167 22.75C66.8055 25.3611 63.6667 26.6667 60 26.6667ZM60 73.3333C56.3333 73.3333 53.1944 72.0278 50.5833 69.4167C47.9722 66.8055 46.6667 63.6667 46.6667 60C46.6667 56.3333 47.9722 53.1944 50.5833 50.5833C53.1944 47.9722 56.3333 46.6667 60 46.6667C63.6667 46.6667 66.8055 47.9722 69.4167 50.5833C72.0278 53.1944 73.3333 56.3333 73.3333 60C73.3333 63.6667 72.0278 66.8055 69.4167 69.4167C66.8055 72.0278 63.6667 73.3333 60 73.3333Z" fill="white"/>
</svg>
