<?xml version="1.0" encoding="UTF-8" standalone="no"?><svg width="60" height="67" viewBox="0 0 60 67" fill="none" xmlns="http://www.w3.org/2000/svg">
<path d="M2.50002 66.6667C1.77779 66.6667 1.18113 66.43 0.710016 65.9567C0.238905 65.4833 0.00223773 64.8867 1.55039e-05 64.1667C-0.00220672 63.4467 0.23446 62.85 0.710016 62.3767C1.18557 61.9033 1.78224 61.6667 2.50002 61.6667H8.33335V59.1667H5.83335C5.11113 59.1667 4.51446 58.93 4.04335 58.4567C3.57224 57.9833 3.33557 57.3867 3.33335 56.6667C3.33113 55.9467 3.56779 55.35 4.04335 54.8767C4.5189 54.4033 5.11557 54.1667 5.83335 54.1667H8.33335V51.6667H2.50002C1.77779 51.6667 1.18113 51.43 0.710016 50.9567C0.238905 50.4833 0.00223773 49.8867 1.55039e-05 49.1667C-0.00220672 48.4467 0.23446 47.85 0.710016 47.3767C1.18557 46.9033 1.78224 46.6667 2.50002 46.6667H10C10.9445 46.6667 11.7367 46.9867 12.3767 47.6267C13.0167 48.2667 13.3356 49.0578 13.3333 50V53.3333C13.3333 54.2778 13.0133 55.07 12.3733 55.71C11.7333 56.35 10.9422 56.6689 10 56.6667C10.9445 56.6667 11.7367 56.9867 12.3767 57.6267C13.0167 58.2667 13.3356 59.0578 13.3333 60V63.3333C13.3333 64.2778 13.0133 65.07 12.3733 65.71C11.7333 66.35 10.9422 66.6689 10 66.6667H2.50002ZM2.50002 43.3333C1.77779 43.3333 1.18113 43.0967 0.710016 42.6233C0.238905 42.15 0.00223773 41.5533 1.55039e-05 40.8333V34.1667C1.55039e-05 33.2222 0.320016 32.4311 0.960016 31.7933C1.60002 31.1556 2.39113 30.8356 3.33335 30.8333H8.33335V28.3333H2.50002C1.77779 28.3333 1.18113 28.0967 0.710016 27.6233C0.238905 27.15 0.00223773 26.5533 1.55039e-05 25.8333C-0.00220672 25.1133 0.23446 24.5167 0.710016 24.0433C1.18557 23.57 1.78224 23.3333 2.50002 23.3333H10C10.9445 23.3333 11.7367 23.6533 12.3767 24.2933C13.0167 24.9333 13.3356 25.7244 13.3333 26.6667V32.5C13.3333 33.4444 13.0133 34.2367 12.3733 34.8767C11.7333 35.5167 10.9422 35.8356 10 35.8333H5.00002V38.3333H10.8333C11.5556 38.3333 12.1533 38.57 12.6267 39.0433C13.1 39.5167 13.3356 40.1133 13.3333 40.8333C13.3311 41.5533 13.0945 42.1511 12.6233 42.6267C12.1522 43.1022 11.5556 43.3378 10.8333 43.3333H2.50002ZM5.71001 19.2933C5.23668 18.82 5.00002 18.2222 5.00002 17.5V5H2.50002C1.77779 5 1.18113 4.76333 0.710016 4.29C0.238905 3.81667 0.00223773 3.22 1.55039e-05 2.5C-0.00220672 1.78 0.23446 1.18333 0.710016 0.71C1.18557 0.236667 1.78224 0 2.50002 0H7.50002C8.22224 0 8.82002 0.236667 9.29335 0.71C9.76668 1.18333 10.0022 1.78 10 2.5V17.5C10 18.2222 9.76335 18.82 9.29002 19.2933C8.81668 19.7667 8.22002 20.0022 7.50002 20C6.78002 19.9978 6.18335 19.7644 5.71001 19.2933ZM23.3333 56.6667C22.3889 56.6667 21.5978 56.3467 20.96 55.7067C20.3222 55.0667 20.0022 54.2756 20 53.3333C19.9978 52.3911 20.3178 51.6 20.96 50.96C21.6022 50.32 22.3933 50 23.3333 50H56.6667C57.6111 50 58.4033 50.32 59.0433 50.96C59.6833 51.6 60.0022 52.3911 60 53.3333C59.9978 54.2756 59.6778 55.0678 59.04 55.71C58.4022 56.3522 57.6111 56.6711 56.6667 56.6667H23.3333ZM23.3333 36.6667C22.3889 36.6667 21.5978 36.3467 20.96 35.7067C20.3222 35.0667 20.0022 34.2756 20 33.3333C19.9978 32.3911 20.3178 31.6 20.96 30.96C21.6022 30.32 22.3933 30 23.3333 30H56.6667C57.6111 30 58.4033 30.32 59.0433 30.96C59.6833 31.6 60.0022 32.3911 60 33.3333C59.9978 34.2756 59.6778 35.0678 59.04 35.71C58.4022 36.3522 57.6111 36.6711 56.6667 36.6667H23.3333ZM23.3333 16.6667C22.3889 16.6667 21.5978 16.3467 20.96 15.7067C20.3222 15.0667 20.0022 14.2756 20 13.3333C19.9978 12.3911 20.3178 11.6 20.96 10.96C21.6022 10.32 22.3933 10 23.3333 10H56.6667C57.6111 10 58.4033 10.32 59.0433 10.96C59.6833 11.6 60.0022 12.3911 60 13.3333C59.9978 14.2756 59.6778 15.0678 59.04 15.71C58.4022 16.3522 57.6111 16.6711 56.6667 16.6667H23.3333Z" fill="white"/>
</svg>
