<?xml version="1.0" encoding="UTF-8" standalone="no"?><svg width="54" height="56" viewBox="0 0 54 56" fill="none" xmlns="http://www.w3.org/2000/svg">
<g clip-path="url(#clip0_594_4472)">
<path d="M9.42556 0.464966C12.9596 0.464966 15.8286 3.08292 15.8286 6.31467C15.8286 7.71432 15.6054 8.68152 14.7359 9.95097C13.8663 11.2204 9.43021 17.1166 9.43021 17.1166C9.43021 17.1166 4.98946 11.2204 4.12456 9.95097C3.25501 8.68152 3.02716 7.70967 3.03181 6.31467C3.03181 3.08292 5.89621 0.464966 9.43486 0.464966H9.42556Z" stroke="white" stroke-width="0.930001" stroke-miterlimit="10"/>
<path d="M14.55 18.0374C16.8703 18.9627 18.3909 20.5019 18.3909 22.241C18.3909 25.0682 14.3779 27.3606 9.42565 27.3606C4.47339 27.3606 0.465088 25.0682 0.465088 22.241C0.465088 20.5019 1.98564 18.9627 4.30599 18.0374" stroke="white" stroke-width="0.930001" stroke-miterlimit="10"/>
<path d="M43.9984 37.6045C48.9498 37.6045 52.9636 35.3124 52.9636 32.4849C52.9636 29.6574 48.9498 27.3652 43.9984 27.3652C39.0471 27.3652 35.0332 29.6574 35.0332 32.4849C35.0332 35.3124 39.0471 37.6045 43.9984 37.6045Z" stroke="white" stroke-width="0.930001" stroke-miterlimit="10"/>
<path d="M14.5499 55.5303C19.5013 55.5303 23.5151 53.2382 23.5151 50.4107C23.5151 47.5832 19.5013 45.291 14.5499 45.291C9.59858 45.291 5.58472 47.5832 5.58472 50.4107C5.58472 53.2382 9.59858 55.5303 14.5499 55.5303Z" stroke="white" stroke-width="0.930001" stroke-miterlimit="10"/>
<path d="M17.1121 24.8031L36.3166 29.9228" stroke="white" stroke-width="0.930001" stroke-miterlimit="10"/>
<path d="M37.6001 36.3258L20.9531 46.5698" stroke="white" stroke-width="0.930001" stroke-miterlimit="10"/>
</g>
<defs>
<clipPath id="clip0_594_4472">
<rect width="53.4286" height="56" fill="white"/>
</clipPath>
</defs>
</svg>
