<?xml version="1.0" encoding="UTF-8" standalone="no"?><svg width="58" height="66" viewBox="0 0 58 66" fill="none" xmlns="http://www.w3.org/2000/svg">
<path d="M25.25 61.9167V48.5834C25.25 45.4723 24.7778 43.1667 23.8333 41.6667C22.8889 40.1667 21.6389 38.6945 20.0833 37.25L24.8333 32.5C25.5 33.1112 26.1389 33.7645 26.75 34.46C27.3611 35.1556 27.9722 35.8912 28.5833 36.6667C29.3611 35.6112 30.1533 34.6812 30.96 33.8767C31.7667 33.0723 32.5856 32.2801 33.4167 31.5C35.5278 29.5556 37.4444 27.3056 39.1667 24.7501C40.8889 22.1945 41.8056 17.7223 41.9167 11.3334L39 14.25C38.3889 14.8612 37.6256 15.1667 36.71 15.1667C35.7944 15.1667 35.0022 14.8612 34.3333 14.25C33.6667 13.5834 33.3333 12.7923 33.3333 11.8767C33.3333 10.9612 33.6667 10.1689 34.3333 9.50005L42.9167 0.916719C43.25 0.583386 43.6111 0.346719 44 0.206719C44.3889 0.0667189 44.8056 -0.00217014 45.25 5.20832e-05C45.6944 0.00227431 46.1111 0.0711633 46.5 0.206719C46.8889 0.342274 47.25 0.578941 47.5833 0.916719L56.25 9.58339C56.8611 10.1945 57.1811 10.9578 57.21 11.8734C57.2389 12.7889 56.9189 13.5812 56.25 14.25C55.6389 14.8612 54.8611 15.1667 53.9167 15.1667C52.9722 15.1667 52.1944 14.8612 51.5833 14.25L48.5833 11.3334C48.4722 19.2778 47.25 24.9312 44.9167 28.2934C42.5833 31.6556 40.25 34.3912 37.9167 36.5C36.1389 38.1112 34.6944 39.6812 33.5833 41.21C32.4722 42.7389 31.9167 45.1967 31.9167 48.5834V61.9167C31.9167 62.8612 31.5967 63.6534 30.9567 64.2934C30.3167 64.9334 29.5256 65.2523 28.5833 65.25C27.6411 65.2478 26.85 64.9278 26.21 64.29C25.57 63.6523 25.25 62.8612 25.25 61.9167ZM9.25 19.1667C9.02778 18.0556 8.87556 16.8334 8.79333 15.5C8.71111 14.1667 8.64111 12.7778 8.58333 11.3334L5.58333 14.3334C4.97222 14.9445 4.20889 15.2501 3.29333 15.2501C2.37778 15.2501 1.58556 14.9167 0.916667 14.25C0.305556 13.6389 0 12.8612 0 11.9167C0 10.9723 0.305556 10.1945 0.916667 9.58339L9.58333 0.916719C9.91667 0.583386 10.2778 0.346719 10.6667 0.206719C11.0556 0.0667189 11.4722 -0.00105847 11.9167 0.00338597C12.3611 0.00783041 12.7778 0.0778303 13.1667 0.213386C13.5556 0.348941 13.9167 0.584496 14.25 0.920052L22.9167 9.58672C23.5833 10.2534 23.9033 11.0312 23.8767 11.9201C23.85 12.8089 23.5022 13.5867 22.8333 14.2534C22.1667 14.8645 21.3889 15.17 20.5 15.17C19.6111 15.17 18.8333 14.8645 18.1667 14.2534L15.25 11.4167C15.25 12.5834 15.3056 13.6812 15.4167 14.71C15.5278 15.7389 15.6389 16.6967 15.75 17.5834L9.25 19.1667ZM16.4167 33.8334C15.3056 32.6667 14.2367 31.3056 13.21 29.7501C12.1833 28.1945 11.28 26.2778 10.5 24L16.9167 22.4167C17.4722 23.9167 18.1111 25.1945 18.8333 26.25C19.5556 27.3056 20.3333 28.25 21.1667 29.0834L16.4167 33.8334Z" fill="white"/>
</svg>
