<?xml version="1.0" encoding="UTF-8" standalone="no"?><svg width="218" height="218" viewBox="0 0 218 218" fill="none" xmlns="http://www.w3.org/2000/svg">
<path d="M109 145.333C104.004 145.333 99.7289 143.556 96.1743 140.001C92.6197 136.447 90.8394 132.169 90.8333 127.167C90.8273 122.165 92.6076 117.89 96.1743 114.341C99.7411 110.792 104.016 109.012 109 109C113.984 108.988 118.262 110.768 121.835 114.341C125.408 117.914 127.185 122.189 127.167 127.167C127.148 132.144 125.371 136.423 121.835 140.001C118.298 143.58 114.02 145.358 109 145.333ZM66.9896 63.5833H151.01L169.177 27.25H48.8229L66.9896 63.5833ZM76.3 190.75H141.7C155.325 190.75 166.906 186.021 176.444 176.562C185.981 167.103 190.75 155.482 190.75 141.7C190.75 135.947 189.766 130.346 187.798 124.896C185.83 119.446 183.029 114.526 179.396 110.135L155.779 81.75H62.2208L38.6042 110.135C34.9708 114.526 32.1701 119.446 30.2021 124.896C28.234 130.346 27.25 135.947 27.25 141.7C27.25 155.476 31.9824 167.097 41.4473 176.562C50.9121 186.027 62.5297 190.756 76.3 190.75Z" fill="white"/>
</svg>
