<?xml version="1.0" encoding="UTF-8" standalone="no"?><svg width="115" height="45" viewBox="0 0 115 45" fill="none" xmlns="http://www.w3.org/2000/svg">
<path d="M0 4.55083V4.49095V0.149658H4.39653V4.49095V4.55083V32.0656V32.1555V36.4668H0V32.0956V32.0656V4.55083Z" fill="white"/>
<path d="M44.6883 23.2334C44.8088 29.8202 48.9343 35.1195 53.9331 35.0297C58.9319 34.9399 62.8768 29.5208 62.7563 22.9041C62.6359 16.3173 58.5103 11.0179 53.5115 11.1077C48.5428 11.1975 44.598 16.6167 44.6883 23.2334ZM81.0953 15.2394C81.2158 15.4789 80.9447 14.8502 80.9447 14.8502L81.0953 15.2394ZM84.0765 42.5746C84.2873 42.2453 84.5583 41.7063 84.8896 41.0477L84.0765 42.5746ZM84.3476 12.964C84.4078 13.1137 84.468 13.2634 84.5282 13.4131L86.0038 17.0059L84.3476 12.964ZM65.9182 31.1076C68.6284 33.5627 71.0676 34.8202 74.1994 34.8202C77.3914 34.8501 80.2521 33.2932 80.2521 30.2992C80.2521 27.8142 78.0238 26.3471 74.0488 24.6705C70.6761 23.2334 68.1466 22.2154 66.8517 20.0897C67.0023 21.0178 67.0926 21.946 67.0926 22.9041C67.0926 31.0178 61.1904 37.5746 53.8729 37.5746C46.5855 37.5746 40.6531 31.0178 40.6531 22.9041C40.6531 18.0238 42.7912 13.6826 46.1036 11.0179H37.16V32.0357V32.1256V36.4369H33.185V32.2453C33.185 32.1854 33.185 32.0956 33.185 32.0357V11.0179H29.6919V8.38318H33.2453C33.7271 3.02393 37.0395 0 41.6469 0C44.6281 0 46.2843 0.299399 47.2178 0.748498V4.37123C47.2178 4.64069 47.2178 4.82033 47.2178 4.82033C47.1877 4.82033 47.0673 4.82033 47.0673 4.82033C45.6218 3.50297 44.2065 2.51495 40.894 2.51495C38.2441 2.51495 36.4975 4.64069 37.1299 8.38318H52.0059C52.6081 8.29336 53.2405 8.23348 53.8729 8.23348C59.1728 8.23348 63.75 11.7065 65.858 16.6765C65.8279 16.4071 65.8279 16.1077 65.8279 15.8083C65.8279 10.5987 70.917 8.38318 76.1868 8.38318C76.3976 8.38318 76.5783 8.38318 76.7891 8.38318C78.6561 8.35324 81.276 8.95204 82.9021 9.3712L84.3777 12.964L86.0339 17.0358L90.5208 27.8741L91.0327 29.6106L91.6049 27.8741L97.2662 13.952C98.3201 10.1197 102.446 8.473 106.993 8.473C109.251 8.473 110.938 8.74246 112.955 9.43108V13.6526C110.486 11.8562 108.709 10.8383 105.909 10.8383C103.439 10.8383 100.488 11.9161 100.488 15.5388C100.428 18.2634 102.084 18.7424 106.872 21.1077C110.817 22.8142 114.461 24.7005 114.491 29.0417C114.491 36.3171 107.294 37.5746 103.801 37.5746C100.669 37.5746 97.8082 36.7962 96.2122 35.4788V30.6884L96.4832 30.898C99.344 33.5327 101.843 34.91 105.096 34.91C108.288 34.9399 111.148 33.383 111.148 30.389C111.148 27.904 108.92 26.437 104.945 24.7603C101.151 23.1136 98.6514 22.0358 97.6275 19.3113C96.0616 23.0837 88.8645 40.5686 87.1481 44.2812H83.1731L84.1066 42.5746L84.9197 41.0477L84.9498 40.9878C85.9134 39.0716 87.3589 36.0776 88.6236 33.2034L81.1254 15.2095C81.0652 15.0897 80.9447 14.8203 80.7038 14.2514C80.1317 12.9341 79.5896 11.7365 77.9635 11.1377C77.0902 10.8383 76.1868 10.6886 75.1028 10.6886C72.6335 10.6886 69.4716 11.7664 69.4716 15.3891C69.4113 18.1137 71.2483 18.5927 76.0664 20.958C80.0112 22.6645 83.6549 24.5508 83.6851 28.892C83.6851 36.1674 76.488 37.4249 72.9948 37.4249C70.2244 37.4249 67.6347 36.8261 65.9784 35.7483V31.1076H65.9182Z" fill="white"/>
<path d="M12.5873 8.65313L12.6475 11.8268V12.0363H12.6776C12.7378 11.9166 12.798 11.7968 12.8583 11.707C14.4844 10.0004 16.502 8.26392 21.3502 8.26392C25.9877 8.26392 28.9689 12.186 29.0894 14.6411V32.0362V32.126V36.4374H25.1144V31.2578V16.4375C25.1144 13.3836 22.4042 11.1382 19.0917 11.1382C16.3213 11.1382 12.798 13.5932 12.6776 16.1082V32.0362V32.156V36.4374H8.70264V32.0362V12.2759V8.62319H9.42535H11.5935H12.5873V8.65313Z" fill="white"/>
</svg>
