<?xml version="1.0" encoding="UTF-8" standalone="no"?><svg width="73" height="73" viewBox="0 0 73 73" fill="none" xmlns="http://www.w3.org/2000/svg">
<path d="M48.1362 48.1361C51.3287 44.9411 52.925 41.0624 52.925 36.4999C52.925 31.9374 51.3287 28.0599 48.1362 24.8674C44.9436 21.6749 41.0649 20.0774 36.5 20.0749C31.935 20.0725 28.0575 21.67 24.8674 24.8674C21.6773 28.0648 20.0799 31.9423 20.075 36.4999C20.0701 41.0575 21.6676 44.9362 24.8674 48.1361C28.0673 51.3359 31.9448 52.9322 36.5 52.9249C41.0552 52.9176 44.9339 51.3213 48.1362 48.1361ZM33.9012 39.0987C33.2004 38.4028 32.85 37.5365 32.85 36.4999C32.85 35.4633 33.2004 34.597 33.9012 33.9011C34.602 33.2052 35.4682 32.8548 36.5 32.8499C37.5317 32.845 38.3992 33.1954 39.1024 33.9011C39.8057 34.6068 40.1548 35.473 40.15 36.4999C40.1451 37.5268 39.7947 38.3942 39.0988 39.1023C38.4028 39.8104 37.5366 40.1596 36.5 40.1499C35.4634 40.1402 34.5971 39.7898 33.9012 39.0987ZM66.7512 57.3486C66.0504 56.6527 65.7 55.7864 65.7 54.7498V32.8499C65.7 31.8157 66.0504 30.9495 66.7512 30.2511C67.452 29.5528 68.3182 29.2024 69.35 29.1999C70.3817 29.1975 71.2492 29.5479 71.9524 30.2511C72.6556 30.9543 73.0048 31.8206 73 32.8499V54.7498C73 55.784 72.6496 56.6515 71.9488 57.3523C71.248 58.0531 70.3817 58.4023 69.35 58.3998C68.3182 58.3974 67.452 58.047 66.7512 57.3486ZM66.7512 71.9486C66.0504 71.2527 65.7 70.3864 65.7 69.3498C65.7 68.3132 66.0504 67.4469 66.7512 66.751C67.452 66.0551 68.3182 65.7047 69.35 65.6998C70.3817 65.695 71.2492 66.0453 71.9524 66.751C72.6556 67.4567 73.0048 68.3229 73 69.3498C72.9951 70.3767 72.6447 71.2441 71.9488 71.9522C71.2528 72.6603 70.3866 73.0095 69.35 72.9998C68.3134 72.9901 67.4471 72.6397 66.7512 71.9486ZM36.5 72.9998C31.4508 72.9998 26.7058 72.0411 22.265 70.1236C17.8242 68.2061 13.9612 65.6061 10.6762 62.3236C7.39125 59.041 4.79123 55.1781 2.8762 50.7349C0.961171 46.2916 0.00243795 41.5466 4.62025e-06 36.4999C-0.00242871 31.4532 0.956304 26.7082 2.8762 22.2649C4.7961 17.8217 7.39612 13.9588 10.6762 10.6762C13.9564 7.39366 17.8193 4.79365 22.265 2.87619C26.7107 0.958731 31.4557 0 36.5 0C42.7658 0 48.5754 1.47581 53.9287 4.42744C59.282 7.37906 63.6316 11.4087 66.9775 16.5162C67.7683 17.672 67.7987 18.8583 67.0687 20.0749C66.3387 21.2916 65.2437 21.8999 63.7837 21.8999H62.05C61.0158 21.8999 60.1495 22.2503 59.4512 22.9511C58.7528 23.6519 58.4024 24.5182 58.4 25.5499V63.0536C58.4 63.9052 58.2029 64.6815 57.8087 65.3823C57.4145 66.0831 56.8816 66.6756 56.21 67.1598C53.2291 69.0456 50.0658 70.491 46.72 71.496C43.3741 72.501 39.9675 73.0022 36.5 72.9998Z" fill="white"/>
</svg>
