<?xml version="1.0" encoding="UTF-8" standalone="no"?><svg width="218" height="218" viewBox="0 0 218 218" fill="none" xmlns="http://www.w3.org/2000/svg">
<path d="M27.2499 190.75C22.2541 190.75 17.9789 188.973 14.4243 185.418C10.8696 181.863 9.08931 177.585 9.08325 172.583V63.5832C9.08325 61.0096 9.95525 58.8538 11.6993 57.1158C13.4433 55.3779 15.599 54.5059 18.1666 54.4998C20.7341 54.4938 22.8929 55.3658 24.643 57.1158C26.3931 58.8659 27.262 61.0217 27.2499 63.5832V172.583H172.583C175.157 172.583 177.316 173.455 179.06 175.199C180.804 176.943 181.673 179.099 181.667 181.667C181.661 184.234 180.789 186.393 179.051 188.143C177.313 189.893 175.157 190.762 172.583 190.75H27.2499ZM63.5833 154.417C58.5874 154.417 54.3122 152.639 50.7576 149.085C47.203 145.53 45.4226 141.252 45.4166 136.25V36.3332C45.4166 31.3373 47.1969 27.0621 50.7576 23.5075C54.3182 19.9529 58.5935 18.1726 63.5833 18.1665H101.506C103.928 18.1665 106.239 18.6207 108.437 19.529C110.635 20.4373 112.564 21.7241 114.223 23.3894L127.167 36.3332H190.75C195.746 36.3332 200.024 38.1135 203.585 41.6742C207.145 45.2348 208.923 49.5101 208.917 54.4998V136.25C208.917 141.246 207.139 145.524 203.585 149.085C200.03 152.645 195.752 154.423 190.75 154.417H63.5833Z" fill="white"/>
</svg>
