<?xml version="1.0" encoding="UTF-8" standalone="no"?><svg width="182" height="182" viewBox="0 0 182 182" fill="none" xmlns="http://www.w3.org/2000/svg">
<path d="M109 54.5H118.083C120.492 54.5 122.803 53.543 124.506 51.8396C126.21 50.1361 127.167 47.8257 127.167 45.4167C127.167 43.0076 126.21 40.6972 124.506 38.9938C122.803 37.2903 120.492 36.3333 118.083 36.3333H109C106.591 36.3333 104.281 37.2903 102.577 38.9938C100.874 40.6972 99.9167 43.0076 99.9167 45.4167C99.9167 47.8257 100.874 50.1361 102.577 51.8396C104.281 53.543 106.591 54.5 109 54.5ZM109 90.8333H118.083C120.492 90.8333 122.803 89.8763 124.506 88.1729C126.21 86.4694 127.167 84.159 127.167 81.75C127.167 79.341 126.21 77.0306 124.506 75.3271C122.803 73.6237 120.492 72.6667 118.083 72.6667H109C106.591 72.6667 104.281 73.6237 102.577 75.3271C100.874 77.0306 99.9167 79.341 99.9167 81.75C99.9167 84.159 100.874 86.4694 102.577 88.1729C104.281 89.8763 106.591 90.8333 109 90.8333ZM63.5833 54.5H72.6667C75.0757 54.5 77.3861 53.543 79.0895 51.8396C80.793 50.1361 81.75 47.8257 81.75 45.4167C81.75 43.0076 80.793 40.6972 79.0895 38.9938C77.3861 37.2903 75.0757 36.3333 72.6667 36.3333H63.5833C61.1743 36.3333 58.8639 37.2903 57.1604 38.9938C55.457 40.6972 54.5 43.0076 54.5 45.4167C54.5 47.8257 55.457 50.1361 57.1604 51.8396C58.8639 53.543 61.1743 54.5 63.5833 54.5ZM63.5833 90.8333H72.6667C75.0757 90.8333 77.3861 89.8763 79.0895 88.1729C80.793 86.4694 81.75 84.159 81.75 81.75C81.75 79.341 80.793 77.0306 79.0895 75.3271C77.3861 73.6237 75.0757 72.6667 72.6667 72.6667H63.5833C61.1743 72.6667 58.8639 73.6237 57.1604 75.3271C55.457 77.0306 54.5 79.341 54.5 81.75C54.5 84.159 55.457 86.4694 57.1604 88.1729C58.8639 89.8763 61.1743 90.8333 63.5833 90.8333ZM172.583 163.5H163.5V9.08333C163.5 6.67428 162.543 4.3639 160.84 2.66045C159.136 0.956991 156.826 0 154.417 0H27.25C24.841 0 22.5306 0.956991 20.8271 2.66045C19.1237 4.3639 18.1667 6.67428 18.1667 9.08333V163.5H9.08333C6.67428 163.5 4.3639 164.457 2.66045 166.16C0.956991 167.864 0 170.174 0 172.583C0 174.992 0.956991 177.303 2.66045 179.006C4.3639 180.71 6.67428 181.667 9.08333 181.667H172.583C174.992 181.667 177.303 180.71 179.006 179.006C180.71 177.303 181.667 174.992 181.667 172.583C181.667 170.174 180.71 167.864 179.006 166.16C177.303 164.457 174.992 163.5 172.583 163.5ZM99.9167 163.5H81.75V127.167H99.9167V163.5ZM145.333 163.5H118.083V118.083C118.083 115.674 117.126 113.364 115.423 111.66C113.719 109.957 111.409 109 109 109H72.6667C70.2576 109 67.9472 109.957 66.2438 111.66C64.5403 113.364 63.5833 115.674 63.5833 118.083V163.5H36.3333V18.1667H145.333V163.5Z" fill="white"/>
</svg>
