<?xml version="1.0" encoding="UTF-8" standalone="no"?><svg width="201" height="28" viewBox="0 0 201 28" fill="none" xmlns="http://www.w3.org/2000/svg">
<path d="M7.41634 5.78765L7.45946 7.74588V7.87642H7.50257C7.54569 7.78939 7.58881 7.74588 7.63193 7.65884C8.62365 6.61446 9.83096 5.57007 12.763 5.57007C15.5657 5.57007 17.3767 7.96346 17.4629 9.48652V20.1915V22.8895H15.0483V19.7128V10.5744C15.0483 8.70323 13.4098 7.31071 11.3832 7.31071C9.70161 7.31071 7.58881 8.83378 7.50257 10.3568V20.148V20.235V22.846H5.08795V20.148V8.05049V5.78765H7.41634Z" fill="white"/>
<path d="M0 3.26374V0.565735H2.63021V20.1915V20.235V22.8895H0V20.1915V3.26374Z" fill="white"/>
<path d="M64.4187 13.4465C61.5298 12.0105 60.538 11.7059 60.538 10.0087C60.538 7.78941 62.349 7.13667 63.815 7.13667C65.4966 7.13667 66.5746 7.78941 68.0837 8.87732V6.30987C66.8764 5.8747 65.8416 5.70064 64.4618 5.70064C61.7022 5.70064 59.2014 6.70151 58.5546 9.05138L55.1483 17.5805L54.8033 18.6685L54.5015 17.5805L51.785 10.9226L49.8878 6.22283C48.8961 5.96174 47.3007 5.61361 46.1796 5.61361C46.0503 5.61361 45.9641 5.61361 45.8347 5.61361C42.6871 5.65712 39.6257 7.00612 39.6257 10.1828C39.6257 10.3569 39.6257 10.5309 39.6257 10.705C38.3321 7.65887 35.5726 5.52657 32.3818 5.52657C31.9937 5.52657 31.6057 5.57009 31.2607 5.61361H22.249C21.8609 3.30725 22.9389 2.00177 24.5343 2.00177C26.5608 2.00177 27.3801 2.61099 28.2856 3.39428C28.2856 3.39428 28.3287 3.39428 28.3718 3.39428C28.3718 3.39428 28.3718 3.30725 28.3718 3.13319V0.957378C27.8113 0.696281 26.8195 0.522217 25.0086 0.522217C22.2059 0.522217 20.2225 2.39341 19.9206 5.65712H17.7647V7.26722H19.8775V20.1915C19.8775 20.235 19.8775 20.2786 19.8775 20.3221V22.8895H22.2921V20.235V20.1915V7.26722H27.6819C25.6985 8.92083 24.3618 11.5753 24.3618 14.5779C24.3618 19.5388 27.9406 23.5858 32.3387 23.5858C36.7367 23.5858 40.3156 19.5388 40.3156 14.5779C40.3156 13.9687 40.2724 13.403 40.1862 12.8373C40.9623 14.1428 42.5146 14.752 44.5412 15.6223C46.9558 16.6667 48.2924 17.537 48.2924 19.1036C48.2924 20.9313 46.5677 21.8886 44.6274 21.8886C42.7302 21.8886 41.2642 21.1054 39.6257 19.6258V22.4979C40.6174 23.1506 42.1697 23.5423 43.8513 23.5423C45.9641 23.5423 50.319 22.759 50.319 18.3203C50.319 15.6658 48.12 14.4909 45.7054 13.4465C42.8164 12.0105 41.6954 11.7059 41.7385 10.0087C41.7385 7.78941 43.6357 7.13667 45.1448 7.13667C45.7916 7.13667 46.3521 7.2237 46.8695 7.39777C47.8613 7.78941 48.1631 8.52919 48.508 9.31248C48.6805 9.66061 48.7236 9.83467 48.7667 9.87819L53.3804 20.8878C52.6043 22.6284 51.7419 24.4996 51.1814 25.6746V25.7181L50.1465 27.7198H52.518C53.5529 25.4135 57.9078 14.7085 58.8564 12.4021C59.4601 14.0557 60.9692 14.752 63.2976 15.7529C65.7122 16.7973 67.0489 17.6676 67.0489 19.1906C67.0489 21.0183 65.3242 21.9757 63.3838 21.9757C61.4004 21.9757 59.8913 21.1489 58.1665 19.5388L57.9941 19.4082V22.3673C58.9427 23.1941 60.7105 23.6293 62.5646 23.6293C64.6774 23.6293 69.0323 22.846 69.0323 18.4074C69.0323 15.6223 66.7902 14.4909 64.4187 13.4465ZM32.4249 21.9757C29.4066 22.0192 26.9058 18.799 26.8195 14.752C26.7333 10.705 29.1479 7.35425 32.1662 7.31074C35.1845 7.26722 37.6854 10.4874 37.7716 14.5344C37.8147 18.6249 35.4432 21.9322 32.4249 21.9757Z" fill="white"/>
<line x1="82.5" y1="2.35986" x2="82.5" y2="25.3599" stroke="white"/>
<path d="M106.196 0.72023H113.335L123.417 24.6319H115.871L109.497 8.7548L105.285 19.1741H110.294L112.294 24.6319H96L106.196 0.72023ZM131.824 5.68182C132.556 5.68182 133.352 5.74584 134.149 5.9379V0.016004H140.459V23.5755C139.011 24.2157 135.889 25 132.767 25C127.108 25 122.246 21.831 122.246 15.509C122.246 9.18694 126.929 5.69782 131.824 5.69782V5.68182ZM132.621 19.8784C133.206 19.8784 133.678 19.7663 134.149 19.6223V10.9475C133.678 10.7714 133.206 10.6914 132.588 10.6914C130.523 10.6914 128.604 12.1959 128.604 15.3649C128.604 18.5339 130.556 19.8624 132.621 19.8624V19.8784ZM151.695 5.68182C156.948 5.68182 161.42 9.17093 161.42 15.3169C161.42 21.4629 156.964 24.952 151.695 24.952C146.427 24.952 141.939 21.4629 141.939 15.3169C141.939 9.17093 146.362 5.68182 151.695 5.68182ZM151.695 19.7823C153.5 19.7823 155.175 18.3579 155.175 15.3169C155.175 12.2759 153.5 10.8515 151.695 10.8515C149.89 10.8515 148.248 12.2759 148.248 15.3169C148.248 18.3579 149.809 19.7823 151.695 19.7823ZM162.932 0.016004H169.274V5.9379C170.038 5.79385 170.835 5.68182 171.632 5.68182C176.559 5.68182 181.129 8.85083 181.129 15.0608C181.129 21.6229 176.266 24.952 170.51 24.952C168.038 24.952 164.883 24.4558 162.932 23.5595V0V0.016004ZM170.656 19.8464C172.835 19.8464 174.819 18.3099 174.819 15.1408C174.819 12.1799 172.868 10.7875 170.754 10.7875C170.168 10.7875 169.697 10.8515 169.274 11.0435V19.6063C169.632 19.7503 170.103 19.8624 170.656 19.8624V19.8464ZM191.894 5.68182C196.642 5.68182 201 8.67477 201 14.7087C201 15.525 200.967 16.3092 200.854 17.0935H189.032C189.682 19.2061 191.568 20.1985 193.926 20.1985C195.845 20.1985 197.618 19.7343 199.618 18.886V23.6396C197.764 24.5679 195.552 24.952 193.276 24.952C187.259 24.952 182.576 21.3828 182.576 15.3169C182.576 9.25096 186.82 5.68182 191.894 5.68182ZM195.081 13.2042C194.756 11.1716 193.373 10.3553 191.959 10.3553C190.544 10.3553 189.389 11.2196 188.918 13.2042H195.081Z" fill="white"/>
</svg>
