<?xml version="1.0" encoding="UTF-8" standalone="no"?><svg width="110" height="36" viewBox="0 0 110 36" fill="none" xmlns="http://www.w3.org/2000/svg">
<g clip-path="url(#clip0_511_10175)">
<path d="M11.4088 5.74904H18.7648L29.1536 30.6172H21.3788L14.8103 14.105L10.4705 24.9411H15.6314L17.6924 30.6172H0.90271L11.4088 5.74904ZM37.8166 10.9091C38.5706 10.9091 39.3916 10.9757 40.2127 11.1754V5.01664H46.7141V29.5186C45.2228 30.1844 42.0056 31 38.7884 31C32.9573 31 27.9472 27.7042 27.9472 21.1293C27.9472 14.5544 32.773 10.9257 37.8166 10.9257V10.9091ZM38.6376 25.6735C39.2408 25.6735 39.7268 25.557 40.2127 25.4072V16.3854C39.7268 16.2023 39.2408 16.1191 38.6041 16.1191C36.4761 16.1191 34.4988 17.6837 34.4988 20.9795C34.4988 24.2753 36.5096 25.6569 38.6376 25.6569V25.6735ZM58.2926 10.9091C63.7049 10.9091 68.3128 14.5378 68.3128 20.9296C68.3128 27.3214 63.7216 30.9501 58.2926 30.9501C52.8636 30.9501 48.2389 27.3214 48.2389 20.9296C48.2389 14.5378 52.7966 10.9091 58.2926 10.9091ZM58.2926 25.5736C60.1525 25.5736 61.8784 24.0922 61.8784 20.9296C61.8784 17.767 60.1525 16.2855 58.2926 16.2855C56.4327 16.2855 54.7403 17.767 54.7403 20.9296C54.7403 24.0922 56.3489 25.5736 58.2926 25.5736ZM69.8711 5.01664H76.406V11.1754C77.1936 11.0256 78.0146 10.9091 78.8357 10.9091C83.9128 10.9091 88.6213 14.2049 88.6213 20.6633C88.6213 27.4878 83.6112 30.9501 77.6795 30.9501C75.1326 30.9501 71.8819 30.4341 69.8711 29.5019V5V5.01664ZM77.8303 25.6402C80.0756 25.6402 82.1199 24.0423 82.1199 20.7465C82.1199 17.6671 80.1091 16.219 77.9308 16.219C77.3276 16.219 76.8417 16.2855 76.406 16.4853V25.3905C76.7747 25.5403 77.2606 25.6569 77.8303 25.6569V25.6402ZM99.7139 10.9091C104.607 10.9091 109.097 14.0218 109.097 20.2971C109.097 21.146 109.064 21.9616 108.947 22.7772H96.7648C97.435 24.9744 99.3787 26.0064 101.808 26.0064C103.786 26.0064 105.612 25.5237 107.673 24.6415V29.5851C105.763 30.5506 103.484 30.9501 101.138 30.9501C94.9384 30.9501 90.1126 27.2382 90.1126 20.9296C90.1126 14.621 94.4859 10.9091 99.7139 10.9091ZM102.998 18.7324C102.663 16.6184 101.239 15.7695 99.7809 15.7695C98.3231 15.7695 97.1334 16.6684 96.6475 18.7324H102.998Z" fill="white"/>
</g>
<defs>
<clipPath id="clip0_511_10175">
<rect width="108.195" height="26" fill="white" transform="translate(0.90271 5)"/>
</clipPath>
</defs>
</svg>
