<?xml version="1.0" encoding="UTF-8" standalone="no"?><svg width="86" height="36" viewBox="0 0 86 36" fill="none" xmlns="http://www.w3.org/2000/svg">
<g clip-path="url(#clip0_511_11578)">
<path d="M40.4463 21.4265C40.4463 23.9694 39.0259 25.8392 36.7068 25.8392C35.436 25.8392 34.3136 25.166 33.7901 24.045V18.8109C34.2394 17.764 35.436 17.0167 36.7068 17.0167C39.0243 17.0167 40.4463 18.8866 40.4463 21.4279M44.7834 21.5035C44.7834 17.0167 42.2404 13.2772 37.6795 13.2772C36.0336 13.2772 34.4633 14.1001 33.7917 14.9231V6.54541H29.4546V29.2792H33.7917V28.0085C34.4649 28.8315 36.0351 29.6544 37.6795 29.6544C42.2404 29.6544 44.7834 25.9905 44.7834 21.5035ZM64.6746 29.2807H69.0117V19.0347C69.0117 15.5206 67.0678 13.2772 63.8517 13.2772C61.6083 13.2772 60.1122 14.1743 59.0654 15.2967C58.1683 14.1001 56.7478 13.2772 54.878 13.2772C53.158 13.2772 51.6619 13.9504 50.9146 14.9231V13.6524H46.7273V29.2822H51.0644V19.1846C51.3638 17.8382 52.4108 17.165 53.5317 17.165C55.0278 17.165 55.701 18.2859 55.701 19.9318V29.2792H60.0381V19.1846C60.2619 17.8382 61.3087 17.165 62.4313 17.165C63.9274 17.165 64.6746 18.2859 64.6746 19.9318V29.2792V29.2807ZM80.8279 18.8866H85.0909C84.6416 15.5963 82.1743 13.2787 78.2108 13.2787C73.7981 13.2787 70.7333 16.569 70.6576 21.3554C70.6576 26.1417 73.7981 29.5061 78.2108 29.5061C82.1743 29.5061 84.6416 27.2626 85.0909 23.8983H80.8279C80.5285 25.0949 79.6314 25.8422 78.2108 25.8422C76.1914 25.8422 74.9947 24.0481 74.9947 21.4295C74.9947 18.8109 76.1914 16.9426 78.2108 16.9426C79.6314 16.9426 80.6041 17.6899 80.8279 18.8866Z" fill="white"/>
<path d="M3.52444 3.9007V8.47505C3.52444 9.22454 4.19959 10.4246 4.87475 10.7994L13.6502 15.9746L18.8253 12.8991L3.52444 3.9007ZM13.6502 20.1013L4.87475 25.2765C4.19959 25.6512 3.52444 26.8513 3.52444 27.6023V32.1767L18.7495 23.1767L13.6502 20.1013ZM2.92515 36C1.5005 36 0 34.8758 0 32.7V27.6007C0 25.5753 1.27444 23.251 3.07536 22.2754L10.2001 18.0758L3.07536 13.8763C1.3503 12.7505 0 10.5005 0 8.47505V3.29989C0 1.12424 1.5005 0 2.9995 0C3.59878 0 4.27393 0.150202 4.87475 0.52495L20.9251 10.0499C22.0493 10.725 22.6502 11.7749 22.6502 12.8249C22.6502 13.9491 21.9751 15.0005 20.9251 15.5998L17.1003 17.8498L20.9251 20.0998C22.0493 20.7749 22.7246 21.8249 22.7246 22.8747C22.7246 24.0005 22.0493 25.0504 20.9251 25.6497L4.87475 35.4751C4.19959 35.8498 3.6003 36 2.92515 36Z" fill="white"/>
</g>
<defs>
<clipPath id="clip0_511_11578">
<rect width="85.5" height="36" fill="white"/>
</clipPath>
</defs>
</svg>
