<?xml version="1.0" encoding="UTF-8" standalone="no"?><svg width="46" height="46" viewBox="0 0 46 46" fill="none" xmlns="http://www.w3.org/2000/svg">
<g clip-path="url(#clip0_594_4230)">
<path d="M30.3031 28.9084C32.2068 28.9084 33.75 27.3651 33.75 25.4615C33.75 23.5578 32.2068 22.0146 30.3031 22.0146C28.3994 22.0146 26.8562 23.5578 26.8562 25.4615C26.8562 27.3651 28.3994 28.9084 30.3031 28.9084Z" stroke="white" stroke-width="0.697996" stroke-linecap="round" stroke-linejoin="round"/>
<path d="M36.7045 45.6504L34.4025 34.9109C34.0221 33.1333 32.7652 32.2322 30.7956 31.8629L24.8866 30.8781L19.0294 25.5895C19.0294 25.5895 17.0868 28.9084 19.2374 30.9396L23.4623 35.1202L29.9203 37.0948" stroke="white" stroke-width="0.697996" stroke-linecap="round" stroke-linejoin="round"/>
<path d="M27.841 45.6505L25.8837 35.8613" stroke="white" stroke-width="0.697996" stroke-linecap="round" stroke-linejoin="round"/>
<path d="M8.10766 31.8629C10.0113 31.8629 11.5545 30.3197 11.5545 28.416C11.5545 26.5123 10.0113 24.9691 8.10766 24.9691C6.20399 24.9691 4.66077 26.5123 4.66077 28.416C4.66077 30.3197 6.20399 31.8629 8.10766 31.8629Z" stroke="white" stroke-width="0.697996" stroke-linecap="round" stroke-linejoin="round"/>
<path d="M0.348389 45.6504L3.00988 37.9737C3.6931 36.0484 4.49574 34.8173 7.61517 34.8173H18.4483C18.4483 34.8173 17.7564 38.4624 14.3945 38.8711C11.7096 39.1973 8.75142 39.558 7.66934 39.6898" stroke="white" stroke-width="0.697996" stroke-linecap="round" stroke-linejoin="round"/>
<path d="M8.06689 45.6504L10.3332 39.366" stroke="white" stroke-width="0.697996" stroke-linecap="round" stroke-linejoin="round"/>
<path d="M25.944 20.7824L23.3589 20.6039C23.1003 19.4947 22.6609 18.4225 22.0367 17.429L23.7269 15.468L20.6297 12.3855L18.6772 14.0868C17.6813 13.4688 16.6066 13.0343 15.4962 12.7807L15.3054 10.1955L10.9353 10.2066L10.7568 12.7917C9.64761 13.0503 8.57538 13.4897 7.58194 14.1139L5.6209 12.4237L2.5384 15.5209L4.23845 17.4734C3.62047 18.4693 3.18592 19.544 2.93356 20.6543L0.348389 20.8452L0.359468 25.2153L2.94464 25.3938" stroke="white" stroke-width="0.697996" stroke-linejoin="round"/>
<path d="M9.5614 21.569C10.1191 20.1029 11.5384 19.0614 13.2003 19.0614C15.3497 19.0614 17.0916 20.8045 17.0916 22.9539C17.0916 24.5666 16.1117 25.949 14.7145 26.5399" stroke="white" stroke-width="0.697996" stroke-linejoin="round"/>
<path d="M35.8612 25.4283C36.4534 25.1833 37.0295 24.8866 37.5835 24.5382L39.771 26.4242L43.208 22.9687L41.311 20.791C42.0004 19.6794 42.4842 18.4803 42.7673 17.2419L45.6504 17.0289L45.6381 12.1553L42.7538 11.9571C42.4645 10.7199 41.9746 9.52334 41.279 8.41664L43.165 6.22909L39.7095 2.79082L37.5318 4.68784C36.4214 3.99846 35.2211 3.51467 33.9839 3.23153L33.7709 0.34845L28.8973 0.36076L28.6991 3.24507C27.4619 3.53436 26.2653 4.02431 25.1586 4.71985L22.9711 2.8339L19.5341 6.28941L21.4311 8.46711C21.0864 9.02231 20.7934 9.59966 20.5509 10.193" stroke="white" stroke-width="0.697996" stroke-linejoin="round"/>
<path d="M31.3704 18.9124C33.7364 18.9124 35.6544 16.9944 35.6544 14.6284C35.6544 12.2624 33.7364 10.3444 31.3704 10.3444C29.0044 10.3444 27.0864 12.2624 27.0864 14.6284C27.0864 16.9944 29.0044 18.9124 31.3704 18.9124Z" stroke="white" stroke-width="0.697996" stroke-linejoin="round"/>
</g>
<defs>
<clipPath id="clip0_594_4230">
<rect width="46" height="46" fill="white"/>
</clipPath>
</defs>
</svg>
