<?xml version="1.0" encoding="UTF-8" standalone="no"?><svg width="72" height="72" viewBox="0 0 72 72" fill="none" xmlns="http://www.w3.org/2000/svg">
<path d="M9.16223 50.8333C9.16223 53.4855 10.2158 56.029 12.0912 57.9044C13.9665 59.7798 16.5101 60.8333 19.1622 60.8333C19.1622 63.0435 20.0402 65.1631 21.603 66.7259C23.1658 68.2887 25.2854 69.1667 27.4956 69.1667C29.7057 69.1667 31.8253 68.2887 33.3881 66.7259C34.9509 65.1631 35.8289 63.0435 35.8289 60.8333C35.8289 63.0435 36.7069 65.1631 38.2697 66.7259C39.8325 68.2887 41.9521 69.1667 44.1622 69.1667C46.3724 69.1667 48.492 68.2887 50.0548 66.7259C51.6176 65.1631 52.4956 63.0435 52.4956 60.8333C54.2689 60.8338 56.0105 60.3628 57.5418 59.4684C59.0731 58.574 60.339 57.2886 61.2098 55.7438C62.0806 54.1989 62.5249 52.4503 62.4972 50.6772C62.4695 48.9041 61.9708 47.1702 61.0522 45.6533C63.3338 45.2125 65.3906 43.9911 66.8697 42.1989C68.3488 40.4066 69.1578 38.1554 69.1578 35.8317C69.1578 33.5079 68.3488 31.2567 66.8697 29.4645C65.3906 27.6722 63.3338 26.4508 61.0522 26.01C61.97 24.4932 62.468 22.7597 62.4952 20.987C62.5225 19.2144 62.078 17.4664 61.2073 15.9221C60.3366 14.3778 59.071 13.0927 57.5402 12.1985C56.0094 11.3043 54.2684 10.8332 52.4956 10.8333C52.4956 8.6232 51.6176 6.50358 50.0548 4.94078C48.492 3.37797 46.3724 2.5 44.1622 2.5C41.9521 2.5 39.8325 3.37797 38.2697 4.94078C36.7069 6.50358 35.8289 8.6232 35.8289 10.8333C35.8289 8.6232 34.9509 6.50358 33.3881 4.94078C31.8253 3.37797 29.7057 2.5 27.4956 2.5C25.2854 2.5 23.1658 3.37797 21.603 4.94078C20.0402 6.50358 19.1622 8.6232 19.1622 10.8333C17.3894 10.8332 15.6484 11.3043 14.1176 12.1985C12.5868 13.0927 11.3212 14.3778 10.4505 15.9221C9.5798 17.4664 9.13532 19.2144 9.16257 20.987C9.18981 22.7597 9.68782 24.4932 10.6056 26.01C8.32403 26.4508 6.26714 27.6722 4.78806 29.4645C3.30899 31.2567 2.5 33.5079 2.5 35.8317C2.5 38.1554 3.30899 40.4066 4.78806 42.1989C6.26714 43.9911 8.32403 45.2125 10.6056 45.6533C9.66052 47.2158 9.16136 49.0073 9.16223 50.8333Z" stroke="white" stroke-width="5" stroke-linecap="round" stroke-linejoin="round"/>
<path d="M20.8289 44.1665L26.9689 25.7465C27.123 25.2868 27.4176 24.8872 27.8112 24.604C28.2048 24.3209 28.6774 24.1686 29.1622 24.1686C29.647 24.1686 30.1196 24.3209 30.5132 24.604C30.9067 24.8872 31.2014 25.2868 31.3555 25.7465L37.4955 44.1665M47.4955 24.1665V44.1665M24.1622 37.4998H34.1622" stroke="white" stroke-width="5" stroke-linecap="round" stroke-linejoin="round"/>
</svg>
