<?xml version="1.0" encoding="UTF-8" standalone="no"?><svg width="144" height="144" viewBox="0 0 144 144" fill="none" xmlns="http://www.w3.org/2000/svg">
<path d="M39.9 48.9C40.5 49.5 41.2 49.8 42 49.8C42.8 49.8 43.5 49.5 44.1 48.9L51.9 41.1C52.5 40.5 52.8 39.8 52.8 39C52.8 38.2 52.5 37.5 51.9 36.9L44.1 29.1C43.5 28.5 42.8 28.2 42 28.2C41.2 28.2 40.5 28.5 39.9 29.1L32.1 36.9C31.5 37.5 31.2 38.2 31.2 39C31.2 39.8 31.5 40.5 32.1 41.1L39.9 48.9ZM24 84C20.7 84 17.876 82.826 15.528 80.478C13.18 78.13 12.004 75.304 12 72V18C12 14.7 13.176 11.876 15.528 9.528C17.88 7.18 20.704 6.004 24 6H120C123.3 6 126.126 7.176 128.478 9.528C130.83 11.88 132.004 14.704 132 18V72C132 75.3 130.826 78.126 128.478 80.478C126.13 82.83 123.304 84.004 120 84H107.85C106.15 84 104.75 83.424 103.65 82.272C102.55 81.12 102 79.696 102 78C102 76.304 102.576 74.88 103.728 73.728C104.88 72.576 106.304 72 108 72H120V18H24V72H36C37.7 72 39.126 72.576 40.278 73.728C41.43 74.88 42.004 76.304 42 78C41.996 79.696 41.42 81.122 40.272 82.278C39.124 83.434 37.7 84.008 36 84H24ZM99 42C101.5 42 103.626 41.126 105.378 39.378C107.13 37.63 108.004 35.504 108 33C107.996 30.496 107.122 28.372 105.378 26.628C103.634 24.884 101.508 24.008 99 24C96.492 23.992 94.368 24.868 92.628 26.628C90.888 28.388 90.012 30.512 90 33C89.988 35.488 90.864 37.614 92.628 39.378C94.392 41.142 96.516 42.016 99 42ZM36 138C34.3 138 32.876 137.424 31.728 136.272C30.58 135.12 30.004 133.696 30 132V125.4C30 121.9 30.976 118.65 32.928 115.65C34.88 112.65 37.454 110.4 40.65 108.9C45.55 106.6 50.65 104.876 55.95 103.728C61.25 102.58 66.6 102.004 72 102C77.4 101.996 82.75 102.572 88.05 103.728C93.35 104.884 98.45 106.608 103.35 108.9C106.55 110.4 109.126 112.65 111.078 115.65C113.03 118.65 114.004 121.9 114 125.4V132C114 133.7 113.426 135.126 112.278 136.278C111.13 137.43 109.704 138.004 108 138H36ZM42 126H102V125.4C102 124.2 101.65 123.1 100.95 122.1C100.25 121.1 99.35 120.35 98.25 119.85C94.05 117.95 89.75 116.5 85.35 115.5C80.95 114.5 76.5 114 72 114C67.5 114 63.05 114.5 58.65 115.5C54.25 116.5 49.95 117.95 45.75 119.85C44.65 120.35 43.75 121.1 43.05 122.1C42.35 123.1 42 124.2 42 125.4V126ZM57.15 89.85C53.05 85.75 51 80.8 51 75C51 69.2 53.05 64.25 57.15 60.15C61.25 56.05 66.2 54 72 54C77.8 54 82.75 56.05 86.85 60.15C90.95 64.25 93 69.2 93 75C93 80.8 90.95 85.75 86.85 89.85C82.75 93.95 77.8 96 72 96C66.2 96 61.25 93.95 57.15 89.85ZM78.378 81.378C80.126 79.626 81 77.5 81 75C81 72.5 80.126 70.376 78.378 68.628C76.63 66.88 74.504 66.004 72 66C69.496 65.996 67.372 66.872 65.628 68.628C63.884 70.384 63.008 72.508 63 75C62.992 77.492 63.868 79.618 65.628 81.378C67.388 83.138 69.512 84.012 72 84C74.488 83.988 76.614 83.114 78.378 81.378Z" fill="white"/>
</svg>
