<?xml version="1.0" encoding="UTF-8" standalone="no"?><svg width="218" height="218" viewBox="0 0 218 218" fill="none" xmlns="http://www.w3.org/2000/svg">
<path d="M9.08336 181.667C6.50975 181.667 4.35398 180.795 2.61603 179.051C0.878087 177.307 0.00608688 175.151 3.13218e-05 172.583C-0.00602423 170.016 0.865976 167.86 2.61603 166.116C4.36609 164.372 6.52186 163.5 9.08336 163.5H18.1667V45.4167C18.1667 40.4208 19.947 36.1456 23.5077 32.591C27.0684 29.0364 31.3436 27.2561 36.3334 27.25H181.667C186.663 27.25 190.941 29.0303 194.501 32.591C198.062 36.1517 199.839 40.4269 199.833 45.4167V163.5H208.917C211.49 163.5 213.649 164.372 215.393 166.116C217.137 167.86 218.006 170.016 218 172.583C217.994 175.151 217.122 177.31 215.384 179.06C213.646 180.81 211.49 181.679 208.917 181.667H9.08336ZM95.375 163.5H122.625C123.836 163.5 124.896 163.046 125.804 162.137C126.713 161.229 127.167 160.169 127.167 158.958C127.167 157.747 126.713 156.687 125.804 155.779C124.896 154.871 123.836 154.417 122.625 154.417H95.375C94.1639 154.417 93.1042 154.871 92.1959 155.779C91.2875 156.687 90.8334 157.747 90.8334 158.958C90.8334 160.169 91.2875 161.229 92.1959 162.137C93.1042 163.046 94.1639 163.5 95.375 163.5ZM36.3334 136.25H181.667V45.4167H36.3334V136.25Z" fill="white"/>
</svg>
