<?xml version="1.0" encoding="UTF-8" standalone="no"?><svg width="54" height="66" viewBox="0 0 54 66" fill="none" xmlns="http://www.w3.org/2000/svg">
<path d="M20 46.1667H33.3333C34.2778 46.1667 35.07 45.8467 35.71 45.2067C36.35 44.5667 36.6689 43.7756 36.6667 42.8333V32.8333C36.6667 31.8889 36.3467 31.0978 35.7067 30.46C35.0667 29.8222 34.2756 29.5022 33.3333 29.5V26.1667C33.3333 24.3333 32.6811 22.7644 31.3767 21.46C30.0722 20.1556 28.5022 19.5022 26.6667 19.5C24.8311 19.4978 23.2622 20.1511 21.96 21.46C20.6578 22.7689 20.0044 24.3378 20 26.1667V29.5C19.0556 29.5 18.2644 29.82 17.6267 30.46C16.9889 31.1 16.6689 31.8911 16.6667 32.8333V42.8333C16.6667 43.7778 16.9867 44.57 17.6267 45.21C18.2667 45.85 19.0578 46.1689 20 46.1667ZM23.3333 29.5V26.1667C23.3333 25.2222 23.6533 24.4311 24.2933 23.7933C24.9333 23.1556 25.7244 22.8356 26.6667 22.8333C27.6089 22.8311 28.4011 23.1511 29.0433 23.7933C29.6856 24.4356 30.0044 25.2267 30 26.1667V29.5H23.3333ZM25.5833 65.75C25.25 65.6944 24.9167 65.6111 24.5833 65.5C17.0833 63 11.1111 58.3744 6.66667 51.6233C2.22222 44.8722 0 37.6089 0 29.8333V14.0833C0 12.6944 0.403333 11.4444 1.21 10.3333C2.01667 9.22222 3.05778 8.41667 4.33333 7.91667L24.3333 0.416667C25.1111 0.138889 25.8889 0 26.6667 0C27.4444 0 28.2222 0.138889 29 0.416667L49 7.91667C50.2778 8.41667 51.32 9.22222 52.1267 10.3333C52.9333 11.4444 53.3356 12.6944 53.3333 14.0833V29.8333C53.3333 37.6111 51.1111 44.8756 46.6667 51.6267C42.2222 58.3778 36.25 63.0022 28.75 65.5C28.4167 65.6111 28.0833 65.6944 27.75 65.75C27.4167 65.8055 27.0556 65.8333 26.6667 65.8333C26.2778 65.8333 25.9167 65.8055 25.5833 65.75Z" fill="white"/>
</svg>
