<?xml version="1.0" encoding="UTF-8" standalone="no"?><svg width="50" height="50" viewBox="0 0 50 50" fill="none" xmlns="http://www.w3.org/2000/svg">
<path d="M25.0003 33.3327L33.3337 24.9993L25.0003 16.666L22.0837 19.5827L25.417 22.916H16.667V27.0827H25.417L22.0837 30.416L25.0003 33.3327ZM25.0003 45.8327C22.1184 45.8327 19.4101 45.2855 16.8753 44.191C14.3406 43.0966 12.1357 41.6125 10.2607 39.7389C8.38575 37.8653 6.90172 35.6605 5.80866 33.1243C4.71561 30.5882 4.16838 27.8799 4.16699 24.9993C4.16561 22.1188 4.71283 19.4105 5.80866 16.8743C6.9045 14.3382 8.38852 12.1334 10.2607 10.2598C12.133 8.38615 14.3378 6.90213 16.8753 5.80768C19.4128 4.71324 22.1212 4.16602 25.0003 4.16602C27.8795 4.16602 30.5878 4.71324 33.1253 5.80768C35.6628 6.90213 37.8677 8.38615 39.7399 10.2598C41.6121 12.1334 43.0969 14.3382 44.1941 16.8743C45.2913 19.4105 45.8378 22.1188 45.8337 24.9993C45.8295 27.8799 45.2823 30.5882 44.192 33.1243C43.1017 35.6605 41.6177 37.8653 39.7399 39.7389C37.8621 41.6125 35.6573 43.0973 33.1253 44.1931C30.5934 45.2889 27.885 45.8355 25.0003 45.8327ZM25.0003 41.666C29.6531 41.666 33.5941 40.0514 36.8232 36.8223C40.0524 33.5931 41.667 29.6521 41.667 24.9993C41.667 20.3466 40.0524 16.4056 36.8232 13.1764C33.5941 9.94727 29.6531 8.33268 25.0003 8.33268C20.3475 8.33268 16.4066 9.94727 13.1774 13.1764C9.94824 16.4056 8.33366 20.3466 8.33366 24.9993C8.33366 29.6521 9.94824 33.5931 13.1774 36.8223C16.4066 40.0514 20.3475 41.666 25.0003 41.666Z" fill="white"/>
</svg>
