<?xml version="1.0" encoding="UTF-8" standalone="no"?><svg width="218" height="218" viewBox="0 0 218 218" fill="none" xmlns="http://www.w3.org/2000/svg">
<path d="M170.767 208.917C168.647 208.917 166.794 208.235 165.208 206.873C163.621 205.51 162.598 203.77 162.137 201.65L160.775 195.292C158.958 194.535 157.257 193.742 155.67 192.912C154.084 192.082 152.455 191.059 150.783 189.842L144.198 191.885C142.23 192.491 140.301 192.415 138.412 191.658C136.522 190.901 135.045 189.69 133.979 188.025L132.162 184.846C131.103 183.029 130.724 181.061 131.027 178.942C131.33 176.822 132.314 175.081 133.979 173.719L138.975 169.404C138.672 167.588 138.521 165.62 138.521 163.5C138.521 161.381 138.672 159.413 138.975 157.596L133.979 153.281C132.314 151.919 131.33 150.217 131.027 148.176C130.724 146.136 131.103 144.204 132.162 142.381L134.206 138.975C135.266 137.31 136.704 136.099 138.521 135.342C140.337 134.585 142.23 134.509 144.198 135.115L150.783 137.158C152.449 135.947 154.078 134.927 155.67 134.097C157.263 133.268 158.964 132.471 160.775 131.708L162.137 125.123C162.592 123.004 163.612 121.302 165.199 120.018C166.785 118.734 168.641 118.089 170.767 118.083H174.4C176.519 118.083 178.375 118.765 179.968 120.127C181.561 121.49 182.581 123.231 183.029 125.35L184.392 131.708C186.208 132.465 187.91 133.259 189.496 134.088C191.083 134.918 192.712 135.941 194.383 137.158L200.969 135.115C202.937 134.509 204.868 134.585 206.764 135.342C208.659 136.099 210.134 137.31 211.187 138.975L213.004 142.154C214.064 143.971 214.442 145.939 214.14 148.058C213.837 150.178 212.853 151.919 211.187 153.281L206.192 157.596C206.494 159.413 206.646 161.381 206.646 163.5C206.646 165.62 206.494 167.588 206.192 169.404L211.187 173.719C212.853 175.081 213.837 176.786 214.14 178.833C214.442 180.88 214.064 182.808 213.004 184.619L210.96 188.025C209.901 189.69 208.462 190.901 206.646 191.658C204.829 192.415 202.937 192.491 200.969 191.885L194.383 189.842C192.718 191.053 191.092 192.073 189.506 192.903C187.919 193.732 186.214 194.529 184.392 195.292L183.029 201.877C182.575 203.997 181.555 205.701 179.968 206.991C178.381 208.281 176.525 208.923 174.4 208.917H170.767ZM185.418 176.326C188.973 172.777 190.75 168.502 190.75 163.5C190.75 158.498 188.973 154.223 185.418 150.674C181.863 147.126 177.585 145.346 172.583 145.333C167.581 145.321 163.306 147.102 159.758 150.674C156.209 154.247 154.429 158.522 154.417 163.5C154.405 168.478 156.185 172.756 159.758 176.335C163.33 179.914 167.606 181.691 172.583 181.667C177.561 181.643 181.839 179.856 185.418 176.326ZM40.1937 199.833C36.1062 199.833 33.2692 197.98 31.6826 194.274C30.0961 190.568 30.738 187.274 33.6083 184.392L184.392 33.6084C187.268 30.732 190.562 30.0871 194.274 31.6737C197.986 33.2602 199.839 36.1003 199.833 40.1938V94.4667C199.833 97.1917 198.698 99.3112 196.427 100.825C194.156 102.339 191.734 102.717 189.16 101.96C186.435 101.204 183.635 100.674 180.758 100.371C177.882 100.068 175.157 99.9167 172.583 99.9167C154.871 99.9167 139.808 106.084 127.394 118.419C114.98 130.755 108.773 145.782 108.773 163.5C108.773 168.042 109.227 172.432 110.135 176.671C111.044 180.91 112.331 184.997 113.996 188.933C115.207 191.507 115.095 193.969 113.66 196.318C112.225 198.668 110.217 199.839 107.637 199.833H40.1937Z" fill="white"/>
</svg>
