<?xml version="1.0" encoding="UTF-8" standalone="no"?><svg width="44" height="48" viewBox="0 0 44 48" fill="none" xmlns="http://www.w3.org/2000/svg">
<g clip-path="url(#clip0_594_4256)">
<path d="M37.3232 19.3175L36.4796 19.9701" stroke="white" stroke-width="0.731322" stroke-linejoin="round"/>
<path d="M30.2886 10.6835C27.9257 10.6835 26.1613 8.72037 26.1613 6.29811V4.75034C26.1613 2.32808 27.9257 0.36499 30.2886 0.36499C32.6516 0.36499 34.416 2.32808 34.416 4.75034V6.29811C34.416 8.72037 32.6516 10.6835 30.2886 10.6835Z" stroke="white" stroke-width="0.731322" stroke-linejoin="round"/>
<path d="M26.1613 25.3576V47.8299" stroke="white" stroke-width="0.731322" stroke-linejoin="round"/>
<path d="M37.5115 26.1612V47.83" stroke="white" stroke-width="0.731322" stroke-linejoin="round"/>
<path d="M32.5278 24.5167C32.5278 24.5167 33.9762 25.2274 34.594 25.5228C35.0236 25.7278 35.5124 26.1625 36.4797 26.1625H40.6071C42.5161 26.1625 43.5943 24.0666 43.0578 22.5433C42.5212 21.02 40.8393 17.179 40.8393 17.179C39.801 14.6342 38.6286 13.819 35.6697 13.7816H28.0044L25.1307 13.7803C23.2141 13.7803 21.34 15.3088 21.785 17.3608C22.0326 18.5036 22.6878 19.9779 23.0154 20.9723C23.3443 21.9655 23.8074 23.1431 24.2691 23.5816C24.7309 24.0201 25.8608 25.0945 25.8608 25.0945C26.9248 26.1057 28.1644 26.4321 29.5728 25.9303L34.5038 23.5739C35.7355 22.9883 36.481 22.5846 36.481 21.2715V19.9714H29.2581L28.581 18.4623" stroke="white" stroke-width="0.731322" stroke-linejoin="round"/>
<path d="M32.3523 33.3841V47.83" stroke="white" stroke-width="0.731322" stroke-linejoin="round"/>
<path d="M14.8109 37.5115C12.5808 37.5115 10.6835 35.391 10.6835 33.3841V25.1293C10.6835 21.7204 15.3539 19.9701 18.9382 19.9701" stroke="white" stroke-width="0.731322" stroke-linejoin="round"/>
<path d="M14.8109 26.1612V47.83" stroke="white" stroke-width="0.731322" stroke-linejoin="round"/>
<path d="M22.0338 11.7154V10.2708C22.0338 8.07297 20.5273 6.55615 18.4224 6.55615C16.3174 6.55615 14.8109 8.07297 14.8109 10.2708V12.1281C14.8109 14.326 16.3187 15.8428 18.4224 15.8428" stroke="white" stroke-width="0.731322" stroke-linejoin="round"/>
<path d="M4.49238 40.6071C2.2623 40.6071 0.36499 38.4866 0.36499 36.4797V31.3204C0.36499 27.9115 4.00354 26.1612 7.58792 26.1612" stroke="white" stroke-width="0.731322" stroke-linejoin="round"/>
<path d="M4.49243 32.3523V47.83" stroke="white" stroke-width="0.731322" stroke-linejoin="round"/>
<path d="M11.7154 18.3192V16.4618C11.7154 14.264 10.2089 12.7472 8.1039 12.7472C5.99893 12.7472 4.49243 14.264 4.49243 16.4618V18.3192C4.49243 20.517 6.00022 22.0338 8.1039 22.0338" stroke="white" stroke-width="0.731322" stroke-linejoin="round"/>
</g>
<defs>
<clipPath id="clip0_594_4256">
<rect width="43.562" height="47.83" fill="white"/>
</clipPath>
</defs>
</svg>
