<?xml version="1.0" encoding="UTF-8" standalone="no"?><svg width="218" height="218" viewBox="0 0 218 218" fill="none" xmlns="http://www.w3.org/2000/svg">
<path d="M73.5749 192.685C62.5235 187.913 52.9103 181.439 44.7353 173.264C36.5603 165.089 30.0899 155.476 25.3242 144.425C20.5585 133.373 18.1726 121.565 18.1665 109C18.1605 96.4346 20.5463 84.6262 25.3242 73.5749C30.102 62.5235 36.5724 52.9103 44.7353 44.7353C52.8982 36.5603 62.5114 30.0899 73.5749 25.3242C84.6384 20.5585 96.4467 18.1726 109 18.1665C121.553 18.1605 133.361 20.5463 144.425 25.3242C155.488 30.102 165.102 36.5724 173.264 44.7353C181.427 52.8982 187.901 62.5114 192.685 73.5749C197.468 84.6384 199.851 96.4467 199.833 109C199.815 121.553 197.429 133.361 192.676 144.425C187.922 155.488 181.452 165.102 173.264 173.264C165.077 181.427 155.464 187.901 144.425 192.685C133.386 197.468 121.577 199.851 109 199.833C96.4225 199.815 84.6141 197.438 73.5749 192.685ZM72.6665 90.8332H90.8332V72.6665H72.6665V90.8332ZM99.9165 90.8332H118.083V72.6665H99.9165V90.8332ZM127.167 90.8332H145.333V72.6665H127.167V90.8332ZM72.6665 118.083H90.8332V99.9165H72.6665V118.083ZM99.9165 118.083H118.083V99.9165H99.9165V118.083ZM127.167 118.083H145.333V99.9165H127.167V118.083ZM72.6665 145.333H90.8332V127.167H72.6665V145.333ZM99.9165 145.333H118.083V127.167H99.9165V145.333ZM127.167 145.333H145.333V127.167H127.167V145.333Z" fill="white"/>
</svg>
