<?xml version="1.0" encoding="UTF-8" standalone="no"?><svg width="50" height="50" viewBox="0 0 50 50" fill="none" xmlns="http://www.w3.org/2000/svg">
<g clip-path="url(#clip0_594_4419)">
<path d="M15.3833 7.90314V18.5886" stroke="white" stroke-width="0.844529" stroke-linecap="round" stroke-linejoin="round"/>
<path d="M15.3833 20.726V22.8633" stroke="white" stroke-width="0.844529" stroke-linecap="round" stroke-linejoin="round"/>
<path d="M15.3818 0.421509C16.2919 0.421509 17.0903 0.930907 17.5267 1.6816L29.995 23.3206C30.2065 23.69 30.3436 24.1219 30.3436 24.5926C30.3436 25.9912 29.222 27.1366 27.8502 27.1366H2.91647C1.54467 27.1366 0.423096 25.9927 0.423096 24.5926C0.423096 24.1219 0.560127 23.69 0.771632 23.3206L13.2385 1.6816C13.6749 0.930907 14.4733 0.421509 15.3833 0.421509H15.3818ZM15.3818 0.421509C14.4718 0.421509 16.2919 0.421509 15.3818 0.421509Z" stroke="white" stroke-width="0.844529" stroke-linecap="round" stroke-linejoin="round"/>
<path d="M28.2061 13.5333C29.2428 13.3411 30.3226 13.2443 31.4114 13.2443C32.5002 13.2443 33.5801 13.3411 34.6168 13.5333V17.893C36.0809 18.2355 37.4587 18.812 38.6994 19.5924L41.7871 16.5048C43.561 17.7336 45.0892 19.2618 46.3181 21.0357L43.2304 24.1234C44.0109 25.3626 44.5873 26.7419 44.9299 28.206H49.2896C49.4817 29.2427 49.5785 30.3226 49.5785 31.4114C49.5785 32.5002 49.4817 33.5801 49.2896 34.6167H44.9299C44.5873 36.0809 44.0109 37.4586 43.2304 38.6994L46.3181 41.787C45.0892 43.561 43.561 45.0892 41.7871 46.318L38.6994 43.2303C37.4602 44.0108 36.0809 44.5872 34.6168 44.9298V49.2895C33.5801 49.4816 32.5002 49.5784 31.4114 49.5784C30.3226 49.5784 29.2428 49.4816 28.2061 49.2895V44.9298C26.742 44.5872 25.3642 44.0108 24.1235 43.2303L21.0358 46.318C19.2618 45.0892 17.7336 43.561 16.5048 41.787L19.5925 38.6994C18.812 37.4601 18.2356 36.0809 17.893 34.6167H13.5333C13.3412 33.5801 13.2444 32.5002 13.2444 31.4114C13.2444 31.048 13.2548 30.6949 13.2876 30.3434" stroke="white" stroke-width="0.844529" stroke-linecap="round" stroke-linejoin="round"/>
<path d="M33.3461 23.0868C37.1398 23.9626 39.9609 27.3511 39.9609 31.4114C39.9609 36.1345 36.1359 39.9595 31.4128 39.9595C26.6897 39.9595 22.8647 36.1345 22.8647 31.4114C22.8647 31.048 22.8856 30.695 22.9288 30.3435" stroke="white" stroke-width="0.844529" stroke-linecap="round" stroke-linejoin="round"/>
</g>
<defs>
<clipPath id="clip0_594_4419">
<rect width="50" height="50" fill="white"/>
</clipPath>
</defs>
</svg>
