<?xml version="1.0" encoding="UTF-8" standalone="no"?><svg width="67" height="69" viewBox="0 0 67 69" fill="none" xmlns="http://www.w3.org/2000/svg">
<path d="M11.6667 68.3333L0 56.6667L11.6667 45L16.4167 49.6667L12.75 53.3333H53.9167L50.3333 49.6667L55 45L66.6667 56.6667L55 68.3333L50.25 63.6667L53.9167 60H12.75L16.3333 63.6667L11.6667 68.3333ZM33.3333 30C30.5556 30 28.1944 29.0278 26.25 27.0833C24.3056 25.1389 23.3333 22.7778 23.3333 20C23.3333 17.2222 24.3056 14.8611 26.25 12.9167C28.1944 10.9722 30.5556 10 33.3333 10C36.1111 10 38.4722 10.9722 40.4167 12.9167C42.3611 14.8611 43.3333 17.2222 43.3333 20C43.3333 22.7778 42.3611 25.1389 40.4167 27.0833C38.4722 29.0278 36.1111 30 33.3333 30ZM10 40C8.16667 40 6.59778 39.3478 5.29333 38.0433C3.98889 36.7389 3.33556 35.1689 3.33333 33.3333V6.66667C3.33333 4.83333 3.98667 3.26444 5.29333 1.96C6.6 0.655556 8.16889 0.00222222 10 0H56.6667C58.5 0 60.07 0.653333 61.3767 1.96C62.6833 3.26667 63.3356 4.83556 63.3333 6.66667V33.3333C63.3333 35.1667 62.6811 36.7367 61.3767 38.0433C60.0722 39.35 58.5022 40.0022 56.6667 40H10ZM16.6667 33.3333H50C50 31.5 50.6533 29.9311 51.96 28.6267C53.2667 27.3222 54.8356 26.6689 56.6667 26.6667V13.3333C54.8333 13.3333 53.2644 12.6811 51.96 11.3767C50.6556 10.0722 50.0022 8.50222 50 6.66667H16.6667C16.6667 8.5 16.0144 10.07 14.71 11.3767C13.4056 12.6833 11.8356 13.3356 10 13.3333V26.6667C11.8333 26.6667 13.4033 27.32 14.71 28.6267C16.0167 29.9333 16.6689 31.5022 16.6667 33.3333Z" fill="white"/>
</svg>
