<?xml version="1.0" encoding="UTF-8" standalone="no"?><svg width="218" height="218" viewBox="0 0 218 218" fill="none" xmlns="http://www.w3.org/2000/svg">
<path d="M109 199.833C87.957 194.535 70.5836 182.46 56.8799 163.609C43.1762 144.758 36.3273 123.83 36.3334 100.825V45.4165L109 18.1665L181.667 45.4165V100.825C181.667 123.836 174.818 144.767 161.12 163.618C147.423 182.469 130.049 194.541 109 199.833ZM90.8334 145.333H127.167C129.74 145.333 131.899 144.461 133.643 142.717C135.387 140.973 136.256 138.817 136.25 136.25V109C136.25 106.426 135.378 104.27 133.634 102.533C131.89 100.795 129.734 99.9226 127.167 99.9165V90.8332C127.167 85.8373 125.389 81.5621 121.835 78.0075C118.28 74.4529 114.002 72.6726 109 72.6665C103.998 72.6604 99.7229 74.4408 96.1744 78.0075C92.6258 81.5742 90.8455 85.8494 90.8334 90.8332V99.9165C88.2598 99.9165 86.104 100.789 84.366 102.533C82.6281 104.277 81.7561 106.432 81.75 109V136.25C81.75 138.823 82.622 140.982 84.366 142.726C86.11 144.47 88.2658 145.339 90.8334 145.333ZM99.9167 99.9165V90.8332C99.9167 88.2596 100.789 86.1038 102.533 84.3658C104.277 82.6279 106.432 81.7559 109 81.7498C111.568 81.7438 113.726 82.6158 115.476 84.3658C117.227 86.1159 118.095 88.2717 118.083 90.8332V99.9165H99.9167Z" fill="white"/>
</svg>
