<?xml version="1.0" encoding="UTF-8" standalone="no"?><svg width="123" height="46" viewBox="0 0 123 46" fill="none" xmlns="http://www.w3.org/2000/svg">
<path d="M12.3072 9.6044L12.3787 12.854V13.0706H12.4503C12.5218 12.9262 12.5934 12.854 12.6649 12.7096C14.3106 10.9765 16.3141 9.24333 21.1798 9.24333C25.8307 9.24333 28.836 13.2151 28.9791 15.7425V33.5071V37.9843H24.9721V32.7127V17.5479C24.9721 14.4427 22.2531 12.1319 18.8901 12.1319C16.0995 12.1319 12.5934 14.6593 12.4503 17.1868V33.4349V33.5793V37.9121H8.44328V33.4349V13.3595V9.6044H12.3072Z" fill="#007CC3"/>
<path d="M0 5.41601V0.938774H4.36475V33.5071V33.5793V37.9843H0V33.5071V5.41601Z" fill="#007CC3"/>
<path d="M106.901 22.314C102.106 19.9309 100.461 19.4254 100.461 16.6091C100.461 12.9262 103.466 11.843 105.899 11.843C108.689 11.843 110.478 12.9262 112.983 14.7316V10.471C110.979 9.74882 109.262 9.45997 106.972 9.45997C102.393 9.45997 98.2426 11.1209 97.1693 15.0204L91.5166 29.1743L90.9441 30.9796L90.4433 29.1743L85.9354 18.1256L82.7871 10.3265C81.1414 9.89325 78.4939 9.31554 76.6335 9.31554C76.4188 9.31554 76.2757 9.31554 76.0611 9.31554C70.8377 9.38775 65.7574 11.6264 65.7574 16.898C65.7574 17.1868 65.7574 17.4757 65.7574 17.7645C63.6108 12.7096 59.0314 9.17111 53.7365 9.17111C53.0925 9.17111 52.4485 9.24333 51.8761 9.31554H36.9215C36.2775 5.48823 38.0663 3.32182 40.7138 3.32182C44.0768 3.32182 45.4363 4.33281 46.9389 5.63265C46.9389 5.63265 47.0105 5.63265 47.082 5.63265C47.082 5.63265 47.082 5.48823 47.082 5.19937V1.5887C46.1518 1.15542 44.5061 0.866562 41.5009 0.866562C36.8499 0.866562 33.5585 3.97174 33.0576 9.38775H29.4799V12.0597H32.986V33.5071C32.986 33.5793 32.986 33.6515 32.986 33.7237V37.9843H36.993V33.5793V33.5071V12.0597H45.9372C42.6457 14.8038 40.4276 19.2088 40.4276 24.1915C40.4276 32.4239 46.3665 39.1397 53.6649 39.1397C60.9633 39.1397 66.9023 32.4239 66.9023 24.1915C66.9023 23.1805 66.8307 22.2418 66.6876 21.303C67.9756 23.4694 70.5515 24.4804 73.9145 25.9246C77.9215 27.6578 80.1396 29.102 80.1396 31.7017C80.1396 34.7347 77.2775 36.3234 74.0576 36.3234C70.9092 36.3234 68.4764 35.0235 65.7574 32.5683V37.3344C67.4031 38.4176 69.9791 39.0675 72.7696 39.0675C76.2757 39.0675 83.5026 37.7677 83.5026 30.4019C83.5026 25.9969 79.8534 24.0471 75.8464 22.314C71.0524 19.9309 69.192 19.4254 69.2635 16.6091C69.2635 12.9262 72.4119 11.843 74.9162 11.843C75.9895 11.843 76.9197 11.9874 77.7784 12.2763C79.4241 12.9262 79.925 14.1538 80.4974 15.4537C80.7836 16.0314 80.8551 16.3202 80.9267 16.3925L88.5829 34.6625C87.2949 37.551 85.8639 40.6562 84.9337 42.606V42.6782L83.2164 46H87.1518C88.8691 42.1727 96.096 24.4082 97.6702 20.5808C98.6719 23.325 101.176 24.4804 105.04 26.1413C109.047 27.8744 111.265 29.3187 111.265 31.8461C111.265 34.8791 108.403 36.4678 105.183 36.4678C101.892 36.4678 99.3874 35.0958 96.5253 32.4239L96.2391 32.2072V37.1177C97.8133 38.4898 100.747 39.2119 103.824 39.2119C107.33 39.2119 114.557 37.9121 114.557 30.5463C114.557 25.9246 110.836 24.0471 106.901 22.314ZM53.808 36.4678C48.7993 36.54 44.6492 31.1962 44.5061 24.4804C44.363 17.7645 48.37 12.2041 53.3787 12.1319C58.3874 12.0597 62.5375 17.4035 62.6806 24.1193C62.7522 30.9074 58.8168 36.3956 53.808 36.4678Z" fill="#007CC3"/>
</svg>
